<mxfile host="Electron" agent="Mozilla/5.0 (X11; Linux x86_64) AppleWebKit/537.36 (KHTML, like Gecko) draw.io/26.0.16 Chrome/132.0.6834.196 Electron/34.2.0 Safari/537.36" version="26.0.16">
  <diagram name="Page-1" id="acVHw0--piBRDFsvlDPZ">
    <mxGraphModel dx="1750" dy="1037" grid="1" gridSize="10" guides="1" tooltips="1" connect="1" arrows="1" fold="1" page="1" pageScale="1" pageWidth="850" pageHeight="1100" math="0" shadow="0">
      <root>
        <mxCell id="0" />
        <mxCell id="1" parent="0" />
        <mxCell id="xFVnGtoz3ZWBM4dVi1MS-4" value="" style="edgeStyle=orthogonalEdgeStyle;rounded=0;orthogonalLoop=1;jettySize=auto;html=1;startSize=6;strokeWidth=3;targetPerimeterSpacing=6;sourcePerimeterSpacing=6;fontSize=18;fontStyle=0" parent="1" target="xFVnGtoz3ZWBM4dVi1MS-2" edge="1">
          <mxGeometry relative="1" as="geometry">
            <mxPoint x="425" y="116.34615384615387" as="sourcePoint" />
          </mxGeometry>
        </mxCell>
        <mxCell id="xFVnGtoz3ZWBM4dVi1MS-5" value="" style="edgeStyle=orthogonalEdgeStyle;rounded=0;orthogonalLoop=1;jettySize=auto;html=1;strokeWidth=3;targetPerimeterSpacing=6;sourcePerimeterSpacing=6;fontSize=18;fontStyle=0" parent="1" source="xFVnGtoz3ZWBM4dVi1MS-2" target="xFVnGtoz3ZWBM4dVi1MS-3" edge="1">
          <mxGeometry relative="1" as="geometry" />
        </mxCell>
        <mxCell id="xFVnGtoz3ZWBM4dVi1MS-2" value="ENA advanced search" style="rounded=0;whiteSpace=wrap;html=1;container=0;fontSize=18;fontStyle=0;strokeWidth=3;" parent="1" vertex="1">
          <mxGeometry x="317.9230769230769" y="165.38461538461536" width="214.15384615384613" height="57.692307692307686" as="geometry" />
        </mxCell>
        <mxCell id="xFVnGtoz3ZWBM4dVi1MS-25" value="" style="edgeStyle=orthogonalEdgeStyle;rounded=0;orthogonalLoop=1;jettySize=auto;html=1;targetPerimeterSpacing=6;sourcePerimeterSpacing=6;strokeWidth=3;" parent="1" source="xFVnGtoz3ZWBM4dVi1MS-3" target="xFVnGtoz3ZWBM4dVi1MS-9" edge="1">
          <mxGeometry relative="1" as="geometry" />
        </mxCell>
        <mxCell id="xFVnGtoz3ZWBM4dVi1MS-3" value="Downloading registries in json form" style="rounded=0;whiteSpace=wrap;html=1;container=0;fontSize=18;fontStyle=0;strokeWidth=3;" parent="1" vertex="1">
          <mxGeometry x="317.9230769230769" y="280.7692307692307" width="214.15384615384613" height="57.692307692307686" as="geometry" />
        </mxCell>
        <mxCell id="xFVnGtoz3ZWBM4dVi1MS-27" value="" style="edgeStyle=orthogonalEdgeStyle;rounded=0;orthogonalLoop=1;jettySize=auto;html=1;targetPerimeterSpacing=6;sourcePerimeterSpacing=6;strokeWidth=3;" parent="1" source="xFVnGtoz3ZWBM4dVi1MS-6" target="xFVnGtoz3ZWBM4dVi1MS-8" edge="1">
          <mxGeometry relative="1" as="geometry" />
        </mxCell>
        <mxCell id="xFVnGtoz3ZWBM4dVi1MS-6" value="Excluding registries without geography" style="rounded=0;whiteSpace=wrap;html=1;container=0;fontSize=18;fontStyle=0;strokeWidth=3;" parent="1" vertex="1">
          <mxGeometry x="318.0030769230769" y="500.0038461538462" width="214.15384615384613" height="57.692307692307686" as="geometry" />
        </mxCell>
        <mxCell id="xFVnGtoz3ZWBM4dVi1MS-24" value="" style="edgeStyle=orthogonalEdgeStyle;rounded=0;orthogonalLoop=1;jettySize=auto;html=1;targetPerimeterSpacing=6;sourcePerimeterSpacing=6;strokeWidth=3;" parent="1" source="xFVnGtoz3ZWBM4dVi1MS-8" target="xFVnGtoz3ZWBM4dVi1MS-10" edge="1">
          <mxGeometry relative="1" as="geometry" />
        </mxCell>
        <mxCell id="xFVnGtoz3ZWBM4dVi1MS-8" value="Establishing metrics for&lt;div&gt;&amp;nbsp;registries&lt;/div&gt;" style="rounded=0;whiteSpace=wrap;html=1;container=0;fontSize=18;fontStyle=0;strokeWidth=3;" parent="1" vertex="1">
          <mxGeometry x="318.0030769230769" y="619.9984615384615" width="214.15384615384613" height="57.692307692307686" as="geometry" />
        </mxCell>
        <mxCell id="xFVnGtoz3ZWBM4dVi1MS-26" value="" style="edgeStyle=orthogonalEdgeStyle;rounded=0;orthogonalLoop=1;jettySize=auto;html=1;targetPerimeterSpacing=6;sourcePerimeterSpacing=6;strokeWidth=3;" parent="1" source="xFVnGtoz3ZWBM4dVi1MS-9" target="xFVnGtoz3ZWBM4dVi1MS-6" edge="1">
          <mxGeometry relative="1" as="geometry" />
        </mxCell>
        <mxCell id="xFVnGtoz3ZWBM4dVi1MS-9" value="Merging json files" style="rounded=0;whiteSpace=wrap;html=1;container=0;fontSize=18;fontStyle=0;strokeWidth=3;" parent="1" vertex="1">
          <mxGeometry x="318.00307692307683" y="390.00307692307683" width="214.15384615384613" height="57.692307692307686" as="geometry" />
        </mxCell>
        <mxCell id="xFVnGtoz3ZWBM4dVi1MS-22" value="" style="edgeStyle=orthogonalEdgeStyle;rounded=0;orthogonalLoop=1;jettySize=auto;html=1;targetPerimeterSpacing=6;sourcePerimeterSpacing=6;strokeWidth=3;" parent="1" source="xFVnGtoz3ZWBM4dVi1MS-10" target="xFVnGtoz3ZWBM4dVi1MS-19" edge="1">
          <mxGeometry relative="1" as="geometry" />
        </mxCell>
        <mxCell id="xFVnGtoz3ZWBM4dVi1MS-10" value="Metadata curation for country&amp;nbsp;absence" style="rounded=0;whiteSpace=wrap;html=1;container=0;fontSize=18;fontStyle=0;strokeWidth=3;" parent="1" vertex="1">
          <mxGeometry x="309" y="742.3076923076923" width="232" height="57.692307692307686" as="geometry" />
        </mxCell>
        <mxCell id="xFVnGtoz3ZWBM4dVi1MS-15" value="ENA simple search" style="rounded=0;whiteSpace=wrap;html=1;container=0;fontSize=18;fontStyle=0;strokeWidth=3;" parent="1" vertex="1">
          <mxGeometry x="317.9230769230769" y="50" width="214.15384615384613" height="57.692307692307686" as="geometry" />
        </mxCell>
        <mxCell id="xFVnGtoz3ZWBM4dVi1MS-31" value="" style="edgeStyle=orthogonalEdgeStyle;rounded=0;orthogonalLoop=1;jettySize=auto;html=1;targetPerimeterSpacing=6;sourcePerimeterSpacing=6;strokeWidth=3;" parent="1" source="xFVnGtoz3ZWBM4dVi1MS-19" target="xFVnGtoz3ZWBM4dVi1MS-29" edge="1">
          <mxGeometry relative="1" as="geometry" />
        </mxCell>
        <mxCell id="xFVnGtoz3ZWBM4dVi1MS-19" value="Metadata curation for country validation" style="rounded=0;whiteSpace=wrap;html=1;container=0;fontSize=18;fontStyle=0;strokeWidth=3;" parent="1" vertex="1">
          <mxGeometry x="309" y="859.9976923076922" width="232" height="57.692307692307686" as="geometry" />
        </mxCell>
        <mxCell id="xFVnGtoz3ZWBM4dVi1MS-29" value="Exporting results as csv" style="rounded=0;whiteSpace=wrap;html=1;container=0;fontSize=18;fontStyle=0;strokeWidth=3;" parent="1" vertex="1">
          <mxGeometry x="309.08" y="979.9976923076922" width="232" height="57.692307692307686" as="geometry" />
        </mxCell>
        <mxCell id="xFVnGtoz3ZWBM4dVi1MS-40" value="E&lt;div&gt;N&lt;/div&gt;&lt;div&gt;A&lt;/div&gt;&lt;div&gt;&lt;br&gt;&lt;/div&gt;&lt;div&gt;A&lt;/div&gt;&lt;div&gt;P&lt;/div&gt;&lt;div&gt;I&lt;/div&gt;" style="shape=flexArrow;endArrow=classic;html=1;rounded=0;strokeWidth=1;targetPerimeterSpacing=0;fontSize=18;fontStyle=1;width=28.42105263157895;endSize=9.557894736842107;" parent="1" edge="1">
          <mxGeometry x="-0.2258" width="50" height="50" relative="1" as="geometry">
            <mxPoint x="664.2900000000001" y="50" as="sourcePoint" />
            <mxPoint x="664.2900000000001" y="360" as="targetPoint" />
            <mxPoint as="offset" />
          </mxGeometry>
        </mxCell>
        <mxCell id="xFVnGtoz3ZWBM4dVi1MS-53" value="" style="shape=image;verticalLabelPosition=bottom;labelBackgroundColor=default;verticalAlign=top;aspect=fixed;imageAspect=0;image=data:image/png,iVBORw0KGgoAAAANSUhEUgAAAp4AAAEUCAIAAAAN16HnAAAAAXNSR0IB2cksfwAAIABJREFUeJzsnXmcnVWR96vq3KVv7+lOQhYSIlsCAhJAR0URHNwQYcZtRgcdHRl9RxzcwH1fxnVGFAFxXGcYkLAoIIvsDCIQTNghQBKykJC100t6ufc+p+r9o+qcewMM6STdnXA93w+E0Ok893mefp5Tp7ZfoYhAIpFIJBKJRoF29wkkEolEIpEYS5JpTyQSiUSioUimPZFIJBKJhiKZ9kQikUgkGopk2hOJRCKRaCiSaU8kEolEoqFIpj2RSCQSiYYimfZEIpFIJBqKZNoTiUQikWgokmlPJBKJRKKhSKY9kUgkEomGIpn2RCKRSCQaimTaE4lEIpFoKJJpTyQSiUSioUimPZFIJBKJhiKZ9kQikUgkGopk2hOJRCKRaCiSaU8kEolEoqFIpj2RSCQSiYYimfZEIpFIJBqKZNoTiUQikWgokmlPJBKJRKKhSKY9kUgkEomGIpn2RCKRSCQaimTaE4lEIpFoKJJpTyQSiUSioUimPZFIJBKJhiKZ9kQikUgkGopk2hOJRCKRaCiSaU8kEolEoqFIpj2RSCQSiYYimfZEIpFIJBqKZNoTiUQikWgokmlPJBKJRKKhSKY9kUgkEomGIpn2RCKRSCQaimTaE4lEIpFoKJJpTyQSiUSioUimPZFIJBKJhiKZ9kQikUgkGopk2hOJRCKRaCiSaU8kEolEoqFIpj2RSCQSiYYimfZEIpFIJBqKZNoTiUQikWgokmlPJBKJRKKhSKY9kUgkEomGIpn2RCKRSCQaimTaE4lEIpFoKJJpTyQSiUSioUimPZFIJBKJhiKZ9kQikUgkGopk2hOJRCKRaCiSaU8kEolEoqFIpj2RSCQSiYYimfZEIpFIJBqKZNoTiUQikWgokmlPJBKJRKKhSKY9kUgkEomGIpn2RCKRSCQaimTaE4lEIpFoKJJpTyQSiUSioUimPZFIJBKJhiKZ9kQikUgkGopk2hOJRCKRaChyu/sEXkiISO9Q5e4n1q/YMtw7NNKztczC1UyqAAggiMicc1gkQOZ8rpBz0JR3HTmY0l46YO+uuTO6mwrphicSiURifEmWZhsEYPmG/odW9/RsHVnfW1nZM7B0fd/qvpGtg+Wh4Qo5QS+AQkhCAC5HnoVAAAEFAAFYmEhYhAEAhUBYQEAQvGeRTFgASqVie1Nu/8mdc2e0z53e2dSc26er46X7T2ltKuzuG5BI/EWwZMnj8+YduLvPIpEYL1BEdvc57H7W9g5/9+r7bnzo6b7+ocFKBqV8e1NTe8EV88AsuRxljN6LsAhkQnkgAe+BUARRREQAQX9BAUIUZBRQZ569gEMSYBFChcVjjgAFtlaqfSPV4a3DeY8tpfzcfbs/+5ajXnPwzN19SxKJxuQ/f/bzCy5asHLlk4898mCxUNzdp5NIjAt/uabds/zhgaf+uGTDbxY+saW/7HL59q5Sc6nQBAwgPhMWZgFBAgCHIgyAQCgsICIEKCAogggAKCC1/wAACAKAgAAjIIMIIAKACCExVxFQRBwCIOaQiESAhoarfUMjg4PDuZx7xysOOPHIOW84fF9C3M13KpF4gbP4vvtWrVx99TXX3Hnn3aXmlr1n7jWwdej6a39PlIqNEo3JX6hp//wlixb8cVk/4JSOAjkEZgGLqQsggWhwngUQhIWcAKmlRmERJFC3HJEBQMSMOhKwIIGICNpB9MCsuwJAFA9IQIAoIigs6MQDSJXBoSAQIggKZrJxy1Cr8x844agzTj5qd9+wROKFxz1/XnTRby6+8667c47aOtqL+TySQ0Qi3Lhh8803XpdMe6JR+csy7Z7lwjuWfvHyRVtHKrOmdZKjrJoBqFssCHU3BCG43TVnHAUBRBBBBEAQQQCQ9Q8FEFFELT2AAOj3CQgCMGD4Fv0OQUBGQGEBstQ8IAgzCCMhATqHwLJ67WaE4q8//tdvPHzf3XrzEokXDPff/+DfvesfSs3NHe3tU6dMppzLKlUAEEJgIUcbN2285YbrMYXEEg3KX1AZ3WMb+v/5p//7ZM9AR2tTd2czs2ScodlrAAEGIAiGG8BssP4p1Fl48do0yPaHFmzHYLERQQQFBEEQUNAiAgAAwMBovwEARNtSIAAwCAACkgMRFuCMUWDmzO5yhU895/oj95n884++eXJbaTfdv0TiBUO+WGhqajr0kIMHh4aZva963VWLCCEgAAJJ2NQnEo3HX0o86qZHnjrys5dvHsmmtLUQUSbRnwbh4HWDxd/VjKOaaUuRh19AbxoDAIl9TV3x4LwDiwiwHkk/B0CQBUFEUJcY1LB7xroDAEAR1O8Qr1sEIABx7DPIE0+e0nHv031Hn3HBwifW7M77mEi8EGhtLrkcemYQBkRCB7VtNwgQYrLriUbmL8K0//i6B993zm1zpnc7hxkIamxce9UghOIRAUgA1ZMWi6VbHh3BfrXIO6AIMACGuL12vYsAWGwdwh/qVxEQQwiAMR4fARF0B4CkewWN+yOgMAJ4RBAkkWo2qbXJNeXf/PXf/uKmh3bv/Uwk9nAKhSJhTlhDZMjCgPZigwCBsL2YiURj0vimfcGfln7l0kVdU5oRM3Ho1AnX0DkRgCCSsIAwgoCwBudFNOnuMfj2MfeOwNrnFsw0ICAyIAAhAAhqJt7ccUDdQogG/jVYUPtfFo3nC2QSNg0sLChAIojAIuwdACGzy7kXzeo6/SfXXH3Hkt19XxOJPZdCvgAERM4LimcE1CAdAqMDIdSI3O4+zURivGhw037FohUf/sWde8/sQCYicqzbdgIAZhAW4Bgz1228edKaJgckAEGVpAmOfqyGQ7AovQgLiiALgAAKIta8fj0Rq7kj1ry+uuWCiA6QdNugDfIoRKS/Z7FiPETUWnp0VK74F+0z7d0/uvqXNyTfPZF4bppbmhGARRAFHMZsGQKJ7qqTx55oaBrctH/xt4v3ndUq4IAQ1FcWQBQC0QA5guTYYvAIhGw+NggIsqbGQ8heTS0hxiy9CDIAI2rAXm+mgIgIWWxd3XckFkTNn5OgltZpal1XGdYkvG0xQFTwBm2bAQyCQKGuD+HA/Wac+ZNrnnh6y+6+wYnEnghRKJNBMAe95qMjCqBr8KUv8RdOIz/f37rmwf6tIxmjGWNrXYvFbIgoIsCOncNSnpyTfA6RgNRqCwh4L2wBeghpOwlF8YgSGtRF2LLn2kNHsU6PWECAQVhYWCMDguqgi6YAwKuoHSAQWAMd6jexj5X4+jc1rFipZlNmdL//+1fu7nucSOyJ6D6aNb+mpS22i0YAYds7JxINS8Oads/yhZ/f3tXV6i34jhYt1xR6SHrni7megerDyzYsemTdA4+uu2/Jug2bh8jl8s4hACGhAJsrbrXvAFpWbybf/jEjXVOXtWY2YDRrjSG2D+ass9pwQCQRNjce7DutzZ6Q4/HB8gTC4DPJN+cfXz/4tu/8dvfe50RiDwSJ2Gf26oRgV12HC8SW1kSiIWnYvvbv/P6+7lldzILBkQ7ptdBnLrRlYHB6W+mUl+1zzNxpL583oynn7lm28a6l66+/f+VDa3undLWi9Zxr5J7VCKv/jhyT7YgWnzeTLJaNR4mt79bBbudmkUHSInsRQAsgxG46QsHQNRcy9wziABwAIzhHkmV7z2hb+PDqxUvXHrH/jN10mxOJPRFHREQhDK+vbE06KpXPJRqehjXtj6zsmTWlqVoRsgo40bYy7UFnhjXrN7/n9Yf/x9vm14u0v3retFfPm3bGiS+5bOGyf/rP2w6e1T1SybR5JuTjNbSHiKzSVgjAjEBIED5DQpY9aNUIIIC3ajnWUDyiWNOdiPXjaY8dSqgCCJZe9wcOEQQYmICEWQB8Jm0dzVcvXJpMeyJRDyKweIuW2d5bBJhst52Me6LBadiA/L2re0qU18y4NqoRqq4rEuDAYPWDrz30rLcf8ZzDVxDg7S/b7z/+/qila3o8gOjfFQRBdnbTBAgQgEAAkQABGEHIVGfNJCOKAAc9+bCiIAgQamJdo/jM5t6b8HyM++v3gCrcC9c660iQiIEL+dyvbnpkYm9tIrHng+KFHMZXBqyUhWyXnzrfEg1NY5p2EVm/tVyuZliv5CoCwEgwWOW2HPzb37/0+Q9y6l8fds77X93XO+ggKNGKkLdmdo2XM4ekHUoQgteUOGCo3dEoPoP+K6AFfWyaN0GuRjcDLNoBp61xMSWPIMJkNb5o+XhhTb33Dwxc/8DyCbmvicQLB6d6FRgaXkJFHQCqKlTKticalwY17QA6FZ118CqgWmIBcgwb1/eec+oxo9m0v/Wl+05pbckRCgiJEFpUncXi7UGfjkFMVt5Ub6xyTjPlDIAkRCRBcl6detKS+povL/YriJXkhcy+ACLrvHjQ9Yk1to8AzW2lc65eNL43NJF4oUEasbNmFkBUTSpta4VUR5dobBrTtHsWx1mVGSmm2bREXjLv957W+eoDp43mOHlHxxw87ektwy40uCNpUZ2mwBmtVz4o2AHZGBkBGxEjHPN8qkETk+dWQs+hgi7MiwsfbmFDDQZo9x1ZpYDVzxMBg7S3Nz/40MpxvJuJxDizdu3TX/ra1z79uc+P4TE9MJImy7RKniC0uXvthk0h+UTj0pimXatiUdVlzPsF0apznx02o2P0h3rFvL239A0CiaAAMLE3LzpOixMEIWAwC8wM4MmMu5XdBcn6UFWHQQIPJQ6IRxPXgJqirTCIJwQrxhdhEVJpHGER8CzCXMy7kcGRaubH734mEuPBqlWrrrzy9ye85W9ffdxfX3nFVcV8YQwPjoJk8hCxJ1U74JAQUkA+0dg0ZoV8EJ8yn1mCUBwgeJY5k9tHf6hp7cWsyg6x4hkBMxCKw9x0zCuyxsxJZ8OgisoSIqtjwFib3A4CRKJy9WGLYH65RvVZhNAWozh4BsP4d9O1VWU7CSX1AsMA969cf9R+qU4+8QJg+bJlV1597T0L/7x67ZocYUtr65HzDx8cGhrbuvWQ36rpR6qbLrUO1bH8uERij6IxTbsAMIAPA9C1NJ4ZEMDlaKCSjf5QXrwqzIoIkob3TARWQEiQgwI9AzhEHfhCIKZnh6gt8bG5Vn/PCASCot4+Ui0cr6l5K8fzwKRWHIHZYgBB0B5U1C6HJKXC+t6t43hDE4ldhpl/8YtfXnLZ5Y8seWzWzFlz5syaPn1aVq2IhyyrMnMu58bw4whRwlxlAEEhDHWvpl+VSDQujRmQtwlsQamGhdl0pAUQl6zpGf2hVm4cyBfzIkJkI2FEa+pE1MkO8140TM4ghIJsnTao4jYEQtEHD9HB6D6Ebrf4D0NNUxaATa8+TqOxbwsDaDMRFBkaro7PvUwkxoZLLvvtN775b8Vi8RWvfMWMmdPK5Uq1UhEgdFGkcSw/jpkBkDAuA2EMFFjVzFh+WCKxh9Gwz7egcDCDtco0QHC4aNnG0R/njkfXzpzWwuKF2ea6hQpbrczBWh0dq8BlmMyuHkOUpgWTj4cgigVWYkdaaMfBZkMcDq/RBwgqdRImwAdJLRFN1hNSmZMXktijyeVcW3tHoZj31UrYywYDqw2fYxwhj8OYEYPeo9WyBF8+kWhUGtm05xwiCEUvGQBBCMmRfO/qB0ZzkKFyddHyTS1Fx1blFh2LoE6NzOavC4XRbCBIIipUg2Alcxw75URAEJkBgYQEWI2yFr/b3DhBU63XDH7UoDfJWhthF05DUFt4E4k9GCRii3yhTWuyXk9AVKmIsV2OdLPAteYT6zKt/ZpINCoNa9ozFmQfFhJzq1GAWGbN6Pjhlfeu2Dyw3YN8/sI7+yvDmfc6Lx1s/kuUvtDGWWABy4ib8w1QJ1kPZFqXQBjMNIiASmlgrdg+zIgJp6sFeTEnyLFlDgFU8yb0zDGjZhETiT0WQgLzoTURRfZeWIxLxtbgIkmIwgsAkCnHm9/O6X1JNDSNadoRIIcOMQcm8iKIKg6DAphl0japdOq5t6zvH/q/jiAA37zk7gvveKyt1MReNeS1hM6rrdXB6wyCKBTmvNqsmDg90tRnQlReK9tRov1H0nJ6ZAFBXekwTINFQLKF0IbAgdXZ6yqIGgkIX025w8QeDyKRPrgWgZdayWgMXI0RzB4ANdkuqgMtIMIqY+XS+5JoaBrz+dbgm4i1eocCNC1MYyEo5d1T/UNHfeqiyxY9t9jLm7515fm3Pj5zekcmQkS620cAFDI/WsIQGADguhKgEF43554ltKrrtsACkBTa2AAAUJVrGRB8aHcTAGCdb8FaWCe1pjub8hpj+PXOfSKxZ2JRLd2QIoHUDUuo7WDHECRTjsRaEYu9imOf2E8k9igatPlNam8xsA5WM7lJECEWL1DM55q6O//f+Td9pjn3rpcfOGtyR87B4Ej5lkfX3fboqtZScfKkUrXqCUmYARDEs5a8s3nMABzGs4IAEougMAAFVVt1wjGYcAQKI91CrD4qyAMyRIFa7WD3Agg2cU6PVlPMRWGUUJlHGo/YnTc8kdguZLMTBUAlllHnHHFw1se4so3Fm9qzvfiW0Kork08kGpXGNO2h14VAGJxlqKMsTP0I9pmTmzPPl927opKxiM8TFp3be0ongHj2zgTgNV2vxhht2AwwBgsfJrPawHbhIC2v/+FgriVYYz0chvVNQIPrKGqmdUKMGngSYO3PRZsJE7cMgoJIKKJRxpQ7TOzR2JNPhCIquySAauXrAmFjBjlHpK+RhBdXLMuVFOQTjU7DmnYQD8wALEIEwBpJNzUYYUERcCQilHNEzIWSI5/zLIjCnm0kCwKQNrGLfYlFEMVLGN8ehrNrnI/FaS5d58ILoIgPU2B1pBshafodBQnFNDQ0RG/pQD2sHterU4NafW+9+hJS8ixMuZyWJyUvJLFnExxl7UJj3XqzvT5jbmotH2a1+Oa2m4pVkIBMJBqVxsy1o+nFECK68CpTkGrVGjS0YY8AiEzEHhkEHAgBEAIRkbnhJjftgSyqr3PTzX3HEHJHNok6tckgllCnkBxX6yueo3Mitq6pMK65/SLAKIhhyrvK6XEYSQO6HRAiDEV7AsjJsif2cPT1i71ntbnpEgz7mD7D7GPDKbNtJyAKUaSAfKKxaVivXXQ6O2CIwqNG6NUhxtBIjsghLa+utunBaGYOARBVDk4Iw67A1O50/y8iwCBIyAxomnGgh+cgGSvxF+tL51AJp+3pwCplg+rWowiHc4Qg7lGb8aqnKUHIJuTfE4k9GhHB0OehOhEC2u4JdbPUxwwk3X0LCOnWWYTDbIkxrsZPJPY0GtNr1+w1mO6boBl2BA8q7R7+UfUYDZAz1FnIMIBNgoScDl8PEyZYat687QtEXXUJfz9KbdnWIkjWAbBV9VkZfDy+fhyHSngOg2JjYV64OGt610AmIkPI7icSey46CYnD9jdMPgKE2qZ5TD+PNL0lpO+mvcOmKJ/CXImGpjG9do28ec8ahUMzwSzB+tqywqwFdUGU0ouWpYE1nQkiCoOIkBXiYW2wRGhXZwsBiH2DzXIFYM7MYQBhy5aDgAhpaY9K3JFEvTpCdfvjv2DD5TxYD3CcPS2mj63bGJcGVCZeGNjkYtZMlUQh6FBlOoafhNpgQvru2IdpkI5SGV2iwWlM0y4ixVy+qVjgShUcAYdZ5oJMSBz6zRGBarW5Gq1nJkGhUPUmQDpcRjDk2kVibB1QpWYYkXxVMu9Nb0vF4xxo6BxjWgAE4ww3AEAO2jZIYa500JvVzYINatcyO5tQabZfVOvGafNdWqoSez51ka2QnhLRHFkYhzRW2EyoWvUpYig/Dfm0RKJhaUzT7r1sXt/b0zsYtN1RhIEQGJ0IE6EAkgAQAxCCMLN2kwloe3qtJV5r45yWvyGCByBmQGG10QwgPkOAzkmlKZPamRmtxR3VUdDxb8CMJjqrofSoWwcCSGT7BQxKdVqPZ61xGEfBBHm9EL7X6DyzTytVYg9HQnW6JZBsYmLNjx/bILlmvFg0nUUYhydGtdtEonFpTNOOBD/+8Ov2ndHW1VIkImZEACTwbG42MjB7JEJCG8/C7G2gmkSbqhbUMxOpcA2gznerWxa8SNVL/+DQk09t+fltj1ZzEA8EUQnW5rsjarePJQJFBIhERLxoKl9CAtKGwsYdQHDzo5iWNQGTxh3QSSoLSuzZMGtVCDF7q0QFAAJke8IJx7QhjSHksezdEO2llzBFOZFoXBrTtOede99rD5IJ7nCZD7c/sHJJ35Cv2WcCYBbWtjfVtVGfBVV7DoVZEJHiGHYB0imtuocIcUOUUEJMYa6roOnTOyAKYraJxJ4KOUJAZmZhRAeIKLZTFhRCAMqP4cexJsPqJjYiiUrTgUhj1g8nEoHGNO3KxIfcUDiHXK3vdtNSOBRg7fHxmgow1z3MhJPQD69JdOEwBBbVmguH0jqrAwKx4W+k7X1MKSI/CpY/ufzJJ1du2ry5b6C/PFSuVCtbtw6MlMuIWCwW21paC02llqZiS2vbjJkzDpo3t7tr0u4+5cbBkWMBIhJHGh2L/jQBCYDLjeUbS7EwBjA0vYYdtO2l/1JgkXvvXbxu3cbe3p6tg0PDg0MjlYpmFUttrS2lUltb24wZ0w856OCu7j39gd/c0/PEE8vXPr1maGiot7dvcGhwoH9gZKSczztEamlpLTU3N5eKpVKpu7t76pQpRx4x3zm3u896N9DIpn03gAhZBpJDYPWryUTttG3Oh0kugiKICKIT5Wycu7bioTgd0Soakxet+ZMw8yYoYQvF9nrmNK79+Tjvpz+78oorn1i2nIVbW1o6OtondU5qKhaAEJBQBEUyEASoVn21XO7r6+3tHxzo720qNR199Cv//p3veP3xx++WM390yaO/veKqz336UxPwWYNDg82lZniuPLSY7sJoD8XWBrINOedaSk3MTJRjLRG1OLwAQs7lfFbd7pGr1Wo+PyrnPvSvB6koAURkACIARN7ZiHylWr31f/93xYpV69ev37hh08jwUL5YnDl9+n777nPcccdNnTp15w47HjDz+T/96f9cfMmKFStamlq6Jk1qb28vlpoKeXLOaQVjteIr1Upvf2//lt6e3i2Tu6cce+yxnznjY9NnzNjdp78NCy67/NJLL110771Z1Tc3N7e1trW3tzS3thULBSLTIvMgAOg9Z5Xq4OBgb1/vQP9AtZJ1dLQd/9rXnn76abNnz97d1zFxYEo6jSHv+cbFj/YPVTKb4B6UMYLqjFXWCSJy7GW3hniUoLYpsdw9qN2KPHOCBiIga3EeF3Ju9dObf/D/TjjltYdvezrbSnyFH7TYKDkNGhBgY25p77zrroceevSa6657fOkTpVJzV+ek9vY2yuUQmFm8zxBUjzDoo5GIoDA7l0PnHCIgVyt+S29vb++WlpbWo46cf+wxx77pTa8vFArjccKrn1qzatWqjRs3r1y54tElj69YsWLTps0jlfKmTRvXPfXc8wnHlv0POLCjs2u4PGIDBRnIoYgQUv9A75e+9OUPvP8fR3moWbPndEzq0ioWFEYC53KtbW1TJ08hIiLkKN0U1J1EuH9gYHNPT5ZliGgD4rQAVsDlHGe+ubk0uHXrjdf/YfqM6ds9hyOPetmB8+aNjJQRAMna3bSbNOdym3t6brju6u0W0/X29i1avHjlytWLFi16Yunynp7NlWrF5XOFXCHnkHL5HCEgjpTL5XI5q1Sbmppmz5513Gtes/8BB7zu+Nfq0MgJZt369bfecttV11778EMPF4uF7q7u1tZWciTee4sJCmrHDjpAIUQEJEc5ym0dHNy0cdPg4OD0aTNOOOH1rzr6lfPnHz6Kzxx7Mp/deuvt999/362337F82ZPFpvyk9o6OjvZisUmAhYHFe89BURgQKegIIyGQcwDoiJhlZHi4Z0tvf9/AjJnTTjjhja98+SuOPHL+brmoiWSPNu0PrN6y5OneNZsHt46Uy1VfyaTqqxkDsAcgRnGIAMwcm8mZkISEM1ZvDAg8M9r4NxRmARIRTXuDgEMABM9Buh3JgTBL3kEmNTUaMv9aQCCzUS5akQfADOgy8YUc/enh1YVicaTq1WfBEACU0I0OQR8LzPaLdeZw6HlTTKcLMewDoFbCZ/sDW6VEmvLuyTWbf/gvbz7ltS+Jt042nA3rfy4uh8BCBLqz1R59YEQEdCAeAAELgiXJt0Pbm7DjRHIzd8vPegy55urrfnz+TzZs2NDdNaW5pejICVvewzM7IgHLuGp7gk0N135IQRu/E0oaCRGJRDjLss2bekcqIx/9yGmnvPvvx+psb7zplm98+zvIMDTU51yxpbWlqdSUc6R7OpfLLVu2fPE9d4/Vxz0Ph7zkiIMPPshnGTqyujYBYaZcrlqunvjmE079wPtGeajj33ji5MmdWTVDdMIcBB5tFLHVymMsVwdmJiIAQR2DGFrXBMI8BUQRbim19G/tX3DRhcVicbvncMSRL5138IuHh4cRgLRa1QJhkMu53t7e666+6nlM+4JLLr34kstWrFyVy+U6J3WUSk1OCAkxFOZZDwwCEgCDvcQCLFypZD09PYDyNyefdOYnPj5h1fjM/PkvfeX662/o6Ohob2/L5/NoIT2L9ZlYUFxPAFG7asUSh0imy1XlbGhwaOPGTUccPv+HZ/17S0vzxFyC8tWvffPaP1yfsUyd3FUsFsmhCKE1BAvZeG3taQqLuYmHRqVOIhC2nxIQIouIyPDQ8IZNm/Z90T4//clPJnV2TORFTTB7UEB+60j1tkfWLF7V+7vFT67aNFDJMmJBInTonEMWJGLx0RsmQJZQoiY2KtK0YIAEJdS+2+QVXbbDIBeJqrIePIGz1B+IcGwT1wR4kKtBRg7NaGEGHDMTOIFMZ720NpeAM31JbNUS88YlCsJKKHPXiXBgpwgSOm7F3kJTxIk9O1bma/591LPR4Kdsu3wIIuUrWJwkotOvHLCOuERkB6RbH71XGXIFh1bB4Ldh7VekdAhMeqtvOjbXfJAe6YVSoFfzt/wxAAAgAElEQVStVv9w/Y3nnf/T1atXv2jfF+23736VrGq116h6QJAjZ4oAoNIlMT0iRDqaV6f5BRUjTYh4LwAO3bTpUwHgrB+e/esL/ueLn//sMUe/ctdPe8WKFevWPn3Y/MNQphJwNcvCY4uI6D1PWKqFvWf2LAKeKRZwAvqsmsu53r4toz9UU1MRAIVBiKNYcggi2RRFtHY0BBAk0q/GzFR46NS/R2AEpIw5l8vncqNctag2QRG22ScAIj9XMX65XL799jtuuOnG6667zuUK02fMOPCA/YC54hmFPYhDFPGIwEAooJOVdestICA2rLapqTB7n705k8suv+LKq675xOmnnXzyyc6Nowfvvb94waVnn3uey9GBB+yfMfuqF9ZdFVJUulKHBPR/aoraFASxVAvTIRBSW1t7d1fXylWr/uqVr3rnO9/+sX/9SHt7+/hdAgjccdddl11++XV/uL6tvX323jOdc5Uss7UYRJBBkICAREWL4xwuXZJZ25eB9GeurcsS8pd6jObWlgM7O3p6eo87/g0fPPWf/vkD7x9lfucFxx5h2p9Y3//Fi+65f/XGnow7m/LFvJsxuRWEmEJzFwCoT6XPJou9qADCjEQiPhTCEgCT2W5WYRqVljW1eGYhxDAkVXfaKhKHSCjAwILgxEZGqaAGInhhh2HOW1ilhNne16Aay96y52J17KCzW1CizZYgWA/W4q5bB7HIpM6KDVuD2oYgXACF6fNajCeqaf/M3jfKg2TAElzzLCjugVAVLPgfHSjHuVakNmRgGcGN5yGey7nDYc5PiZom+mnYKX531ZXnnPvTrFppa+/Y/4ADAKBSrdgWKd5ALT20t72+CQoB9FkJP6XQhIhhpABYdIcRYM6cfSrV7NOf+uzRrz76+9/+t1088/aOdpdzkvlq1QOKRglQQqRmrEedPj8IpNOPTNwYRUCEJdeU37JlB0x7R3sbiK9IjAqivmAIHBNDJsNkInTqfiGEXjXbeUPYfZGWp0ihUBhllDuEykBnL1PQrNHWVHqWof3Wd79/w403ZZVKW3v7i/bfP0dOQCrlimbQEG34ou027HYJAzAgiqDV35tDkFUzANl75gzvs7N/fN5vLrlswUUXjP4G7hArV6867bSPDo+MTJ821ZGrVjPRTardB0bzyQEJhFEdohCfArvzelsAWeOURCxSrlbb21tb2w740x1/uvmW2z5++r+efNKJ43EJjzz66Je/+o2Vq9ZO6W6fN3cuIeo2M+ge6ENB6tOQ/oa96iEwiMPaj9vWXBEUZH3kbHXUUZtSqVRa21qbW0qXX/67m2659bKLLxyPK9rt7OYekA19w2dedPdLP3fpn9Zsbm1r2ae7panoWOevIaNnYGAWEWBhZmYRBtan0aTfEVmYrTk2xMkEhHUDgCwehC0cwyxhoroXAZYQGrQ3l4ER0KmAuw1hZ50cpWMoVWxeo4uqJC+hkE1HqasDbpenT6PEKADUEuBouvIgCGxjLVEEHYGwemxYr3kLUUdHdebZtgPaApd52HZeuwiKEEDOJHcgVtAjCpn6vYUJbHi9hiYIULCDYApW7pIlL6v03j6xT8QOs2Llyk+e+ZlPf+bLHe3tkydPzefIAegiRWBTQSCUGggCIDokQgLAajVjzth7EQZymrXA0FwRC8c4hFy0cIKFHcHes/a+/bbbP/QvH6lWt1/89TyQhqwBHSERaekk6wZOd6ATFc5Fe3R1HSUz8EiCKMB9ff2jP9Skjs4qc3iAdX+po43jxEQg21ihCcFGBWjL9AvoG+oFLAYL1UqlpblllPFtCuOdtJZOgOKujhDZm0Ll0mXLzz7nvBe/5Mgrr7xiyuTuvfaaWizmCVAHP4eTBbsSe2vC2Yr+lBjiA1YL1rG23xFh1+RJvT1bDj50/p/uvGvnfjTPw/k/+8Xxrz+BnJvU2YlAdnYa/UO03gDNO2loRLTWxPuM9ZqIHIRStCD1I+w9hb9JhKWWlq7JXZ/9wufP+tE5Y3v+Dzz44Ec/ccaJJ508PDS87z4zi8Um6xKGsDfROZ0C6AVBnEMGFvGq6w0ozlFIm2EcHABxax4icHHkoM32AGhrbxvoGzhw3mHLn1wxthe1J7A7vfbL71n5md8sdMhzZnU5cRXxnAEK5sgzgJAAY1BXNSMJIhCUrIKGC0atVglpbbFtKrDFnGy+WrCuNSOpC3jdnDUdAalt51zn6Fm21o6qqvAWlRcOhXBBGSNsHq0EuJbZjSnHMFlOgqhsvBgWsYRC9BBshQn+T5CykbiYxD1rDTupLK44sZouFi+pNn7Y24eUsz75vgI0DSErrHlXNvLx3LQzJuaR2FEuvPiSs8/+cWtr+2EHz4vDuRniz4oxWItcnnKYHx4Z3tyzsbe/v1IpNze3tLe2knMoMjg8NDg4xN43N7dMm7ZXa0trNat49gQEpKkLUcfMEiGEzH727L2XLl32lr/528sXLGje2WQkEoUnNtoFi6CK6idNlNcexZFUHQ6CxwMghLSpp2f0h2prb1+3YWPG4EhnFpPOLvYaEogyzTogQU2wACJ45pxztdFwIdzFwEiQZVwqjTqMZPMezPNjZIryEILFQmFkZOQLX/nKnXcuLDU1Hbj//uggq1bByrBCfs4MCJjsRJgAqQKRADWfV79DE4KIAIyqZAmCzNLa1jpv7gGf+ewX/v3fv/vSI4/YsR/M/80/f+i0Rx9bcughh6j7qgMrwlKi7gfnnHOU79nSu3btGgaaPLlr6l57lYpF9r6/r3/d5s2Dg4Ntra1TpkwpNTVlWQYAZPEUCDURggAkMPeAAy+97NJ7Ft79X7/+5a53lDHLV7729euuv76zY9L8+UeAQKVSJkcStAdCfYAAgHMOSLYOD/ds7hkYHPJZBQQRiXKIDJnPXCHX1treNamzpaWFEKvVqkXcUF143bVjnFug5RftHa0Hv3jeh/7lI9df+3yFFy9Edptp/8Lli8763aID9puRefXGPYEAOcvQiQAjEwOQQxbGKAMtFtpT5VgBNh1Z0RfXhjWGYhcOyTbk4CPXsn72rortF7RhR1jL70B0CLpQiJUDQDTmYUOB4Os27FaPhRjS9HFqq64oVhig9UJhHo02yQmyALIGyTQiELJiEnPy4ZGXcB6aLSD/rBGVAk7fRwAGkdrZ23BsuxWoJYGxv1gH0YAA5YSriMTuQLfhXJ9rdpM/PKHPx/Zg5jM//blrrr3uyPmHj5RHiCjzzCCx2xAJ2TskcYQi3Ns78NTap5qLpVe9+ug3vO7441/72mfn2B57fOmVV/3+yt9f/eSKFXvvvXdzSzOKCvjbgKEo6o+CLAKE7Z3tlXL5Pe97/yW/uejZMd7RQCjsPTAIC9aFmlEzShMYkGdmNaUqn6A1nBrI8d5XRsqjP9Skrs7169cLswhUOQNA8dza2tLcWmoqFOvipqhVTppbGhocrHo/sHVrNasi5TVYRg6FuZDLoXPVamX//fcb5TkIs9jmqLZJAAAA9L7qWV5+zLFdHR2z955ZrVa4tgcAYQZCRAoDnxBQSEjEa5GfPl7hdQpCVPoaWw4Pg8IUiiCh7i2oe0rXm044+ZYbrj30sEN24ge0zdWJnPqhDz++dNm0qVPZMhfEodlPq2gQwbnclr6+p9Y8/ZIXH/TJT37sOXs4+/v7f/nrC6646qqVK1fOmj27VGpim4Vho/KQAdB58Ug4bfpefQMDHz7tX39y3jm7YgtXrlrz9nf+fbFQmDN7n2pWtUpnR+bP6FunBpilMlze1NdTGS5PmTzlhDe/6WVHvfSo+fO7J3fZrQDY0rPlz4sX//GOO++6e+GSx58oNhVmTJlWKBa8z5BR+1vr4qSIKhWCyCw5IhF+/ZtOvOG6q3f+57HnsXsq5E//1R1X37uqtbNJB58hC2i/mP6x1FV6YGjTqM0/j0VQwCIkoRwEgu9pTjpbVlyQwLpoQx2oeck6rD24+1ZkGWLgMTdupxY+B+NgdyvZEwRgtJodYOtUZzvrWnzBFOAxukcxegex0E57hRi3nV+NsXPOx0gAmp68QLHgVq3Z/IN/efMpf13r6PAbf+I2nQW56QAC4oUwlCTHkfIx0R7HxtfV+NW2/sBCUF4jnW91s747MY/HdqlUKu9893v6+vq6u7oBhdmri6R1GFZojZjLuYGBwafWPHXYoYedfOKbXnLYYQceeMBojr9y1eqrrrnmggsuLBQLU7q7a/dMPbpaG6E9opu39B0494Dzf/yjnbiWy6+48rOf/9Jhh7wYOAvJUYzlzMx+6fIVDyxeuBNH3lFe/JL5B8+by2x7I1bLLsDChXxhYGDrNVf9bleOf+2113/6c587aO5c7zPRWEB8UVmGRoaPe82xnzrzE2N1OUcd+Vf7HzyvMjxiffoaaNZMn2ZuEURXFXv3UXfU2irhnMsX8lm10tfX1791cGh4xKFraSnl83nv/fDQSLkyQkTtHe2Tu7tzzpUrFedcKBKMHkTcUpg74X2GSL+99OJdubTBwaFT3vf+gf6BSZ2TWBhDOYgE284iDmHjxh4AOfWf3v+2t/1tc6m03cPetXDhVVdec8WVV75o332LeccCQEiItVVBRKsGe3t7i8XC7y69pKlp+60Kz+ZTn/38n/50V9ekznyhYItyqAy24BhIPudGRiorV62cMnWvvz35LQfPnfeqVx+dG0WoYHh45I4777xn4Z9/s+CSjs72vfaa5qsV2zTrEyA22KNWzoS4evWav33rSZ8+45M7cTl7Jrsh137qT2/+7z8+3jm55H0sXkSxUjDh8EaI5dTZksgxSAegpXU2GaVOhg1FdKcvQYlVlw4N8JjHZYrVIQmrPZIStVxDRD+42xp5V1dGZ6+ijmLT6EHcVtj8KiFNz3uNnIc6N8sVsArCcnDoAWCbwdECohlKO2v7KgoAW61wCPrbY0ka8Xv2UFcMmUFEIQcx9o+1P4dwwbEsvzZzPsyqAWGEDAuzqPdi7rtmHB+LUSMiBx3ykkq52t3ZAcLghUJWTUfqAQIROEcrVz3VP7D10ov+54Jf/ewdb3/bKO06AOwze9ZH/t+H7vrjbQfPnbdu3XrtkbXqSLG4EVubNGTC3d1dd9111xe++pWduBwUdFbQSWJdVGAPkw0f2Imj7gwUfL4YL9fzc0hEWN4Rr/05GR4etovSfSZpsQqgALOAyMDWrWNxHYaggBfQ+jk0jQhLndkkZUFm5PjY25AH51yhUOjr61v453vue+Dh5ubW953yD5dffNHie/50+6033XzDdbfdfMPCu26/d9HCs8/+wUuPPOqhRx5e8sQT+VxeQ7+Wc4tZvxgTExBhIrd506Z/+9Z3dv66RN73gVMr5UpHZ6dABiQgVkqDqCJ8Usjl1q5d9+IXH3zbzTe855R3j8auA8DLX/ayb37jK7fefP2GDRuGy5nOwbTVl+OqIIgwqbOT8oUzP/2ZHT35ga1b57740LsX3jNj2l75Qp6F0YyQiO3LwTmXQ/fE0idXP7X6hz/4wQ3XXPXhD33w2GOPGY1dB4BSqen41x732c+cef/ihS//q7966OEHIU7qFo3Ik6ZKdFFkFO+zffebc8UVVw8ODe3oFe2xTLRpv/B/l9z08LoX7d1VqYr1mmoMG2JFm5Z1aQge1Vu19TS4svbm6BKhjnfsR7bS3hB4R1NmD5qWoVg6lMXYMDaNgIMIh1yMGfLYfsvBpMbwO8Q6NPsT8+NJRJAgRtNRy90xxEjY3hEEJgur167Oyl9EYpJYVa9NZ0a3ArFKX9Ajaz0oPqNsGJ3eGuRYgxwPGLta42XqTE0rIsMwga4W0aGK5Kfhk6dUe3ZzzKpcKb/hxJPmHXRQsSlvbyxwHChGqMU39PTadSD4mTM/+cdbrh+9RX82Pzn37I999LQVK1azZ2HWmjITDMIwJwDB+2ze3Hk33nDzAw8+tKMfgShsDbiibfQQdnwTHE/z3rOgtx2vWGskkAgwc6Va2cXjqzyASjlAaHGHEPXV9OeYXIgSRybGPr7aB4d9E8cwPIrq82zYsHHN2jWTJ3ef8u53LbjwwscfeeC3ly340Ic+uN9++z7j+IT4qle88vvf/dZjDz141ve/e8CB+61e85TPMgiR/BBb1P2atrYgAUydOvX8n/1i4aLFO3dd//qxj2/a3NPUVAQWFNKVz1tQUlDEV/2q1U+d8clPnHv2WTtx/MmTJ193zVUvmjNr/eaNzhGqg6D5mTo/pVTI3Xvf/eed/587dPAVT66Y1Nk1Y/q0zHtU0QirctJpnEhEmzdu7hvoP/OMjy9eeNdrXn30TlxC5Lvf+uZ5Pzo7hzQ8PFJrddnGy0ESIKKRkXJTU+H8//z5rnzcHsVEm/YP/fyOjs4SizgtrAGIaqkWFoNQ060datq5hrWAGYoIeu10jSn0miRG3Ssdh6OJ1sGFiLMhYpNWRN+7UP4WmlQBNRMIoVLXE4bdMTMCqsaNMEQzHEU5JCwfWNe9ZFFWqjX2CtkSHtLqXHd2AuJBRVBNlNbEZmsJCOvo08jFto26HBqInW5RxSy7ZlBrz3ZU34nbprjsShCB0NBwAVoOcmu/4MubJ+hZeS629PRWyuXWlmYJCUYgh4AAGi4RZHjksSUnnfyWBRf999+MRaPOO9729p+c+6OlTz6ZbyqC1oNZNVWozFGJj3Jl2l7Tv/WdHc9ZWHum5YMh1AqQvpwhkTIBaBCINJ5MptCKoNluKVd21Wu36LQ9T0BA1q4MpOMYn1ULuksgopAV/iPGG6mvkhVVa6yQEPL5puVPrrpn0eK3/93b7/zjbT/+0Vnvfe8pR4xaiO24Y4/9t69//afnnfvIo0v6+/vJQQjzsQlbhY5KFZA+fP6hv/jFr3bior75re/88U8Lu7u6IDwbGDU4CAXAudzKVavO/fGP3vo3J+3E8ZVJnR0//tFZR85/6cDAEDmnrUOm86a9dAAsstf0vb7yta/ffvv/jv7ItqxiKCEOrUlAGqOV8vBId3fHH6656l3vfMdOn389xx57zEUXXtC3pX9ouKwFTw6DKQgbC/3Ojo6O733v+2PyoXsCE2fay1U/9/QLp0/v1GJ18ZILA5WjKIcGukNXmfZ1WXAZQiSPNQCtlRbCJsBupih0i9lEqaizZEYfa363lbTbpDVWeTiOrnOsX4ta04TEXsKMdJu6juzFdg32wVhXhI7RpGu0mK17TmLgW1jEAwXNC3XQNbWL1mcvAjqOHc3j1u4/pGjL1eQ/Q1gGvUWoPQt4i47YPkEvjWJFg1p825JrDXPMJls9ICMxeEAYwk3/MQFPy/+FF/YcJPzsHMOYXARAGRoZOvW97/3UJ8csZQsARx0x/4xPfOzRRx8TYfYxVi3gIWzWCAhdju5/8KErrrxqx44utelA1s5pOqBQy0FOCAzEWr0EGmqyrwqLZ/BVv6sfYCOOatHpOn1G1ZsYU6/d1JuZ7Z2LATttb2YQcQjDQyPrnt7g8rnTT/uXlUsf+9hpp+30J77ksEOfWPLQi/ads2lzj2ZvyJJaIWmn4jDMLaXmxx5fsm79+h06/v3333/176+Zd8D+njmoMmhnoBW/osATS5d94uMfm/+Sw3b6KiLf+/ZXu7s6eno2h8w0ClvkilShIPOveuUrv//Dc0ZfsKUCeXr+FkTRIl9v+8ihcvnwI8asg0Bxzt1ww++BuVyp6CaiFkOVOCBbHFF3V/dFFy8Y20/fXUycaT/72vuluam16DQfDYA200Siqx6UzY2QwwYO1egqQmctmBRMD1LNimvAWjWVCBAhNJVLrT4pVp7rr2wVrcJAwd7HCekqUou19rLQJRe8ZHWCEWpb0ZAOQJUklxAnC64Dh32DXbugFeGrDg8jCjEEHRshZCHLmofGDX0tQlUcAtuuugaiB5WowLC01GbcBrUW1Z6qVdDV1dLVYV9Q3z7XhZvOrZYfGf/n5blxiA6xpkemzQwQ1m3AzPN4yH7943v+4V8//MGn1623HBGGghBBLaFQPZOD58379r//xw6VpiKRxeEFa7NMrBgEnr1nGz9IRQ0l9HXZ+2ZNSPyc+m07Qq4YKjfDv1FnUYuhx9Syq4NIsXuKrZnero7QEdHDSx4vZ9mFF/zygl/9/B/fe8qYZATOP+fH++wz++l16ylHsTcbGTTmrBVD5XKFPd977307dOTTP/bJSZO7q9VKyNqAxeG0WsH73r7+00//yCnvfteuXwUAFArFCy/475GREV+tsgUhxaKlgKQBM6Kens0LLr18lMd0joBQYyaElvsO/Z1axbRjvRijpKW55ctf/Ny6dRuKhaIXtplbJuEgiKgiOfvuP+eGG28a80/fLUyQaReAc295vLXgvISCS4ySkzWbEsrdwtdILIVu2XiTaI6tvsHcsoDm5i1THpRHNEkuppMhCEHOGtT6KxgHsLJtfTFqU2g/SVCLDenPOhcACDn4/3WZdwAJHbxkny2hMSaKoFnpUphuaeYX4pQD00ZEuy0sYup6EL+gd9HrPKtt7rizokJmBKexY32kNZMQbx6a5BMgMEYbicFF00CGjbcWAoHiHFrxyWfa/4mCTR7N/CFrNqj1NdUp9Y41//je9+41barTjksO20gMdR1x2A7SzbfcukNHjkFBAbLixigPNqE6v7UikpoSgyq3AO/6UiEMLLF7LAbmAUBrS3d6GNtzg1b0amV0zmJ5tmsf2Npfaiv9+3e+ddN1V8+evc9YfjDAr3/+syld3cPDFQmCGbptt/wigHgpNTdfdNGloz/mj845b3BwsLmpqGJWtWHQpueAjNja0vKed43ZdAPlW9/8xpa+vjxRGEGB1hcJQMAg3N016XNf+HJvb+9ojxg1f0LePvY9afkz0bgMrHr5y19+7DFHr9uw3pHDGPbDEEIFQYTmUsu6devY7+oudk9ggkz78d/8vThLrgUjhBL3nEHjCc0DM3NnE1sAABi8xMI4RJWyglirEqTj67qSdGaUeZtWdcaigjSo1U8mJIdZzVqbdohEIx4zgFL3TVFsxmy69yFKH+vzxT4Ya710cQiMbRZrAcJw0lYkXVcGKCajFfup6wQVQx2I5pi3tQACIJghOqSQKWCOPdkQ6//1e7lWYBjKTEg1/YLMdyhDIAFoxcqD1S27Z28bOtvE4jwaz4Ogug5Rm2jsyefzHzr11PsffDhHOUS3TfzHoumY+WzK1CkLFuzAkm070zAkUDX09JghPzPxShoY4+baiSQC3u9yQL7+3Ybaq6DQWNcUSJSnRKz7LAQBl8u5XO6X5//nG9/w+jH9zBpf+uLne/t6c7mcpdGiM6KS7g6bm5v/vOieUR5t5cqV/3PRb/bdfz8fyokgNtjrckK4ePHib37ja2M+m/yYV71q9uxZW/q2OEIQp3sy89/BCYIjN2fO7C98+aujPWLQtg2lUXHlCUv6uE1N+O53v71m7RrgWHcVV+3Q0IAwODS8YePGcTqBiWQiTPuDq3v+vGR9Z3vJBqyFqngIvbvWqCVCWmSiFlA4yHnbflc3dzr9h0FVoUOmnW1wkf7IrAPN/CpLfYeoMqkcgrWGaTF+bGa3r5Kg2TsN8FtIARHA2+5fOzbA1kGt4zItsbqli0MtvoX1o8sem2RCClyvjpGtGjV0xUoMW6rTHFQXYqsACgPSM1weK0gEz+bfotjED9umhtJgACQgiUUCVgYrUrce1RoXgBEwQzctt2VnioB2HV39udbDFxY5Cb6vCIxtYLeON77+dQfPnTewtU9E8x22fYOQ8iRHAHLHXXdnO2AIEbUrUg8X1ju0B2vcLuZZWFM0xsetzquKW+ldAtGRhAI6qZlfe46fJbw0NnBQjrJbi0gCI+XyuLYVHjH/8JnTp48MjwBq3VkoZRHQXCGRGymPLF/x5GiO9ofrb2gpNYv3GJOXWNfgCtDX1/+P73nvIS8+eDyu5Qff+97qp9ayiJVYggRBL9t8Tp7cdf/9Dyx7cvvXEhbdIIbLIUKkKxFSKH4cFwjx5BNPHBoekVjzAcggpH1SiFWfCcsORCD2YCZi3bjkzuVTpncIe3MtQ4V3SBaHomBCDrYypNZrDaIWzVYxYZWD4WiRg/yA1Nq1g49fn9mzoYu17Xu9QEtcqCEqsIdBIWSLUJ1zrKkBqfkeYpZc6+essIWj9JtZndBaFhcZqUmcb9Nlbo693gkOYu9RehEhNo5YdIPcs9Ypqz0InxW732oieSaZJ8Frt0Vd13PG+CJbbZd9hxcqwMCN4ne1G2qniL1T4V6Fdt5YLzmubu5Xv/KF/v5BQtRUD2HYdIZGaidYaiqe9cNRy9cgIDrLD1lvBQZFDZtVMH6XUw8RchhhFNK4ptRc20vtAgia8zKtNoo9i6GIxI+5ZY9V/qafaxsxBhmnqG8973vvKU8sXxreTPPaQ1xSEKGp0HT/fQ+M5lC/+q8LJnW0c6jHq7lFgMKQo1y1UjnzjI+P04VMntz9T+9//+DWISvu1PePaotntVrN5QvX33jj9o9V66/lUBqMFrMJ/sa4qqiddNJbhoaHnMvFlG3UbwABziSXc/1bk2kfHQv+vLStpZhp35o9mghknWzW1a5zYJh15FNdCl4nngWfHLwZZ0RTromRaBWUEapTebQotxW5oc3ABi3F59iZFgrDY6g7uNQClkcPyQHrDFObTrZT0P4WS9hT9P6FIVYAgyngsRmmME9R3RW2sHJQKpFQQChhAk5IDUBdBFgrA/TkfdZS2EY2FaEqcVaSeQts87diLro2+y066DHXq957mLmpxt8UsZGIgYjXfnkCHp5nUT/ue5uiftU9r0Xlx4dDDzlkr2lTCsWmsDLUdWwhMEEmPHPm9AULLhnlAVFQxNeEgCG2bgTjPi7X8RwIewxJo6CEYBFffFbGZydAbQUR9HXai2EqkcrDjXEdHQlIfW5LXXjdAu5yVeB2edMb35jP5avVyrZ5QtteAEhre9uqVau3e5xzzj1/ZGQEne7l4wKqqzOYq8EAACAASURBVAwjSibZvLlz21pbx+9a/u4db986PJxzeV2kQjM6BE9N2lubf/Gr/9rucaySH2KABm1GR5Qkk/F94mfvPZNc3rlcrNzTdc76WUHIuWXLVo7jGUwU427a717ds2VIRMBpdylCnUNSq6AjSxyF2c5gEXGzNlrjGl5PtJ23xtND8DrmgyVWqFtYMbQVRWmQmluHIZpqqurhz+oazC0DHSZYx0yC/ceFVDlLiKeGwRAMEkr8TDJbF5Uw+yDoUJNmF2IInnU8U1gFEGIHoHnhFqcXAdLp9OXq5PZtXmzhQZB8qDEIG2yd8hCUetRT0hkqsbzBLiCmCTCO3RStxLcRNrk5uOX3zBPtuBOSifPUQiZgxRE6NE01u8fvBIiOOuLIDRs3kkqD6yMUbjACEFGp1Dw4PPLII4+O7pASxMuhLpOi6ybFAvUJgMgBkI9DkzAUOgGAjjzZVUIHTG0bzWFGQ203PlZgqOM20XDrKxELA09ILORlRx1VrWZWs2J3UBU0SFhamks9o5in9+v/vmCfffbRiW21VLttUdCRe/ihR0844U3jeiH7zJ49ZXK351pm3LqXUBv6KJfPDw4MjKK83JTKRIUbMGQfMaw646ziMGPGjGIhX1c6VUsH6ANazOdWrEqmfRR88OxbJrUUxGuommItnI5cDbOE64ai6mPDNkUlusjmk3MoR5faf9QKBdOrsqzBIAuCWJw/rJ9MFvkEBmAd2RJqxsIDa5EiifZDgJlj1DwK4phwYW2Oe/hm8SaNrEsjQZCAC7sX1PkVQBLGzzPbeFcAASEiLfEFq960FTbkDoMXDgAiRfT7z+je5r77fqCcOeYital3KKFLL7qFYW3VYLveNQ6lLBwdUxHWAAJbyNsP+t5bJtCrNMTk/CxJAFaYZBkSrS8Y1xN43euPX7ZsOZGzwIpYgYKEfU9WrcycMf2JZUtHdbhaE4Q2WgZFhzDYZML62oW9+i61on8LyYMA8S7f1TBbRyDoQJuun4AXQLLZr2MFA+hEWIydn5rEIgRRmz/uvOIVf5VVyhhreVWlIjjdrS2t/b1bnv8Id9x1t/e+qVAAQY1qWLOKSeDDSKVMJCed+ObxvpajX/Hy1atXOSIr9NSpmBzb62H//fb/5a9/vd3jMIe8J7KAl5gBDI1KMJ5LSj6f75zU6dlrC6tgUPTGsOEj3LRx0/idwIQxvqa9b2jkodW9pSZHEMYgmhhxaDGX2OMjMdwdMi91roz2jusmXCxmiAikIkYs4IGtcy0Eks08s81ojgukxb+ts15fkdpfQQyRcIDYICEh8k3B69imExNjTTsGJRr7dAla9CKAQmH3oB8SomtaEsemTIdxdlP8ATHGTXoIZxHGhhH2nBULNHXSNl47ZpsIHZrObSg+Aw7FcRgKEhCEQw9iLIOIkjqx6UBPjLQeEESEM3HtNPLArsdpdwgWk+21aXZW5KiPD4WpTuPLUUccUcznq5UKxg1SbFgTIcTMS3Op+fHHnxjlAePIXu38iH5LrWN/YiBHaAIMEnKQXF9Yt2tYiANDTEKjV+LCy4JjW9emLTAsIlS37bb+UxzjTrv/g8MOPbTivSlaSE3NUn+s5Fy5vJ0e7kceeXiv6XtVqlUMFQMSd4EAwtLb2/e+975nAq7lA+97/7p16yU+GrqISSiKYmlpbl69Zm1vb9/zHkajo2ReWNjfYd3Mj/FeUfL5fBZH24XOIBQgAAJCgP5RhFL2fMZ3GfzvO59obslRmJUGKnWO9UbbBjVbH29tuAtDaGdDFEavG0VCEqtFV6edURhtOhHXHvvg6GvbZxgSrUYLKCh6hkI5lmDs9a+QDVoT5Bi50Zy4jnAUDcFSkJ2zRUnYHJ2gfVdrybN2WkZg1ulSVgVmgwVjdbTEOQbCUhOgt6CFtQ2gMOttEETaOlLtmj75mbe+skqwaBlpZktmYPiZS4yvRj362kSasBWx1AQGiV8RRtDOeiQizOdg4OZxfX7+D+pTl+ru2RcQgBkmwCE77rjX9G8dFK2xFIl5JLbEEeULhXtHVyGlvYtSa2LXhgy0WBPFH9v4w4iIjlwo4oxKT7oL3lUQSW9QaNhiE0q110dqE5HGAivHwegShi7m6CaOPy0tLd4zhTwa1Ep+RQDyLlfJthOouPnmW1uaSuZK1CpFbXvgcq5crnz09NMn4FomdXXuPWt6tVzVSlYM/acg1mPjORPP9z/w4PMfp1YFG4rsua6wanyLYAH0h5JVPZlMrxBGr0/zwjQ03AhDYsbXtD+4bMuc2ZMyBmQ23zvKmEZJWJF4b9EiTlIn6mLBO42tc5jAWCsj14xdyAWGIoy62ngdt1J7lYUl+vEhH28TV8Emr1lkIOz3zadiit8qyFomZ0F/FgvX1woFbfaEXZzE9nIKlfOWNwhpcNtWsNruuhnq9WuQhB+YbpWQQGRr/+AbXnrQM289bxQq2mvkvH6/xUu8XhDbTjnmzqJiTU30B+tqC+OgDf2pMTLR0AMT6FSCtq9gyIxhrOiPxUlgI+jHm3e87a3Dg4Mhjk6IFuBFE8jORHj58lEF5DV8hCaeCLEXImgljnUK+nnOhH38MdtXILSpcZhbsyvH19SFPtoWpAv2XExFcpcvogZGC17LDzPaaMCJuqWxUCLcPKz7rRBs12t/7PGllk1gAKK6kYyAAM65tta2YqEwrlcROenNJ20dGgwt+mHsDqIAEJHPfEtLy/Lly57nCLVlDSBUsGnK3ZKfDMA8vsbdkba3oP5S13NgYeQd6VzdcxlH0y4Cj27culcxh6QzUSSYM1vFAAmCo2tmnogRfNgPhkmsGvJWSWaNRaPVpdcbFgmzTCyxLmFYug6hoShVBxpB5/CNQWiLoolHJMQw69WS5aH6j4nN29YvsPcigOgAXaxYt+bTELYSQG29Z6nlHRDFoZYLIwoQkMbGMUS8tCkIrc0E4xHFQ9AhZRCoDg6fdtIrnnHzuTJIklN9DkAd8BBWNW3A19kYJupGGD/MWQxFKHoZbJ4CsSABEgIiZEB58ZlsvX38HqHnAjW5I4Js6kWxIRBtWzT+6/YxxxyTeSa9OUGUQE9HEInyItzXPzAa3xARCGmb7rK4bbE0yAR57UyMgDpgVT+cTNKNtXRyVz8Aw/BdYSQUE9i1OQmA4HJjeaWWwSNCTQ5THAcN29iX8YScQ631CU1doTGdEEU80POexx0L72HPzEwURIRQgAQRySEiFkvFAw88YMLm/r7lLSdUKmW2sLnEoGv4P2wqFhctvvd5jmArKoqGYHUoEAAAoUNAIkLMjXNboohkGZA6kjavBhAJCQGIAIvFpvE9gwlhHE37SDVbsWGgr1yphZC0Og7jjNTQbS3mxgpnKBLL51hrk0I+HtCmnejfE0AfuyUkhLmkNg09ZPV1vx6mv6uUDQpSFFUN3rEAOQg9YjqLSl13Cf1fiEg2Ph1Ek8+aDRDxNuWpFt3ROhMMzhhou50V6YZcPJNtXFiNL6KQYEwSmDcfJfGixgd7i236tpbS7L266u888yDyEKCTUB8YMsHhclF1fbS5DkL1lmmB1tW/hhKI2I0vjNprgA6kgrlm2LD9wpmxRZsoAZlCl0XouGCdWjEBOEfNzU2oU/UEUdsaMej1CSNQsVC67bbbtnsovetR5igW7Fo5JU6YGQKHTqNi9v8Yts8ENamwXQODv6ndpzVnaRz2L5axYw+aSAoiULVs2fiD2opilbOCQX9aUzfo4Pn3ob+77Lctbc3oiOvXAM3heAGA/v6BOfvMnogrAQCA6dNngFBeO/VDsYuDmriby9F92wvI17Q5hNXXQasKtmzkeL/BjpyFaHXKBocWKpWQBvBjL7CwGxhH0/50b9mL997miauzHvTObLybBcbZfp6k32LNXdHblVAoH02kdX6QAANStP1sA15jVXus/zGLZvUssW7PHPLQKyosrNXWYbsQRsxB2KgGmRy0Ws9IXaQvZK5DJRqEILJYb1tovTePU/O1WkUVhKFj/VoYeaN3CkVL3NEJATBnnt/zuiOfceelvBy1DJVDTS7F4rgQiEDBGJ8086JnElrrOcjiAgD40KlvWQERAvbg2mXTDg462zU0K62CxeFsNMEQyhcmyoXp6u7C4EiJCArHshwdC1T4/+y9d5xdV3Uvvtba5947TaPRqMuWVYyNi+SCMQab9sCmGDBg0zsGE0KA0Evov9CT0EJ5YGrgFyAPMCSPB+EXWighGAPGNu5Fbmqj0fS55ey13h9rrX3uyNJo5LnnGvPT+iTGGo/OPefcc/Ze5VtqlV9fenAlURFQ3DYXz06SyrKGTcmXkk4FbHIKbjgukmScFt+Q909oX91Tf00ziY7O2n3CbvhE+6kDsbuyeou2B83FLwgWL2Giwc0TP/rJj4cHl6KyV81Jo4AMEdH27XeuXr2qG1cCAAAD/f213lolqygSl1F3YpPHJEBC2r1rPni56ZAZyyW1Jw2bJ74UlRvkytRgXtjWJmODJmO3RKJKjRK39u/9YVstaHfddWjEvFIcFZlMzU1/RFDNB8z5Q22TyHnwKBAAyZXR1PmV9H+B3TKLU9lDENLwuACvJCEYy+KNrK0PmjC6qwTqbF9ABAmSmJ2YJg479snfNGRH/4MLvBkuDcU74OBwfTawPEdkUM6PAPhzxmrgnV5iSZ8EAhEFlBIg1VAZ3TN5xpbN+9x5rF8tWU2ZPxZxDlBPLVac3afG87rwcpFHEBnAHsRH/JhIDBIZRTDUGOvM9fKeon2CDFut5kHgggNp15C7GNeXEoi4fHg4IAGoIrWrpGKROfX19d14/a0LOJhqD3mShQjJnKcoNrsRxvpEhQ+kro130jvxAYbNxMKFQV9YVZicvzt9qIFEwE6FsfTaCKtJKqPsIEJJLQlDt7vGpeUb853G+NhkT1+vdSFtCXTjSJBAtHv3niOOOKILF6KRZdlA3wAGwyaioZ7aoO0IiHLlVfM5Q0Zr0oi3uNxZ1cCGnekPzROm2pGy6IRwSYTg7vmhlhglXsT/+cPNlUrGLGSNPdEvFHQ1cz82sI3Z8HVW57r8ujZtTJmGvboX07dxNXVAQGZX/kiAciO+g/3DvWjSIuU5gLgjAbvgqyLl2Md0yYfVnjw23UpskwdFh9w5tst7jYmsqQT+mPCt+ogRp/9u0mpszx1r0qO4eGfao+m9IwFMz9ZXDfY9/qx9haMl34k0AMKqeZLWUTtOu+FN0rNNxENXt3WE4xzUke70wILIgAE4EOc88fuusdtZ3AnYai+fuwBgtCWiO3X7iuXDecwBCosOYEQ2iX8A6emp3rJtQQrhVGgN6yMlblCA2B1YIICpAxCbw2GBd2H9YyfYYv7uaU+5MDo2gWbsKDg6FQ1tRNrUssNiJS89xCYRRuh2Jq0Ix/lSpu133pnHVpaFYkaviaPBzAQBJicnN2/usG3dPIGIS5cuEeaoDiuF4aIiGQSBsmrtqgNv7QY39SySvW3jF+cPRKmh37uXjKhnwekRKcnKoNtR4tb+hxv2ZFkGASKSblusekquIONALbBJMIuKcgOwWHOuUKLRxqXTz3VYH30UDSyFm7nRLXXI5bs3JiV4lYOFhLJPiZqDxtpet4R3x6K3oNN3tYi30hwYGFX00ZYUUnkMK8nYJ9eMQFT4x6rRHaZ8Rwt/tEUvJQTCRCqk52J6TJITyJ2373znRY/fz5c6ew1gL2Buupo+RUBR6Zz0pftoFxPCzz8SjQ+vxC5fHBm4MKgXYkGmShWbt3aT3Y4gBITodpkKUleekzZhu7IXLh0cbLZaCoAESOuuebsShmq1NjE5efDLQWSOBeDTW9bW1kLAu7oDlBQSJaV3Rb9LuRXcgYQJSftamjgTBPRdFgFZ5Rw7F5KMFr1nN8dJIZlKlhyOMyoYPIKoUzUzaT5AbN+5q5Jl+lgXx2IQazpIFGk2840bNnbhKlIsGRhoNvNABORY/QQRFBSAvr6eeXxiigkJAKPL7hiOQFyms+RwgW3HVJOyFdr8e/4cosStfffodK0SAhuEzVM1FBLfx8Xn15hSbAEhTvRPdSAl3xpFig5hmzJNCvcv94fHfopusK1qCcXAH/zvEzCimN7JPvWJINsDJykDV7kGAvBGO/kIGB0uaJ5Girq0ViSq13E6V3FJWjsRM233H6HbwrAQc6LNBEECqTdbzzz79PMffOI+t10EeOrnAFUUQk2VJCmr23nZ70nbP6096JIY6i7q1Q1A8e0V2ZCKd4ZlwKPSHfSaNuTdxNW92dFbIOr51qVarFar5nkOTipU8VCA1AySSlaZmJxfvgPsjmOwDEsKyQFFQouORLoSQiRRzRWKElrlGwkpdmIAqa7p3nmJbNt8G3qwo+EME1LgvzFxzEWqG0+sviSFp5T91LwiCDEceGvfOzZWrdWS/pX1Fr1QAUDm2Nvf12Hh/YNFT2/vbGOmyEHRtALYl5KBvv5ttxxwDuWJHbiPp5KgXARHgUVU7hWJqX17D4XAdVITf7bUz+9SlHUTZ5s5SAxo25T1Xny+rrhyFOHUbfQNL/muG1McuWgLu26Xb75ms2bsbSyUNkzxSomSrgCHlleaKhWLcrvFeHUspPIxbv6WvmPR7FIE2JQVTchWCm371FEVQwB4n5sTIA/FfK+sr28yMKYWb3BB1IJ0jlIzFOgqFBRklByr9b0zb33hftymeeYPlI8B6Y2OvhOz4RaQUDsGKD4BYS/QlPOuQxBUYJ0Im9qb69cVWRMzQEukB2SyazU755HA8AZitME5RAiQLr2a1VpP3spTpZ5ka9JNQtSC4KAhjjYuaNiG6fQuUneCHNjmKEsj8+kLSYs/D0kgUTQ4qBfQCq3p9GZrls7Agqz7hdEUu5Us2etvTyc6VEVPLu3RB4ix8bHe3n6znCAwiVwwJh8QxDz29ta6dCUeg4NL6/WmZrSGKqa2PjZCloWxsQOquQkzmOkypmpBXONDkgtYqaFzPEjC57pOs1fs5YvmdCXK2tp/cd3tQDW3dDPKR3qubWJaCLcZq9yVGEB9oMAzXOvfSMEd0ZeUwKthM/FG8ysVmStHIOYn4/+HVio4N02x5MCC7mNZcDeLChdREMl+WXzO76LOktBBVrz5IEmip976e+hQmvSbnkeQTsMlCb66rDKbrJxIBCYMt1x17Rfe9qyjVi/bzze67SUQBhHylFm37TkxafcXK4wp3YtbNWDyi/PqvK2n6RAeEQaOEoVDH7T2dMdCEAAg6FBMBIASYhKxqDLxYLDjDkWlUqk3GgkQhpLARKwdbCKcbRxc1kqfm8Jar03VFbWi6dberl33BK4wDQoRBGTsEIJBkAQpDcfseWMUdoRBxwKLZMvQs8ntgahLCRMSJqFpTZf0ox1qy/N0f/NW3jfQGxWta74JUIhrgnDkocGhblxGW/T09HCeg/OL3QaAHLwPtZ7azMzsgf46EiVOLcyp/BPns/SdldARyoZhEkoFu53ln8PeXtaKvH1kNtQyW7bIRFOSvzpRmnV4fR0ZSJz4CYjsCuFoTjDqUJbSXq+stTaVYlMVXVpTrx5ByPVYsN11yi0b9GskdG9sTNMxs0duO5OUUjCZ2nyalKOS2h3xog0/Rby4II9q76Cw6UtBsEvxk00eCYVolgAwoSb8jIIVoIldI5948/Mecdp973rb4/iPoHG1hEExUJZjggFARawV7d82ftTsSIxm6rmEmJuyYsChDfCgbDqzDSEGqUjzzpKeogOEbjfedmibZ/hK2Y08I4SMmcn6UeI3FcGUdIAAW3nr4FmG6/6JA0oxmWFrFtitElOV1W3KZLgtKRSgOxRsEi7uoWAwawKBxTvQzIlinGTvv0F5JWmdduPOuheUI1SKAgcNpHuAyPO8FgIa05d8muAi/IKtGLumQ5cCA0ZXLWR1nxe1vzCYSwiVZms+ygwCtKeJtg0EQHW4wNK/FkfRYbHa2gtnL3H3ujplRlmL4M0jE70DFSttbccko8am/SNVCAJCImy8JVf3ctSbKrY6hhtTDm61u1EiJfmhQeptclECmepkagqIG6UAipgbUdsZGSsvkWAl8SMQJKYhtXOarWtZkOq9D+fpKIozzMAZgKKmV8nQXW9cMTKwdCF1FZgBgW+94Y6XPPnBz3/cGfu97bLnn6D3mLnKOX5oy4Pa0YIOiBdub4cYBsBsYEw0xbx2HNqqEAhS/cB8d0lP0f6iwFcYSbLAvYjdru50EBJvMP0AOd1t7TVVsmwBx8G0+xAAsfb2ybE+yN1i2UrxEDrvTbyU6lA/3kYPKFC4+7SrOHR2SU1vEkJSzPUrkqKPVmK4OxSk7C+Rc7U/wgfWNGVhS/59flcM50SXP84W8oB1NCqhEnMmm+35T43hLIgoHAkPqCfn6yO6/VCq1UG0BFNwU7khyUkzqZUXjXiB8h2muhFlPRkjk41KhiwgHIGAbNcWm81Y99KU2xHVTE8S1926quQ5lUQnjXihjEZuL/ZJNP4Mg2bmxYuAbupo4NRk+gr2xhFRkRCIOq+wijAIosRIhAgkoIqb9ky7SCtwRCAAFhIEEmRFz7AAAUSf3fta5qmizmhtbqBXoHBkAI6cE5AgUkYSIwqKVCJs3zX66Xc++2kPOWW/97w+87ta/YecbSaJAqbUR2pUR9qQTN6hqH9QITVAUugtOhHFnd9chUCAVXEojYRFdTJBpIGtnSU9RXcNQkTtp6pSkQCryBCKCBARRumIuMrBAzFkZLgPNCUCV/hX0WRotuJBT0VEkAKiWGFsg24TwGHohtuNh2H9zX01UVUBKKPFIxiQkF2FTJNYdGaorvbUUfxU6gzo1yKuESNdXL4FQLz7n/wVizbTXLjvPkEYMCCjIBEk6jd74icELJVqt2fted4y/1NdipnRvjWU5F4DB8xXfLoOycXOiLfChBJNQ6Psr8YHeGneiiCCRGId0u69cSVGWTex3ox91QyEdXt0CJa33JUcLc5LZ99DwGngnsRbrmo3O9XCWsmzaxR6HqtVsBfQ4pNwH3Jbw5zbmtSonBwdfRlGLGnRmyskktXtpqSeChATjVXHcxZgwCiSJKOM2+bKdqZk13aBavANVhaJIDIKAzMRBgyEABAJsRay0ZHRgVrlK2977oH29dbsddmNT0JaTdLyJYPNn0mh70BFGxK9j21lDZsdrVHlChR9gvO5WK6GZicETAAZxOmSnqK7BouQwbyS+Am03eBOD2znORPOA4QkryHougg+amKW6gL6pYgCLi7k+jScbn83YXT6kgm2v2htZ7T4ipojoSpTODy1YDEjdppOjJbJOmYr3c82LHTZYfM+U4B3zyqtShS9e+AMIyBJjKpjrctgm9IPiMppcbeNTPKYh4pq/VNa2lIdpSgknC9FExcoQ4eMCggjEidCedlfDSZapDWRrDMr1tj986C/lVW1N5qtSpV8NxSwQkCJ1clYwCxNhTwbFUEnJxdagJKKbgcQI6EJo9r3gLr7o1jpnrpuXrP7FFsDrT/uZpLWIdMxnBqmmv23CkCJQFBvLgZWVwFkERBCZLHd21wCHXSONldQ7B+i6sgJqIOcC7NbL8PlqjS9IPVPraFkWeX20cnpW7e98UXnv/XCR89zw2nnO6hnuUjVJhhBhE37Gwis1+AsLXFtR+9nYJoI2u1hAyWma0jbqGZHgIhMIDkgi0yV9BTtJ4SFozj33tETRp70lk833sy8FTGg8xnQx0JgoETBGPNKZSFOF56+msi4q8UY87GLmpfCiAQc0V+MNMtRTYnFHh8NLQhF1ZYo3+zvaMeiIBuIIBLaGkTKpe2OX7u24CXaLXRonzFS01hv/4GSx5yYc3WRLgSuTUIBAaemu20/2mg0MyJIEmFIaKxd0fUdEHvm6yWkcacQkli25amAy1WUG4IBSAgkCqrLh89cVc2ya8aApUZZW7sIV3Xv9s3Dimx0rloSBrVpG4pt8a6paPUlMrD1BnULMhU6kGI07q1w5qRL7TCaohKHtoRd18w09PGuqriIAQgyts2lAdWNRbf7aMh49bgwFDNGQzwxmqu7+BOPidnhLu5aIzPqw2xmoEAIIQCDNOpxZu/0nnp93Zrlf3X2/V759NcuHZiv89bc9sZs6jeQqZq0+nf5EDP5gLfpN85R60iFTJrJCwOlcWS6ZZZiI6IwGaVAfai41fHn50BBROJjA0hQs1SF6fpSsimkxsxsnSj4zmvlILqOG4C0cu7t7TvoceztsJelrQ+hPX7VL+xK2L5bPBpONUc3Y17k8UVQlR4kFAM5e7EJXLO3U4GIbN5NxghHAcW3SLeqdkFAJEKJ2gdMOC0QFFW1PuBdrVar9ZmWIIGpddtlGfqHhQJx16v2Rr1RrVYEBHVIijYr0G+OBGLeGlg2cOADiPKR0SU8vVprQ0WVjWITFmAbhRaQJCfZYPc4KaVGaSgMhkogzgUAIzrYTb08rGbmCECAJGgmUAKsDogGaGMVJ3E9aygcU4vd2sSdgBEo9e2tpYyJEGWpAqe6lFGQRHIRhIBYq1AWAgGIMCMiM4YMJbKq1Amo76kwEFKufV9BFGFCYCZrtZs1pTNCWMwaFkWKrV0QmbUloAU+5DFv5HFyqjk5NVOfnOLJ6f7hoec++WHveNbDVy49+N7At745m/gy9mzC2BLIQMxlxh3edALGllGIp6jQlt04ORxsbUdTwU/ELvbEmtHhg4n07LPTroSYdGghluvsw0SL6JKpV+S81luzTikSi3ZbikFqbDWHhvfDTtw37OnQAVPhOSooBJLH7rUH9UFRpwd7MExqQRjm2YMWHm1qklq5+kGZuQReOyBE05mYu14jUNcKM0lFiEJuiYSNy0rz8rz6+/tbsRmIGCO4ZYIRbRkApVKptGbvgao9hKBvnurtsCN9FV00MzOzefPRB/rrRERACJrYBFuTCh9ulk67BO0vCk6N90FSxygJj9zro6ytPW8xAUcQ9VNho7lx0qkQSA4UTi5EgHfYEwAAIABJREFUQGnbfgFth2ZzjQN7IDzttu3ae+1KSi9KTbc8sem29wIJCbiClEepT8/mzbzFMQtZb0VWLe2pZtUYOVQylFy5MiwMwIgBLdOTHjaRPKVJWIWrI/pgM3QrwZgR1YedkMy+SXs+FLCKUKlUa9XKUG+10tfb21NdOdS3ftXQuQ86sa+2IE6LCMsdb4Lxb2L1aIjRVzAD4xtlEBI5XlRNUQeAbHPc1Fax4Yb9INH6mQQZgIHR7XXF9AjcFaeb7SvzC3ToGggSkPgoUwgSNqbsaDSalazCKeu3hVfS9KfRzFevXHnwA4lV5+Kkx9QsElGaaJdqiHYkhnXLfTomRdq8mON7o05xnf5sWi+PubMqZMJg0FeXQ00o/EKTuuRIpaj9kQzKq1AVlvkypmVDy6ZnZ8UWT3ddtqURCZACjI4fUBympKjPTldrvSBC5Glo6poJIspMo75m7ZoD/XXW6YRpcDq6Slz0WwARsrJRbAjFsIsA2bXxwLePcj++S1HW1s7MEUkg6hZsU1Av9iA1HVMTE4QZQupFogtaJD0XTGWFd7WBAUkB6bqPszbMXdfYCxH9N/tHlajexBtvuK0a8CH3O/rF55x0+nFHDPf3VSshC8n5MXV3cW6Lsq13VGDQ9vkrB44FQmMXFnk+ITeflzW3Q3UVQAsxtU/JVxNX1EmMA3eYtfl7URC6301bd8wUKUjQrF8FJWEmWPudgAzQAuxiQ942B5LEKkTf6j397k7SPbpnbxayPOagM0bNcfyjEbHRaB61/uBe2ohIQoKGhbCq1ovMbiLk9RsFU49wEotPqRaPKBdD6iELYSH4ap9NRB3+4uxB9nS26OLpMtKNuxpZSKW1WBgQ3Z/S0jWar/e7avWqmZkZSj6YCUjsC2eo0Ez9gOIwJcXe8YneWq1er9vkU6So1hggg0a9tenofb0oU+h40uZWZJR9RAZG7yeW//a6rTZbaSgJWlIkTvf+KI8WiSQKU3DRBoNdiDWoXVUzdUIc28bIWp6D+wZ4cutIL8vxkJydKoZk1+3I6wzR2oCEgQMKRJyemm1QOOM+K//h+c967GkH7Br5FRS8y7v88C7/fqCfHOjYC/y9/UWMs7z329nIhxByyFYD55BMdMA8ZBJLE6FdUcXaGyAAyEppQ0RU43td11EQYgIdiuMf7csi42Y5VFAre8QO5CoLjLaOmau5JINGdtBGF85jZGQ3+QBHTG2DhABZYX1Qb8yetHVfU767hggLROutQJp2uPwqdK8hT9qH54hE5pfUNuFd/FQ3qUp5FoptLQtIyhEdCzdrmoPIBgAgli7ZAxIp/wFBhKj4itUNC2W+RsVRR63nVos5qpuMsU8Tx52QgLJKZWRkZMWKFV24Fn1Wx8fHV6xaAXUTpUl2vwniN1ufPesBDzjQEVANOa1/X6BTxLw73ayq1KtAAEBORbpOHInsX/4sMHSlwuggAOaQHEtRkEkUBqe8N4Ov6R8pLcmpdaYNSmua+AzVIK9pYmcyxA5QsYk3Mrlsp+Q5V6rZntHp+sTM+1909pMedOyKBQyw/2Qj7v0abv9YFsegOiiSAeeOFC/8a4DazC90Q2d2Um/KAAxNCFD0JgTMq94XYHYInhNWCxF5NlASVNomVd0Iz+bafXYKl4ru9K9FZGTv6GDfgNIlFPWM5iSsfCdotmZPOXn/TMX2wHTShkSC1Ns3MZduIRl0pUUKRjunpPmJqV2/uJDifdU6ul1foTOe8EV4/yG1ohSihYpn6JbGn2L5FB9orFcspgPzTdsJcWhocKbeqFYye784cX/tjevv6b3+hhu7trU3W62Z6RlutazPp2+f4oasLSiBcMOGAzarJDmFCUhQfLH7S1JC0JQcUtCnklJhah8V7lz38iir84AZiUTA5OHCqdfOOlZHlXQJCjtPYUpzWuAbc50x5YT6QlhtI6r6klTqrL2JCCSEOtsGFN67a+yU9cM7v/7aFz/mlHvjvi4S48Tl+dg34/UPpm2vIqxDZalrr7FKJLorlP4Fw0N588IAiU5lMx9ufbIludqD18SQWOJgkDwztUsQegF0I1WJ2JUqWYPdHSpZTNg5zYVXlH0aIjK+d4yjSR+S9lp1SybSfkigytYt+/ry7e9YECx1lTakgCvrAXJHcePznYgIMxtxA9okmaHdA2ERx1eZWQNJMEHqkBuKsLPtFlUaQGuAq12TVstA3dL4Q5OJDj6PtrPx/eMgI//T7ne/8fExEEA1skJw9AMSS2ResXLFLbcc0EG14zEzM8vMeSs34VsAcMdhawlyXLv2iHmO4NMlAlT/I+BUN4g/9mW/v+bC5WREf8gt4eymQXWZUVbVTgC5uCaLW50hCrPJHCDqUDh6V8Q6czoAEUabmtv+Dcxq4p4sWVMP2IjAatiqTBGb4QtPjM9OTjX+5a3nP2Lrobsaiwg3uLUb4gy6uDwikkQARiIQFlH93CiCQJlIBiGDiEgZYkUoQwCBQNQDIO68TYIHfn5EmOvAI9KYhtnrpHG1zPwKWmMku0PWB1iBns3g2rpQ8PwKMXssElLtLzl3H5OReYKRgGP2Dbxv/XeM6qABLKD0BRJgSUwDvb86BgEgVyvoSodTUvoBbmiu3zcBsoqQd+HdnJ6ZabaaQOq2g21YC5/WISwbGl7QsRCjRDBeoSMkxDAOLNw1v3YBDAQsZC1jpXJaD7VD9xQT7h6TgIygS5t19hFCEClIC7ahOtakW5WZIDNzylrUPpISv2N+dM4zn/2M17/hzSuWL0efKySIJSMEkVWrVm7fsasrFwIAcP0NNwhIM8/BJ+zItkwQQhRpxfzkk+dLZ90S0VSwiocMncJUPvnNEUOMCXmb4FvgZp33/ihraw/B9nKtG7VTbsNc7+Xodo2JM41o41tRx1MAB2oIQMAEry9MtlwHFdjMslkrDSIU5noj37Bi6U8+95yDnq2AtGZvJdnJrT9kU1dQ/XfCoxBngCMKIAMEykxulUX3dTOh1zlCRhD9TyQYEQCRSZgBSAigIggo0bZYiAocRGBBEKwhsuY9ABEYgDJCBMgg9EA2jL0DEFcCzwJEo8yo5xK6rWlxHZgUFBVD5y13MeCK0lXc4Q5cTN9kaMkH1vb8o4HmOBpsDckWyCgCOUAAyAC72MJCCKlENlwmCYtKAztOt3QUzLe/851KlsWYIynoGRz2KwAgUTALx9znPgu7IEBxxUNNkkBQ8SYAhCR52VdjYRl4ZAjezk5WaaETGvLGJC7ws+JC+WXYgggzEYI9sOL7OpnuQZcI4QiECCiu2ksQOAFYiea/5Eeffc4b8G/AwfGi0x8SFcBkwaVLBm/uYtX+/e/9e19PL7MQkZGAfDQmAlkIM1NTD3nQgw52GHSVbUdCOAgLWCufkhcTtwhJBIaEwgBAQDoMo5svAoVWVJE1bf6yDTQSWQgQ2PaaNtlX52uJNdGkjQmre7hN35PijUsSJ+Q3gDDL6Ojkw45d/cU3PmX+84z1a2DXJym/Jos7UDBIr1AQyjBbBRm5/AgDBCXT6FwfTbK8zdnap9jYJrbNxomLJngpavahbyilAts3ZyEi12sXg7aBADC0Zm1+O0fLxOtva4Vp6mtes+lp9XLeFKgdrtVGBrK021iGKe0SSrNWo+x5qyRBZoLJ+GOlmy0sV77V0ynQXonh1IWU+6v/8s3BpUvRVIxdL1g0qxAibDSbp5xy0kIORRSMAxolqOdUu2EQumRh+REoiIggmw+b/lRnL+65uehAbw2l6Q7Yy9D55VStYuf0/TVdYegAl29hwdaMcM0Cm+8CuSLbQU5j46ajiQJzrquewYrEm3GRr776WukWKvC73/3+2nVrbEMka+rZEAwxC9nMbGPdEUce5CjEnshRUpFPtkpdYCVGYSRQIVREbz2COX8XvjX38igrPcmy0Iw5iCiPkUxwqgDJim3DXnOyD33tAAggpP13d/gCW+mwGAcbhMnEfxkkF4QozXp85AlH/fNbnl7NDqj0GaevbN30RLrpLJr9DxBCXIe0HLI+ClUkcsVBRoiIgBBtx7YBNusahfqxzG6rohPuqFBjhBwgVx9LxJb+O6GK3UeEFkAkjAgRKBdkiblwCyACsEDunHF3/bT0trDK0iTATZ+xTbfSNd6lzTAKEkA1NfFFIAKr4565uxrPGKjd1MwyLEkYNi3rI0JERKn0lvIMHTDYxSZ8RO27oHf5Sj+DP/zut0sGlvg990mFZRhIiONj4xuOOjjzDQCySlAFfyLihOsueCOQc+yOKqpaqbh0qLohWwLNnZiAalPCWjwmG2k2p6rd3Nk11Vp/LkjtTTVdjLrEkHS/SR+e2R/MZsmln+eLhz3kzGajiQDBWa2WeoMASLPVmJqaGu8Ku/222+/cvmN7pVZRBqP2YounVUuuSjjttPvNcxADXwmbUycQiqXnIo4uKfn9JbIUmuzjdF1lSf4Pfw79+NK29moty3M3TwNgYHMOVTv2At9s0FFwsCUktxdt2IubkImrqgAge+3pmHpxAF4QmW3m+czMp/763AOdWz75X3zr83Hb00Nrh9ROxbAWoAUyC4RIBBCASVNkABIIvnE6ZyedEvsrppIpxmzWHFA9qQmVWSvoZXqy9AZ3rkEAQiYQMuMELlRcMeU+yaXFBpR+39C05ApVjoJmwCZ1YSG274C5tfp9N8IJgquvu6a52DDF2Enuu8M+zyY1naSwvKSnaL9R8E+T9rrVQ17yllzlfv8HP1g6NKSYXtD7R+B5lbBIllX27Nlz4kIwdACIGFstZ2C3Z7YAIgQQMNx2262lXpF/ZkGaQEPJ2yl2RosOTTG1XeYIvZ0r8wuq353PE8AALuRM3qZCUzrt5Ecd8BSsmtG0Ra2aMKlzsBx8qrz1xBN27xmhEIRUdMs8pmyGJtDX2/ueD3ywC9fy1a99fd2R63TKrpihdgF2JNwzOnrylq1ZWJBvQtJtZ+NPFWuOlDwrcSI2uKEBWvPUOZl/FgD50rb2wWqoN1vknEcU39XEaT5RCUuYDFaVbWisd6WkA5KYc7pgFN9HfSBvEiY+6hUC4shTY/Ubv/jK/p79C7rFkS/ztqdD8xaoHomhj0AgAEAECRBBOErydkbyXoDBK2xXSU7ztv6lVcIraGa/HL00FXmNaAgB9rxUQGJqQaGVzuIvLxZblz2E7JuaipAm8jk5EdB5Ya4VJ6lqNx/N3Klidm7mspymneAmU0ZLVCVcU9FVS2NvobnAEKPIUElP0f5C77ya3qN9CaJPElm7smRi08/+82fHHntfFUtW7X8x+hppqtloNZYMDaw/cj6ocIolg4N5q6lKjMWOZ7oOICC9PT2//MV/l3pF6UNdvQNcniuVvDIPTWuhgZ67uLcwtIFTQaSzGvIAKBwF2FoOyD7TLRwSuhLidvcO+vV1EJEOurmf/chHToyN2yLELrTsyTgSDi0f/urXvl7+5cjPf/GLzZs2KA7avW2A9JSIUOT222676KIXzn8UJDLzIevF60KmxwEBRsKyPV2FWTzDEkxTS10IXen/3h9l3cU1w30zs61CGNHEiti16HTeLAj7TIlQMKrJqk2i7ZYnqzQ38PQOV3IdJUAi2b136n3PP3O/p5Q39+a3vRT3fKDSe1+kClGOmBlSEgmCNmjItkZOBtqQ1iNrQJiBjUvAF/WGOryQt2mt8DGNSHMbVZeZtrlDwRw2lHTRcgPvRTg3Ddm0AOwe2i5bqMQVJa2jm50gprc0GWTPtS6cq3SFZqWtXxZRoR/okxHtbTKb/m/vwaZrnYwiQbIRiP2cLNGjcuuxPM9/+7vLe3pr5h0miapceATcdvudT3zCExd4wCPWrGnlua34lNBqiIiCBIIDg4O/+s2lZV6TBbt7KKQbK2nM0QEBX/UiTMdnBESr8NSeiRZU8C04iJAQLUNHn++ycXO60nVNiBeHyBesdPHtef5AxMc/7tw7t99JQIRzSCoAAEABcd2aNZ/57BdLvZBrrrtxfHyi1coTAxbbzFmZZbbRPOH447eeuOVgRxL12rJBI/qqikDinZXSEfJq/2ftf7J+rHUs8c9lcy9ra1811Dc707TZMBo/GpJtqVHWRGwa5o1mQAQSVd0kA8CjmB8cSNq5rGI1J0hWAJ1MTud9jZkXPur++7/U254GU1dTZS1grp0Es20ln/+RT02tZhG0KlW3ZCuiBVhEfCJJiTNhtS0KkIg14a3dbtu/N9AL+hZZomD/MX2CdiZ028aIiMho+kmYbI0hdYGR2hhfxtfUC2FFMSAk5ykbcqFvke0NbtAvxBGPAgAY5/yOWtsjAAZEBMyRG5CtK+kp2n8gEhLbhYi70dvjRBgOIve7uPj5z345OTndqjfRkjZtb2jyzwCCwtOzs296/WsXeMCjjjoKMQCzPc4Ge7DOYOQ4PDR05VV/LO+KirCWE7fhO4ph1OITpiwErJABMgubIgdOEIVQ6ch1aCBHwgBqRxL85TP5ty7Zw2C6kdjGOLU3UChl1fPG+9/77r2joyKc2xJpwzgdlHHkzZs2fv/fv19q4X7x5z7f29vDMQIKqr8LG+aZESjQ+MT4K17xsoUcikgCKo5NvJdiaYvBYzvrJXDXMNFKYiwwc4Zb0nFet6SdS42ybuL6Ff3SimabxtYUFmYvIm28Qe5LLYIMIuIkK5AYxVlZbrbnwxHdArV6RTbNVGAY3b3n/337s+96Mq3mdr7pcdAaDZWaGF69EMp21RYHXtsrA5C2NInGSEqzbt+sC9W3BBC05jcDJgctM1EtOgzit6VQ++JkqZrmc16WI4AIsUJvKPULbM7BCBFYdbZsaqR9/nYebxsUSpdV292LTElPXgFq3hhGARBye1qdUipUgoFzYAQJEVuQLSnpKbprMAtzTGZC4H52aVYbpVyFlze85S3Dy4cFUYjB50xuYiBIIY/yyIc/9JCOecS6ta28BUgOpFBfBBGIiFTpySYmJn7/+8tLuyYLkxMxLyVsG31jR25qCBm7DDRoKet2jEEAQJrN+uI/JYWQTZOERXVqrCJkEIkI3Vi+mX3hUB3iBFUUAcG4YLmApzz1KdPTU2TFkSv8Kw0WIc/jyMjID3/045Ku4vIrr/rf//Zv/X39gGRWFOYgRWAkXuzv63/QGQ9cyNHYeu+mrYfGhDJ3zHZluJICCQFYSEja1I0Ln8zS2wbdibK29jOPPVIa9ShoSwKb6oWaFIMq0mk4+aFwQLCWtWI1BAydbj8i/y1CIFLZSInCeT0/Z+vGs05cv5+L3P0x5L1YGRIqOMKok3Fwbp0TxgrFy4Lv42set8kliQLdFR6XXBtSvxrA0nMvL72k94pdCicqn38XEGHPhfyP5Dy3tN62jz6DTQtU9w/a8Ho6NW/jwnmaASiUZrvJegfJDVbS3KG4GMX+kR2ETHKE4hTi4CKelEMLcpiATcWSUj74sgkCpWX9n774s8hcq1bRhi+phaJPAwaksb1jj3/cASGc+437n37/6ZlZFka/uzptAUESzPN8eNmyX1/6m3KuqS0QKCCZmDb4NIfF5GQWe1f7+npis6UwGzUPVFUCn0PB9HQnLUrnwAPstXXDRoCu7OyAwRAzidXuKwJ6DbOgu3reEx4/OTWdhaA1gNULVjAICy8bXvaqV7+mpKt45zvfdfxxx5vFQLHMWZUSMFxz7bVPf+oFPT21hRwtDVatVGJXJvGVt2w+SPs0VNF0Cjh2mD8IdnQwdA9FWYtgIKRKJcZoTffUOtZXOc0zVP0RXOc8EWBQk0Fttjv8xI3c0Tv6zCwRGCALNDo9c+HjTr/rmfDIF2nya0D9oO7i1mVXuWxxHjRZX1AcyQaiCjLirHXrglPyg3N7FOPOprVCEkjE3FXFXc9taRFH0ahBgj9PRVc+dRAS2EcK3Q0Fvqk4iuHlogj7xo4A0XHsjAYTKVIY7xaAQARkxe7Z33WQASaUU0EyFEQCTsMUtbxgQYLWhFRWd2dy6ReYZiCIZpLmpSCKAJZkCrlndPSSS/5109GbDTUC+6Rfoi7FrZg/4n88/JCO/NxnPWt6elo9vkxT3UsXBmGG/t6eL3zpK3tGR8u4rhRsln4AmOS8JQExFg9fX7/+qJi3MInUePWnQOmAODk51Zkr0SDjlunsTF9zU5GQRQMHFhjWaANAJBFk5cwkkZaFOgTc/7T7nXzS1j179qBDSBEY3UAYEWshG1656vVveFPHr+ALX/ry6OjeSpax28wXptkiQjg1M71p44YXvuD5CzkaEbmtl41kvU8FLlxaupC8Zs6+o4iYXYLa8KkVRLdUosqMEqcaa1YMtlrKY3DMCBQsLmvwap9YiiG0K1EavM6BXab/rGVrejHTSJoEVlTlESfPUZMVAZm9Eu94O9Q2QGx5GWq17RwcWcpC237Y5s7R9nuFzblNz/arFoEgwOzu7GJYDd/n/SZAAX9LfCe/Rdb8d7iBvtIoqNuxCBelx5z2BxeXxo7IEiefiqQN26RDUnMURRIMV2eu1uUGgxpIQhYLAiAxqOgvQ147qktFECQwvLP8ddYn4PAzDEi1Wk8Zn/xXL38VIMS85cQ0cOscB1ES/fG6ay+68EWV7NCUoM4684EhVLKQsVMlDJXnCykBLh0cvOCpTy/julIEpKgdczMBFH/SO3P8TRs3RI7iDoP2fhMgABGFEG644YbOfJIGJ0sY8GLR8zAGKnuga5F0JDCic4F88QNmWfC9/dhHPrx9ZCRysoJ1N1LthQqsWbHil//93z//5S87ePZ/vPqP//jxTy4fXs6qM+RVGdrUSGrV2tT45Ec+9PcLPCAzW8WO6OOsggonQsZ5Kje0Z4xpAykcxoyo+OegRlfiNZx8zOpmK+ZG+o7oCpOGKhGrWR0pFwGsMeMUHBuFs8uCiLB4Cxw8EWeJBLxnfPbEDetrlTmNFETgPRfDwCaACmQBAiAGE7nzN8N6W+qT6EWxHpgc+QdW5hcgcmGjwRk2DZ0LAqmWcztbBeNJTNW6GAjdehhpYlxA4osKGz0ZEUG29oFKfGAyrjdiYWowACvJx/UX0EG5IoLqH1o07MV9j0AEXcJBTwOThrwIqsG2a6naKBhYoIlcqwydUd5TtG+gT0AsBMkdagGBsK+35+KLP/eu97x3fKJzOh4Cb3jT39y87ZYlgwO297lWpiS5YeZGo7H+iCNf+IKDCxvve02IJxx/3zyPhMbNKsSXQUhQCPuX9Ani29/x/3Tsotriyqv++K73vHfZ8uUUCJLwkns0ibgow+ICEYeXrchb0ZssiEjKnmKBUKneevutjWazM5ekUmcuVm06Gfo6oGDouKzt/kP1i5iTVKItG75/HcI9zbLsXW/5m927dwMAqwB20VkmIIgcV65Y+Zcve+WvL72sIyf/hyuveMGLX7px0wYrTLSEEvWlIBHJAt2+7bbHPeHxmzdtWuAxETCK5+boHAFDGAtK5PLn3IKBIBZjdickeSZ9eNZ+sHjqGce2mnkADgxkJqA+SE+4J5Mt9xuswuxpmK3AMUjSpka5ZWecAQgSIYXxXePPfPTJdz0HnP4pUA9KjsatN0w7mj6rl85FCZ8Acv4fk7JjsfWKNS4t1UhTbDeeLlCXXoG7PEORymhOQGk6j4Xjyz7EHFtlMYE8kh0hFBo1LimjOQMn/V1LN9DGBHqdOShyXi/EYQwGzrZtW+z0zP6LxZr7vpUBIgTI61Ab6HKSi4jAJKl3I04H0CIwZEdt3PCzn/38vAue+vkvfbkjn/j+v//Qpb/57fojj2D2claYU0sDAVCqtdrOXbtf/7pX3b2PeMxjH335FVeGkOnS5l0pFa0BlW9avXLVj3760+ddeFFHLkpDRN76tne+6CUv/eUvfzU8vIwjF4MlF1xE7+os/uMe/vCHzszOxKgNz2R3YmKsq1asfN/7O6a+wmLSDEkwHNte1QWoxXQkCtodprmdWLni2J6FxgUXnL9586a9e8eJQmTxzN/uIiFmRJs2bXzla1572aJBl1deedWrX/26NatXou3qvsqICEBkRoSxifFlK1a88XWvXvhhOWle+hJm43sUEGIkQAilN1RU4Tw5bCVp1H2buffqKPEmnn6f1S3hQGKFrRBaEW4Ze9oqFTAqhdeJsCG8iwl8+wtq7F/d8RhYUJifePq+bhxx90eBBKHptDawzamYGIN7qNkPXI7eG9WSUFlJyh5doDCtFpocmNuKmx44Id2RAk4N8ILF1h1/tlmH2S6a4Nu4jn8KRJsJc3r6rw0D0z9GAEBmryituYHsijQiOtQg/SIKBAGn5n6bgzsW0i/iztcOpy/KhTgjyx9b3iO0/3DgAGORnfnqw8CMIENLh1avWP6Bv/vI8y686Jqrr73bH8XMr3vj33ztn7+2fPmw8h/1CbYUn5KCEu4dG9u8adMjHn5oU/YUTz7vCcPLlo2Nj1FAEedasggy2xAEW3m+bu3qW7bdct4FT1k8HW7brbd99GOfvO/xJ/7oJz/duGF9f1+vD4B8O0yPLs6Byy8mzn/yefV6PVBwOIg9SqomsW7dup/+50+bHSrcC8l2Kpq/iauasopSI7J4y9fTd0/n0XCSh3A0BPji5z4zMrK70WggAbNrcNvrAIAQAq1dveqZz3neNy/5zt3Oxr717W8/7ZnP6R9YUskqunp4DaJriwTEQCHP+Tvf/Poh8SLnkMZtMOvgA69DmMuVo5NoUl2mZe/sj2Rk1r3xYplR4tZ+xHBfRlTFCou4jAsXumdpywHdgWySTmbGjUnq1FA3Bh4B55jb28kAeZ6vXrtsn08XiWHHh5CWG4JNFTIMc5VQStaR94FPksDxE8OEsysg9G1EcLDfEXL1nIJCZ2OH4iERoDbjStWPdm0eAB+fo3hHgr0kj5Bk0k171JJ/BBZOZ6spi+P1bZ8u8GV2DtCOg7FljorsOSHq2h7vVLAVYjiq8RUhNvGIsnC5B4rC6ndum8Ppw/o1Mkc+6YTjRkZ2v+jJZqi0AAAgAElEQVQvX/rMZz//G9+45FA/6JvfuOSJ5z/195dffsyxm90mgIwXUGSAAML12dnZRv2zn/7kYq7re/92ydjYBFEGoM+6QaDJuROEkse4cvmKPPKLXvKSCy966R+uuPJQP6XZbH764s8/81nPee4LXvDd7353y9at69atabUiFk9H4VptmIbO7YEnHHd8tdZbrfWIAUiAiuOLMFdrPa953Rs782EBE9gLHWcSRSEic8kfpYWP+bwXYlu8kwwRDrV5QERfuPgze8f2UpYRakVt+hd6OQExEJ543LEf+8ePP+NZz730N4dGrLjqyque+oxnffRjnzjuvsdUq1UkSoKWqpgNIsLcbDYv++1vP/wPf3eoegeJ4JKgHL4CqmkIYCqjSovCYMxKGfIvBxEIBAtK8705Stza+6rZ5uElGaHhOc2XAdp634lN4fsKOi9EPQR0m1TvU/N65zZRO0v2YuRNR67Y59Pz8f8UagpUbNxtcFxfv6x/y+LjaH3XpTis79DJ9NRI8P7wiQPVTAA5geQTnt+329RzVMKfK79al9zYrqlAJ8N0CCXKORbZhQq5syvDEaYOeapRMCquWhilcJPARKd3rIFRmwDBu5NJr8dhq4nFYHmGImDILikGwYg9J5T3CO0nxH3qoOAPgJEw9PYbwhsAIsdarbZu9dp6o/G2t73ttNPP/PjHPzkyMjJ/XTg7O/tfv/rVOY8+981vf2tPrTq4ZKAVpbCoMk1yMQNfkRDC7tG9//S5i/v7+xdzZStWrHjZX77k1ttuI6KkauItCeNX6EpaC9mGozbu2rXriedfcOZDH/Gd7/zb3rHxVqu138paRJrN5q5du//397//tGc85z7HHP/piy/Oo6xbtW7J4BIUdDcBSiRrNHqxmhBi4QOy6BgeXvagB54+OjpqBSCjcNTHXd+Jvr6+3/z2sgtf/NLF1+6sIqaOh5G2dNb2wvL3dtNsU6qb58cuBIRz1acWGqeddupb3vD63/7+9yzO4sH01el+RSi4cuXKmdnZpz79OS++6KUjo6MxzlcKi8jY2Ngb3vSmJz/1adxqrVy5EolMWlv1OTyxZxSBcNsdd1x95eWnnLT1bt2Utl54uidtKnBlj9vZ3KtdTzwAIPmuJITdaeiUHmWZuuqju/WooR9cs7O3Rswowogkont1qhjFxRZNoT/pCwsisvgIWZlW9q/mE4XaS+GY5yet37dqh9lfS3UNQu49W7Iy2drS2m5HSWwYY0onm4IEWdfdlGzKXSwPxQASHb+ftnVsVzOxnZKtAYEmX+N+q3YC5tfY1gMFS5QLiH5xUmkcoAACYiUYtmFzBDGK81DTubkqLVn1i8lt3Nv7zpZ1fzkfToK47Y1Y6xsiDj64vOdn/4GF3xsmRQRTW7EvUZuHhBRJCWlCgCedfHIzz//Xty75+je+2dfbs3LViqVLl65etWbVylXVSpidnZ2YmNi5a/f2nTt27NglwksHh0456eQYWS2+2/MhEVY1IkEQwj9cefWH/+59GzdsWPzFPf85z77pppu/+3++v/7Idf4cgWlsaN7CICiBKG81q5XK6fc7rd5sfPhj//ihj32sWqkNDC5ZNjjY09sTiBCplef1emPv2N6pyalms0kIA0sGHnjmGSAYmWOMiIJkDzbqZVmDNy1vhdV4p0wzXv3Xr3zEIx991IYNlYpN8dWh0GQVANcfccStt9/2mMef99CHPvhlL/mLVatW3r0PQgYWYWFdVcjzBxDkQ66W726oMD4m/rphd/SJYlOkO+Q493Hnfmnp0je/5e0rV6ygAMJC5BZO+qoSCsdaNTvjAafdsf3OJ51/wdDg0JHrjzzxhBOOPebotWvXLl06ODUxdfv27ddfd/2NN99y/Q03TE5M1iqVk7ZuFWGRiO5c7RZtQIAsPDkxOT45/eUvfr5a3b9Jx/xBhDHGoghy9RLnrwoBciyXe4bCoa0NiywOSnYyVne8g0qOErd2ADhmw/LP/fTa+25cxixChAyIINE1XmyTleTkJ+z+brq1YFTdWVSrOE0OQCBCEqkkJI75qUevTR+q6ULIt6GsRah788VBa9gGizRVdfYOUVK8Z13PfDieqnVIELwEJmtzlbVzShR0ckNm298Nmc+WDDhDXuYspql0Mpk8dPF2SR0kllQ2utCuO7cndrsgM2tlb9J4UrThAdhgjZDwBuD1jSTifbokRxXmwk7JwgxgFoa7PmhXWoGLCNrX6AIrSfGXACIkSRBBgmbOhDC8YjgA9dR6QWT7nTtvvOHm8YmJRrPV21Mb6OtfsnSwWq2tW7tmtl43Jph+6YRi8pOCAhAIIkeRWla78aYb/u6D7zv3sY/p1NW96+1vBYIf/vAna1atjIacsAyLtDvPLIiqvh6Fs6wyPDxcCSGrVgJRvVkfn5jQXlTIqFLJBvr7+np7ms1WjEwoMSrBQYhQNzlyI1+ngbsQMfvXbxJBnVnvlg8Pf+UrX7zwRX+xedOGVp7rBZHLNOhOuHRwsFap/uQnv/jsxZ8/7r7HP+pR5zzkrAf29/c389a2m7ddcMGTF/JBGAznrzoQDt5JhOauBFpmiDgnJ9c3jAKlrP1Q4yEPPusfP/qhxz7uCaeedmp/T48vksk+VsEGEvPY29u3pL+/Wusd2zv+la/+886dO/MmM8RatTfLaGjZ0vVHHLF0cKC3t8p5rmtne8cDADJEFglZGJ+armS1S3/5vUXcEMqjwaAJUARJdJJvepdIodnoGEti/6eARJWMUNiRywwQAFnHNoFkYWIDf+JR7tZ+4cO3/vVH/gOOGjZsHCAzBNRtxZYsTMuH+JjUikk1FRJbZOybFwBQyW2rMkVYZKi3EEKyRLB5m1APwGySqoYCMYeeASQhHd+8JXGOEvQ0vZMBJKpejANbbeKPOKeFoy8ECbchzrTT1DbRb+vMFaN0E7Shtj27HUOvcyKvngEVSTb3bAW8v+m6GGyI/8IUV7sY0sa201NIBnHgnoeaxvjftVurrIA+iHu4sqXruk0iyAUfdU4gAAvLzOxsT6Va6+3L8xYLExIIBwQgDIAgMlOfQRQKuGRwyZLBJYTEpuMj9caMsFAgb0EjAosb6/gPWAgbM/Ubb7zlg+/728c+5tGdvcJ3vuUta1ev/uxnv7hu3ZoQAmBQpIjxtHUg4qQA/VMUjo2G970ACVhEJDaaMT38RGSTZ06W6WqqROOTE/V6fcmS/kq1h5R+p50ySzBROmq6s/XEE1/8ohf8w0c/uvX4E1npVIiKRElekfVmfcWKZStXPGh2duYH//7v3/7Ov0aOA/39iHzuuY/t7T24dIENGoRVHlWxLGhsWmSOXTB/i5G1G1FUDWQkFkAA5sXc1VNPOfnO2255zeve8NOf/mzTxg0YyNI+60eyamIRQg6Q12cRYMORGzZu2AgCLKyVsnBk5tmZurY2JAEufOVDJAFstOp3brv9uc962itf8fLF3BBV/Q2kYo4AAHoe3koE7LQo4V2jlTcrlDGzdS2dHaSrbECqNzopeHxPRbk0g4Ge6jEbV0xONhMjDPUNs44YmQaKA+xsck1SwLwLHVZJY2/7HlBQ1FQDqtk+xhIicRypaeh7dZP07c+9/JKUS3Butx7Wld+1UHLwuPvEFDQ1h9l71eOzeW9lu5+3pCzCOnRClpcgEiRlM3D0krBL1uAc53ZL+TF1zVOjXZxFgJiggIDAiLpqeoWfDNhJ2jbHAjBgmvME5lWK9rYlSQJMyCdsQFhNyx/e/QxX1L9VoHC4tERJGCBvxgefccbYxMT1115fzSqYRKshjTuFEEy0QIBFYp5zHsE05pR0bCRJTebQ7ysCMudZFuozjT17Rv/w2//u+L6ud/mlF130mU99/Jrrrp2cmskyEk85gV2xxzJjsm/FuvcOGYtOKfI2E+gVs/0LCbBItVprtlqXXnpZs9H44Q++12q1CBEhFGgCb07R/jKpxcRfXPTiT3zoQ5f97vKe3iogMgswmcmwA7E558ixVutZOjS0eu2KdevWDA8vD7ooLyBCloGakDCbG6rx+UBAYpQFHmcx0cpzRe0lG1ZfNIQEiSgubjBARB/50N9/4H3vuex3v2/FWMkyIPeWREJAQjJzM3W2kBhjzGMr59jKc81vEFEBUQhIDprVKQaDhCzbuXPnddde97WvfOHVr/rrsGh3voDBvEOMT6v7gmksI0HZ30vealUqQT8LQKVOHNWnfvHz4hLuLVE6I/nivzpnamKKdGLtOvIq5QDC7KZkbIKuDIYNZ+e+mwqrwtvJ/VF8fyUAIEGUOV+GiEicwqR4rHZz6naiuZnuerocQlSBVd31gBNMywDymHA3emKJ4wmuJ8veTkQBjD4AVrylAYRUQBpdd0nLB4kM5CYnae9PaCjnrDnT3uH7On1XGVzROYV+hLSlAEbqVXVmTH06TQS4Db1YgBpdH9+EaIV4LrJX6bgiDEjN3a2hcxCzxUuLH2LoNJENUCeuqB0Mx9toNY4+7rgf/8cPXv6Kl7HI9h07pmamkQBCsB6NwjpRgJGZwacxiiNzmL074QABK9lfiJCIpian77hz++mnn/rj/+/7nRo/7zfud79Tr7jsN/c/7ZQdO3aOjY2jQIWoED2yvZwV6iT2tWrywYAplWMEIX2foiBhyDBQmJqe2rVj1/j4+Mknn/SNf/nqj3/4gyzL9u4ZFWAzHXBVBDKCUOcL3HMedc6Xv/jZ2dnGjh07W3keQtCBMTv+VMGQ+kySBBEGyfPYmp1dUFVHClwlwkABdUcJAFmohADEUjrJCgBGdu/OQuYNL0QgRCQiIqX7IHUiYXrUo87+9X/97MQTtmzfvWt0zzgiZllmIDgvaFAl4EWEIwAETwhdpkNNpdQqWcnlIW/mu3buHh3Zc94THnftH6849thjF3+qM9MzphuPiEIEFFTWhzThhixUShVUFubx8QkKWdHftU6XzUQx0N7xzqld3XNRbkMeAB62df3QYD8RtgADmMO3t5jFm77JRk9szxcp9OTdCQTT5BccLQIcAVjX6LkRcDaykPa6qQ30aK1lcwxua8o5Bq3dOBYFXShSLYULUEDR4Bc7R0jAOS/TzQtHW8W6xBoDzz42mCaMI1AZzO4dpJhXOPhbWMDR6RLNhWkOSzSNm/VKDd8vCW2mH0XkBLa0q3GhcKNPu4gE7/dDanYgAoNEwAo0ZrNN7yvheTloeMOw0PpF94e05GR09x5EvPAFz7vwBc+7+ppr3vw37/ivX/1q49Gbj1i9VgSZ8wJxaF+dFJpYYsp8qZ/BLFklVKvZnj2jV1x51VkPPut/feoTSwe74YhT6+l5/3veLcJve9e7/+mfvrxyzer7bNhEJK08CruFwRzdbTE3Qh8DISMjE1IIlFWyRqNx5RVXTUxNPuTMM//+gx/csmUOuyGP3qu3ZpDlNuqjRCXkMQ958FkPefBZv/jlr970pjdfetlvTjx+y5o1KzAgR2m2ciw6QrYgMDBHmZ6Z3ZcPs7+YmZ7cuXNHjJwzExIRRAFgZIiIsGP3rr179qxZd0THL6o9rr7uuunp6bwVAQEpMMSYs/NtuFapDPT3deSDVq9e/d6/fUeM/Lfvec///Mxn169fv2njhhACc4w5c3q3bYZObdr13nQURAIiqFaq0zOzl1/x+2q19rfveNsF5z+pI2eoMTk1PToyumv3SN5qkb/Bov1L4cgSYxyfGO/gJ+4TeYyzM7M5x3q96WWQJcIEhCgsvGfv3vJOoGtR+tYOgOeduuE7l2+rVSVChqi7u5UZtn1ZMxhdQy3Rz6xcF6vYxbFkJqkKIgFIIA/7qnYLQkSoA5AazRW6L5jg9lYUF6B3zTWKqaqoDo09/J4TgCirmVwpF7EQxy2gXQbHY91wCMjZc2lDNb6reMGeAHcuJuPah45FoCTi7GK7JnZTyEA4W6qdNOcyfCKEwClrgaJFgJbqKHzUVnYXcrDvSlQBFZCEmzOy6qkUest/eO4aThnSBQqQ3P1Gv9zI7ABBAIDjjzvu29/6+jXXXf/tS/71yj9esf2OHblwJVT6e3tCNQuVzDIZjoiASGy1sH7R0Gy1pqZnG4364GD/li0nvu+97z715P2IHpZ8wfTud779lS976Ze+8pVLL/vdbXdsR6Te3lo1yyrVaghBhZuI0PCiTOa6LpLHVr3RajSbHPOe3t6NR61//etf+4ynPWW/PD0fQBmMElyNAgGyjBY1Fp43zjrzgT/7zx//7ve/v+Q7373p5hv27BqZqM/EZh5ChiIhIyJSqDtL3Ll7ZHxiHGA/Bo/7xAsveklstgSYUD0iQVhnb4IAo6N7BwaXlnVJHhvXrz/7kWcLYiULhIEIiJyOg5Tn+dDQUAc/LgR659vf9va3vuUTn/rMby67dNu221vNZk9PtdbbW6tWkSgEBAiICBwEhTDknIMg53mzlTfqs82Y91b7Nm7a8N73PONp55/fwXPTWL165TOf8bTe3j7z7yZyW0wGRgJuxVirlriwhCw85GEP4zxvcUxdIUyDYZGcudVolXcCXYvO6EfOH1ds233my/7nfbdsbOSR0OB0Kkcn6RxsW2MEYodWWLXs/mlgzXo08xgEiTEg7h2f/sIrz3vEaYUaHXMLrzseKptEIhKkyjsdU/1WnAnWFm0WaeLggDnAdVA8IEnaQZP+nJHoEg2rQLRZ3sI2oxd3WUi60qaFgo5Wd0lanVWkU9Nt38/E/j4UHhMJI8fOJ9Gt3+GCpHkUA2uPXttvbb6vCaqfGHyOcBRBhCiIIBVo3MHHfisMn13K4zJv7Ni58+nPfu7a1StbzRw1uwKnKrAIwMTExBOf+IRXvOwv9/vX643GTTff9IMf/PBHP/rx1Vdf22zWK9Vab29vX18PhlCtVpBxpjFbbzTGRveS4NH32fyE855w/hOfdOSRaxc/ZexIzEzP3HTjTd/7/g9+9otf3HTLTWNj41mWMQNllFEGyJEl5i0A7Bvov8/mox9w2qkPe/j/2HriCUNDS+f3RDntAQ/asOEoArclFBFFcooAwU03bPvdZb/qwgXGyPVGvV6vj0+M7949Mj01HZkFsFLJBgaWLB8e2rxx4wIOczig0Wjccef2H//kp5dc8p1rb7hhenqqklFPT4864FGgPG/Wmw3IYXho8LgTT3z02Y989KPPWbN6dXaI/kaH408wuvEVbt2w8ryHb/n5tduXLes1TWoh8Q1M4WkKzWRBJCuKE/fM2tyk/1mLTxJX3xQilruaSTdBMhHFRiW4HKWWfkLnOaIcwM9EGwOJyFzg6ckVzwSLFnoScS+4LbYTO4IuZQrtQnVgbtWI3hhIuYcJ1KMZF7fXSowqHkPm0dA2O7DugVGTsfhPaa/2nZpd6t4FRA0UD4CCRWnm+IekeqPjAIgQR6D20LDskWU+MgcLaUd6gSSBf5XXOHCy2lOrnXDc8Sccd/yrXvlyALhz+/Zrrr1u544dI3v2TE1NxRiZYXh46brVa7ectOXYY47p4iUtNPr6+7actGXLSVteD6/Rr2Xbbbdu375zenqq1Wr19PT29vasWrVi86bNh3pkcRcEDMLRiJ3K0AjdgOVYhED9fX39fX3Lh4c3b1yo78jhuGvUarXNmzZu3rTxRS98vpYCV1x51Z133jk1NdmKLJEHBvqO2rDhpC1buuWDdzi6F13Kzr7yuieved6HUfqclKXteOOBkRW2QJC2PxUuRscGc9KxRkBR0rLOkjl5dLSFOBMYGV2oGBnEirykWexbZ6pr/a+DNe60b80uDpP+32eyBWmNTWdHXAXeFsYkOOPiME6Wc1EbpcEktIulDiZ0UThUOT3Ee6RFja5uB5bqGCIvdeMLXUfNGARML0OTA9rnqiX5I6Bjf1zCDo1KVJ/g094XShaDnD+SGy36WQOxFGJ/Cz23dWvXrlu7dgG/+KcbSLhxw4aOCOZIngdACsCcEiRLoRA7A/g6HPdgIOJJW7ectHXLPX0ih6Mb0aVkDRHe9PgzJiZmCMlxPm55ohapNns2hMmcgti2MzZRdLcrA0FMI+e5YwXnKxa2ZiAAQTCB5sHd2/S3HTeXFOR9++SE2nNuG6TRvBXFzmhJ3HRrzbOIRJA2qh6xtI+xxXnkbKfQphAjjmQymVxMWvp+V8QOLQBoXnj2mwiikjTmquNEP5eVddAfckLjq6IHJjVMuxARUVNXs7wWaM7IEW8KvXdLYLJDofo5mKiMSpYSNwjsmGza/++CgdGcHCDZGWl/ngVD5U9iHnE4DsfhWEh0rw/zVxecEZrN6XrLGsrJBq1oqqJyQBPSXKToe4PD031wrQ3zKCDCcd+ROaKRZZXLajIzTh2npGQm7oFqw2RUP45Cn2OOFE0ao/ufVfuh6MAX3PnUYgcDqZn2XFoy0+FNZ0bQXVuKSJh3ilBcYPod7ynYqNmgAV7WS5uhnaBPz8Xc4RgKQru4BEpU3rSTphPmH4VAIkirAZX1vO6VnXEBu7uBBTDAsxw1sy+aGffk6d17o9lqICFLSjxRNcNRhDD09RxcJeZwHI7D8ScS3dvaq1m4/DMvr4+OM+VIQI6Gd31l22eSgLt4M9ia9yIKKSPQqbMpeJvewdzrMOdBCGabKJJ047DYxcEZIAQu92EbLXl1rfWh29fYPs8CKKrrArbVJGJeMlUTU5tRfzZra7fJ0wBb+14v02VhxP1k1PfF2gns2z63KciY/Az55NyNcTnaeXCbjR0ml7uij23UfbvtjrIv7OgKHzVkQGKanWpt/kBWW95Z9ZJDDlHNFc+TkjFMkc0cjrsTZs6R8C8ueqMA897eztC0DsfhOBxdiK6iJ3qr2Xte+Mg9O8ayULF91dU3vMAsLIyobe4LpgANBfla2mq2gqll4ZwuSbNXm4+zb26sve7Uu23jdBcHUVsOJwwnyLwdQdrGuk4wFx/Fe7iPGrf1J9ptYX1un6y1rKdeMOuTF7vP232OYD9rU4stoHOOD3DSJrLb0aRzAAFx39h0G8Fwd6gshnRbMYPZvXzsh6vL7gFU/L6RpjKYMBaaJCKzJ4WH4xCjXm/0VGreNxMCQCEfNiEgLlkycE+f4+E4HIdjodFtYORzzznlMacec8stuxCBgRA4idWYXwxATAu2/Rf/7232pgb5EiFQXbl9GvLacid0xXEvqJ3wTbYLC7Q13Z2N5mouzjRDMYlrpYaTj+QlFfOYrLHEPTJtWu2ThLRNOrYNk6SjZQa2KyWJUPdutx099QYs5TF/IlSRPB0mkJ2rJEkx5Wibq22BhvcRiPPphUGFZVW7t90znoVAJu+IK59Ma15Y/gOykCgUgMHl6fxrQjAT+8NxaLHt1m1AlLyyLb803goAyJLBJff0OR6Ow3E4Fhr3AOfhc699wkvOPXn7zrEaIRKyFe9iNbZqviW/GNB5Hxgfyx1c0ObTaGKt+5c7FXAYm7ffbcac5uLY9qv+L1TcF88jvBUPEKPZyEFybYfCWRva63ilqCnFj6GtO66Xhy5ykwp929lT28Fd5G0kYLu7zsA56e20fbRV8KrVJiqAW7QVyKTFCnpeWrpF/UQ8CRBvbhMDweyu/IjXhWM+2/En4e4FgxSbt8kSJ2ygqCXAPXyK98LYfsedIctExCY8lj77BIjlqPUHV4k5HIfjcPyJxD1DZ3z/C85+ziNP++MVt5D5bgiF5NMuDuAGBeiaX4fY3LzdpwJNofYuKDqoILYwpnm4GIUeUg4gzu5Wkpl+kOGDURxobip5YoAANPVxQAJ3aG9Dz6XtUlDIzWrZEgmn+DmYQE/UXGcwKZ26F5HRAbR2DpRGFuDqeCYOaaSB5LspbVA90x9FUvleAIgghlbQMTphuo4ETjSPPZYMBGnk+rjq5ZXN7/zTwZ0TqMm4a++TON8CmT33OxyHGLtGRgaWDgHnAozoqrKIAYCIphqNlXfXN/1wHI7D0f24x5QK/uHCh339nU/D6cbe0SlCYpbIbEo0AMwchVkkguicXatQp6aZLYuIMAMBw1xiDiIKZhAM8CZqIShiuuuJz2aWXk4kEy5KYyl4c06vo+RNB4VGjQiagbgV14RAzuETQQbgiMLIAswguYnX6D/VnoQZmFkiMANEkVxAhDEhvklyzS9AQH1L1aPdzNsxcbydHmhEPL1tCJFAWE8GQTvuwjkCo0SgCCAkHDSxijq1iDnWJyKtbp30rWzze++hZ2T/geYAqt0S5VyrCrUgZihC9KeShdyLYmTPnoHeWtSE0WQV0cxHMUxPjC9d0g3Z/MNxOA5HR+KeFCF64oNOuOxTLz33jM1XXXHrTLPVW8us1WraqECoTtrMIsKE4kN1AQbm1DfmfYHRItEnxUngpc0G1TjxiVlvZl8+gRb/dSza8WjtbrUyMKC7V7rKnvPpvRLKxZjw5spKZv1i+q9mXAbITjETW0jJfUtQADGaqg0ZOCwwIANFRhCOIgkWKAhuAqGtBXYSP6AQq2YoK3Fdq9osColIBBQGBmSQCkhGQvB/2zv3YEvPqsw/a33f3uecviad093pe0JCKKA7aZ3IzUEuXjJaIKKDGnWKsqwZp5w/hhqGUgbKcUbkH0dHLgFBKLVUaqScUctCxKqITIiiclFITxQhdK6dviV9O+fss/f3rmf+WO/77d0hwOmQ9D797fUr/mi699mX75yc9b1rPet5Biex9IDt/w/V4bt6O157mX8qviFFwF+wPLQQ0lNiyLDWumQ+/w/3bJifz/KQ1sABJKi1PPb42WsW49QeBFcMU/4lKMD7fuZVn/2Nf//ifTtXziydPrO6srwySp4FpwC0V1W1SqVaWVVJX7SnrGqtq6qv2lOttFf1Kjzxt7mID+2ztJ6tLYy5ui3Hoch4Ej0xKhcAYhPWKBPJaVK08szBaEVslAQUMd85M1KohNAqUpiy4C9JMZij0oBU5yh1c0FhjZQ3+/IY2chksIREJDApTcUqNc+MLeEyedlfDGIkadQsO6Rn1wIQmEIAABlFSURBVBJALaagolJQ0fSQktRiJEdDjJYxPGnD46j3pq3/Jn3bl6s9b53GT8QacHlAuVETL+oGT3Qh7In2AMEa+PyRI0W3oeX6+f+BQs+dOXvw+c+d9nsMgmCtrIsYgFuuv/Z3f+4Hk9nxU0vv/sinP3z3kX8+esZGq2LMkU2l85090FVhBg8soaazS6OVweQTEimnxE3mzIz/FWgdaLLTXCqObZajZ8qZXsr2W7u8VjZ+LTfii9U9AUiyZkV4jM1qguR1fbOc+mJ+v9JQKVaxZIsSya3AXCUIgUhFS/D8W28WVCWT3UCFtq8KGKEGKszGa375riURrVuvTMbwQE0oRpmjzknvWtv27br9dVbfqAvX1+tmrP7VeC23Nosv91EABY3ZETWG7ZfIb/7276TRqiUIciQixoGDWFkZzG/cuHfPM5t/GgTB08i6KO1Opbp7x+a3/+Qr3v6TrwCQjF86dvr440uDkY2GDcWzXqq68lTXsrJFGyR5+bfcMPlUIj0IRBNJKCfO9Jz4vc+iM/Psdg/zlBKEUiJWSCnOMvlQn6VardusZM8dSRw+hmtep9e+nVwVmSsvZOSoJNRUIEUq2EBEBTWYoL28vCe5j+LeIaDLmLKsTaC+v08kYyNMkD6kEo4MmpX9YpA+2JAJ2idT9qeXirYkUpe8+PMjmauqDSr9yW3+HiZ3BdYj7S5W61nY+vxKSdFb1x9g/UHyv/3i2265+ZBq/i8BZRDlplKPnznzna982bTfZhAEl8A6Ku1PoFJ5zp7F5+xZfApf6yL2LIJrLWvohWDC4EVKMroI1OtgXrJrn6no7zU/Ly23AnItntx+U5JiCSIik66clciEzM9fpNpYKmoPAOSrDbqryYFyeYYq6/8vemT/q07ZvUljgPyvVX/iARu/tiH4+j2yl1O7anHuJ8Z6fwhRu+l5FPdL4Pc+9KGdO6+d68+ZmajnG2k+shtVcPr4iX/7q+vE0iAIgjXRTcGRt5zLr3/fHqcwa9/yEb1Ys7lATQxlD20yNq14wZYtcorm6QDbNSu2y+egEmG1/cySBxHF3qD14TO6lo7rZ09v/UPyD/7PH994w/UpNWNrKDJlEzqt6rlt11xz+JZpBgIFQXCprN9T+zeDuO+8//KXsX2tSDF6y5K5PJ1uh+rZPsZ8gSqvlVGo40V4y63g8QieWQoHT75cfvo+xyXkk84Kkr8ZPjepRCaUE1nimOLUvmbe9HP/5cyZs6p+H0yFL0iicqtExcrq4FXf/6ppv80gCC6Nbp7a3Wid4yyWIoAvR+02nZUuS3Ohe2s1326I0TxOHqB4Qmu7k+6a+xK75svg1L4tHQXT0/Qp1lrXOTvWqqRYFs6plEWt1jTIPIc07ofWxDve+e6P/fmdO3cs5plVcWHOJ3egX/fuu+/oK1/x8mm/0yAILo1untrhw0JWkFTG7FLy1yd83DFh4S5SYljztnqZ0VsJYx1nYU161gAl6FVFeJWt/F368g+A/bIJr+7NnmuPf3EW9+VXojvAmUAx3tGneYq6+kPFRAlTE7ersVboLwKsLo12/0xv52su93W+7LjNEPOREmWBsUTZSjTj18q73vWeP/jff/jc597UjJqqNSKUNlhQVOT4iZM3Hz5467d+y7TfbBAEl0Y3S7u7qRrNRUHuqA6UiLCxG6ufvqHQkuhaEtDoZ3GdWHenjPV4QhraWwBY9oqTRud2q11gGpnVqkOoovF7AV9mE+Y8F0JEmARa1tUgqTQUDFCR1EANYsAcAKQGpJbMGsKEZmKoes3ghFaz0oWW3Iwp3x1pbXiKZjJO7V8Xkv/xjf/5/95110033Jga3zKxouPMYb7GVAGPnXvs47/1Z9N+v0EQXDIdLe0YuWEMgIk4+GzO1lYFz2vTPJj3EpEfV1bhc3ZNcX0vDq5MZSWO+SBebhMEhrQEoNIhQKTsYiutb12e6huoEKNh7HWb3327rt7GySyXV/dBgECy2ZwSMKlwVmx0+a/zlJByo5Wvu7SCChEwudIxeFLu+uRf3fHe9z56/Pizb7zRUknyVQXZxhET1qvrhx9+5Gf/0xun/X6DIHgqdHTW7i7Y3qQtWWcsUXJieWUdnjJixhyzOqGwG4e52US4rBcVK6E0gJvDo1TbErY6XrFTlPsHtnL90jqmR2K3LrllYVswNr2XSTm/uMKp/AHF3l4JkZkYt3srXjxtIBsI+feyWAWLL74HT8Jbf/4XfuL1rye4uO3qIggx/0F0jSmEVNFKjx07uXPnjh/70R+Z9lsOguCp0M1Tu2pNquad5zaUTVrZXNZe+dC6ZLNSgNwrLydkIPucQUpWDJlnvGwNU4rdrEiR2BfjFIJe3Eu7WItOP6v4rFjX59fkxAm+OLHk5kGW/bdSflje61MkVmoz0YaWcr/WflfbJURmN/lpv8V1BsmP/OlH7/rk3Xf/9aeqqnrht70gNQ0p+V6wjKqy+RJFVE+eOHH4lue/+x3/c9rvPQiCp0g3S3vZjULbvc0SeE6klgIiNjlAl+xf00bGeC13t3nzzn2pxFai1fz1MDF3978ylC258QobJ3oCuKgXAIx97iYeLOMHjJ85/6uUOxABoQ1npwuds4PajnxrPVAEEJyFm5xvzH1fOfrOd97xpx/96IZNC8+67rpdu3amprHUeIPDwCpLT4q9MahSPfTQQzfe+Kyo60FwRdPN0u6GcfSgldbUBPmkOxa35wjUsQSr7LIzH52LaC6bnE0cCnMOew4l8eO6oTi2sx2o54Q55Cw4y/q8vI+tOVymKPKZxwYoNwEXbbaXmwF/vLWKP6oJZ2aZu83CoUBppKBdNPBNRMzEbGKSRx559MEHHzh56uTJU6eOnzh57/+79+j9R8+dv7Bl0+aDNx+sVFNq0mjkHk5lOdC9mtgaNprZI48+9IqXveyX3vbfp/2BgiD4puhoaSekqqBa2uM6UaTzXhnKKluu4H6Wv2h3SmD0sfpFFbckuGclV26fm9Dt4r3oeFXW8jUcO6fBXLU/brP7O7QGVU3rUQEFUlPJkD2PjTEAMB2/AWNp+SdKndBUM1PaRTTrGZi1hhD6ZKSE4MxEaf/dD/3e+9/3gZHJhaVlplRXunHzhoX5DVu2btaqWlzcsX37jhx/bCZuISvwnxuXY5qYipDUSpeWB5/7+8+9913v/IHXvHranywIgm+WbpZ2AWlGoVglY+OaIgH232fZTtaTrryVixwnU5rfomO/eT8gSwmVYU6ik1Zq50+YRXH5TsDGDyhPWQ5KeQIgAjNfzks6vEAOlEZJQI+yiTYPNKIkPSfGZ8z++9lyvI1ZNd4B6D5CiKo1jbgWcWLuoR4PMxOVHVdt3dZA9+3bpUIVzTnETE1qmBoDlBBRbdtU3t6QstiZf15ktRmefvTxA9ft/9K9RzZu3DDtjxUEwdNAN0u7+8yoD9yFbT0FWkl1MaApK+UTPjSTh3E/0qsHtzNP49sa7Q0AZn1bMUDNrzPu54/P+WMDnFzojaik7nHpPtZ7ef0vo94/kjnVhOasPvrrOPZhbt0l6JdXNF+fE9E2vkMmdvVmADEzM1LE9Y0qkr+ZT9566SyHDj7v/NnHqgN7VwdDYYOckOM/rKJ5CYOtLYOJ6zFEBMms359PKX3hni/sP3Dg1+/4tUOHDs3IdQuCWaCbpT1XaaNI1q0jq9mtXR+nz2rzEH581vZtNAEoSvNGr7Vd+6zhQhmgS2tgB5jlZXeULDgq1MrEPIfQYrw/7KbnTVp5UHa9sdr/Fr8BGAe0bX0x9/48/vG1tAuoe/mw74k2TBAyN6Ozr/1sQAjqqjJrrLRXpO2smLhGbBY4cODA/MLG4WCooLkNX27/tAlHJDQLRP2n0K3ijYPV4fETpxY2LPzXt7z59ttvn/ZHCYLgaaabpV1Q0ZKUpTXkij2RAoPsU5dLfNtBnwhhl7wXl9X0JF0xN6FVb8/oRYEHg6rfGogJpej2xntsnFDsJWgfo5P23D/pb/n2J/8gG5+Vnvcx3PtKGV2Q3nx5LraTfqGBlbK7FgUXMz8///iZcw8fO7Znx45de/aoYNgMU2NVVRoiJdF9FnjhrbceOXLkmu2LWQ/SLleSRd9hJhBFT3ta6dlz548e/YpW9e0//Lp/ddtthw/fonFSD4Iu0s3SDiYVAAproImi6mtRuVQDZqYiZvmQZ/Qzdp6US5bE5wTY8ZqbTOygF6NZv3GAF35FYj7b+zHd42akVd23gXECVBg8nLa/4WvVdQCAVAu78K33pr/bLzm2JpvIlzfiq900mYl6tmXLls9/5lNf/OI/3/G+93/6058dDFe3XXXVpg0bwEp7imRGS/Z0xfOsd37oX//gnX9x59WLiwAV8CmNEKKVtzKaUUpsBsuDC0vLozTcde3ut7/tF1/z6hDKBUHH6Whp1wpSAUKFiJadKLa5rllJ59NF72dr6y/r4SsT4XDIiRm+WJWVW8WHvnTjASiVMHprtEjqyzyg/FHc0lMFtpIGj1f7fnZNn2jxdjz2Aau2i5W3lDflsu5PaCzbcJ3nppue/Y5f+WUAX7jnnvsffPgTn/j4nR//y8HyyuL27b26X9Ud/an+Kl7+HS/duHnzhrk5A1NKy8srq8PV8+fPLy8tL68ONm/auHf3/he96IUHDx7cs2vXLTcfqmfmygTBjNPR/9RppInlw3N71EbRtfsytI7TV80H18XbVX0uXoy6gNYpxUXpMJls5BNFcM98QB/Hwj1xlt8GmsjqUnX9m6HVWj5Puvo79dg7uGGXiCG5IKpdzc+fbwbDTA8dPHjo4MFXfe9tXubf8/4PfOZv/vbofV+Z9vu6TIjI3NzCZz77WYhqVV2zeM3ua699yYtfdOvhf/G93/c9VbWWH60gCDpIN61OaCPe+zzt7SWaMlRn2U8vq2yET9NJZhfZCXfYvGnG9pjf+prSspqudZY1ipbrKO4dC5DZWq5IvKRt3BuSChTLj9itn9Les9byiSydl7/egw37ISMwQdwbXwGj1Fh+gDd8UK/98Wfyol4ZJEuPPPTIvv37pv1GLhP3P/DgmTNnb3r2jQsL89N+L0EQrBc6emrPCakV2OQl3jbYynV0Ugpxa7PJ3K6np665n5zQ00akzZYpeuyLBHdsFVxlxF4scYrLDLLYPtfjRAMkab1/rZ+m2gRRSEIaeggtBEAiVUQtcUZkdN+QSqvZqesADuzfd2CWPm8QBGuho/VAVFCjBHv7vhjawbnkyDDks3QRnMNAIBXnV4ciJcQ6f5W7yZoL6S7yhRWQMDe0gVt9TQjwynNaWb1W8txaP1DOmk/QKpvqQEAttyEVNcxGgiAIAnS2tIso2YeQqi5jo6jHqKJEq0qp9yICqQQlTVXG9mZSFtLz/7IrvOXENkmwiZAXoW+8uVWI/7VkL3oTn9D7Q9UMDVlL8/k1fiJb+SfRBJ2Tyk3YpCzZq8DEepy7+pm7nkEQBMEVRDdLOwDoAtATtloClpUzAgLzRDehP4ANfVXNDMyp4BQD2brc5MyXLJb3J1aKsZ3Nu2ZejWb5awHSKJYrO7VYfqpUCb0ej7xhjZ+GZ+4kKuGQyUgr0j0Tt8NlH/XOZ/JqBkEQBFcMHSzt2Zmmv8hUtz6vwnYNXLO5CVr7uXIditVbDlbLyWzt15dnpuVYEpqYf9WEkY2Vpn2+G/Djv+UnYSpFuSfVVpz9h9H5T6zlQ+mJ38fcDljyU7+/d5jvzafG+jq/ZxwxHwRBEMwwHSzteVm9dxN4tjWMy0tnPn0niAS4L2neZhemHLzqfXgXyLcB7iUDk0J368wt+BIp1w7si6q+jOhJoYLi+3jjRr8QVeLW6+r7f+kbfqLR8Q9ycE879vf7A8kvTY6WqvnNWm2akaX2IAiC4OvTwdLusH+Ioy8BvQl7dQIixdM9i+VKqCogAhu7z0m2oWnjZMowPbvTYrytLtk6Bt7DnzCTZdHxueAeml3OqaSCRKVY+ULzuVfja68gpod+pffln5beVfTpgLviW/tnQxrI1hdclosaBEEQXAF0c68dgKUVvWeHzd0i6rvreYVN2v45AW0H5RQIaa1nnXvbtCN2N6drfWVLAnu2qoEIaDIxjocIkSYS3tjGxmSjGSqVSIQQ6Qxlr+1+C7a+oJ7fm9+/DXn2bjn1v+T0h2VhG1L7WjQVsbEvPZdO4vAndfPhaV3qIAiCYF3R2dIOgKfu4In/Ib3dgCIbz5VkVo7TP4kEqsA4Efwykc06joHJJ/wS8+J2smMr95xC1kbIAWbtY7NjXI5ab9fdTSBExZTQnBLZgd4OsiIhPCer90tvE7UWSRAPqPVXK1koMEFjg2V9yWOX//IGQRAE65Mul3YQzT/eotU2sAGgaEp1Zmswl2MvsxeNG9O54YzJ+OKwjNbHxV/Gf8WcoZ4faqUh7437trFfXGvNw2BL1CxIUbGGmJeKsAGaVUClXoBUTCOgyQMAljm9qd9BkI2kJe56s+5701QucBAEQbAO6eysHT4E3/0LsnKP5KU1dWVcm/ziB3dmWRtzOIy4CK4Y1LRH9LbKlwN4WZKDQEXc+tXKWN0gF534XZVXImW83hvM+/weIjeArQJAPYe6phmbUU7mzL43Xs59Hy+RFFRoFpqrb5vWBQ6CIAjWIZ0u7UBv62u546fRPCQYQQyS0BZsXzQns6cNWrM5lhsAP6ZTxmZwoLbCuGJaJyQN5nUa4nvwLIU4l3fL8nqDKASkeca6uc+NFGdaUAFF8mAPKscnftf+icfbAIIK5x9NO3+qv+nmqV7jIAiCYH3R6YZ8IT34Jj33R+jtAhuPdCsJMUXgznHbPCvo2BrHisAwTnnzR7k4DiLCZFBferMSCOvLcTYOZ4OVUX3bAXDl3biz74r3skanJY3Go1oNqMjkj7dEVLWcP532/lR9w69O66oGQRAE65OZKO0A7MjLZPQw5neSBqNIyWeDqJHtFpxRYBAVPy4LYHkSX07hWTg/rsqt3R2z101+uAHiRrMTI34fmOfRfBJO3GW06XA5etYIEUkwBYRsaJVIAkxYp9Gj2HxbdfMfT+t6BkEQBOuWjjfkW/T5f8nFH+LomDAJinccRWgTsevtelueatOeYPA2scLOPPZmTp2x7HRTxHLSauL9RF5CX5ETY5IUQZ/kpy4+eDka3m8cKgiIIVBLnU31MDxnO98QdT0IgiB4Umbl1O7Y+bv4T7dVCwfI7SarlXr2urFI3UtjHC56hxhJEaW1pTp3yoVuHyvj5XUzCCgmqAjL/u5uYpN79Qkipdlu5U1x/Azl4I62hZ+n/qoYUDbJ6unmzGm85K56y7+c5nUMgiAI1jGzcmp3dPNLceiIbfgOGx1lOkfUFGX2jfNzeCJIa/NXPHwlZUHdWMxGCgkPc281dblVTzOhQCwnrvppP8/LATHS0Cr1s2ldW9dLjQcplp1yUkrDVZx9mFf/qHzXuajrQRAEwddhtk7tLYPB0d6D/07OfQLzz9bqGqYLwCrQG5vJ5GLtw/Wyge4hr0i+Xu4bcpQkrIAmq+/G83IgZ8wVV1ppl+iybF5QTvAcq/YhhLkpjYJKDGXlgXT1a5rn/PZcvWWqly0IgiC4ApjR0u7Y2bvs5AflwidFgGpeUENq0k3i8umZWuxos0EtkdPjDBQo2y46aTkcXlgurJdnKwW+zaoRt6xHXopjSZ9LMKUkELARmJDMFl6a9r2+v+37p321giAIgiuDmS7tzuj8l3X0N3rigzz3tzTT/mbMbRNuhNTkKkBBIpOX3mRSQ6gkTaiQBFbQRFP1Azeyw0wet4tAGxmJCSFQNOZFPZvcKqUB+oI+0AADDM8xLWFomN/XXPfWZu7F81tvEqmmfZGCIAiCK4Yo7ZMwnfmYnfpI3Txgw9MYPaQyNNaifUBBQEUqgD1QmFfXTKSG28gYKFQASGRFUkQEiUgwQoWsYEYZaDJIBQpSElmCDcg++/tEd3J+EVd/NxZ/WOtN074aQRAEwRVJlPYnx9JKGtxfNWfNLiCdkOUv6uBurDyA5jE0Q7Fhgqg33F1uV6vSKzgghIo1EA+XG3prXlQparTEeofM3SRbn4OFg5i7zjiP3lab31P3dorMlrAxCIIgeNqJ0v5UIFNqTsFWBAOxFQyPcXQKq2eBJBhaMzQmSCWorb9Y97ew2qZzi6h3Sb1NpDfttx8EQRB0mSjtlwPmCLggCIIgeMaJ9u/lIOp6EARBcNmI0h4EQRAEnSJKexAEQRB0iijtQRAEQdAporQHQRAEQaeI0h4EQRAEnSJKexAEQRB0iijtQRAEQdAporQHQRAEQaeI0h4EQRAEnSJKexAEQRB0iijtQRAEQdAporQHQRAEQaeI0h4EQRAEnSJKexAEQRB0iijtQRAEQdAporQHQRAEQaeI0h4EQRAEnSJKexAEQRB0iijtQRAEQdAporQHQRAEQaeI0h4EQRAEnSJKexAEQRB0iijtQRAEQdAporQHQRAEQaeI0h4EQRAEnSJKexAEQRB0iijtQRAEQdAporQHQRAEQaeI0h4EQRAEnSJKexAEQRB0iijtQRAEQdAporQHQRAEQaeI0h4EQRAEnSJKexAEQRB0iijtQRAEQdAporQHQRAEQaeI0h4EQRAEnSJKexAEQRB0iijtQRAEQdAporQHQRAEQaf4/5nGz8QrY0UaAAAAAElFTkSuQmCC;" parent="1" vertex="1">
          <mxGeometry x="616.57" y="620.85" width="97.1" height="40" as="geometry" />
        </mxCell>
        <mxCell id="-_e0oAa0ZLXmWboYiCuw-1" value="" style="shape=waypoint;sketch=0;fillStyle=solid;size=6;pointerEvents=1;points=[];fillColor=none;resizable=0;rotatable=0;perimeter=centerPerimeter;snapToPoint=1;strokeWidth=6;" vertex="1" parent="1">
          <mxGeometry x="655.12" y="692" width="20" height="20" as="geometry" />
        </mxCell>
        <mxCell id="-_e0oAa0ZLXmWboYiCuw-5" value="" style="shape=image;verticalLabelPosition=bottom;labelBackgroundColor=default;verticalAlign=top;aspect=fixed;imageAspect=0;image=data:image/png,iVBORw0KGgoAAAANSUhEUgAAAYwAAAB9CAYAAACxgFRCAAAABGdBTUEAALGPC/xhBQAAAAFzUkdCAdnJLH8AAAAgY0hSTQAAeiYAAICEAAD6AAAAgOgAAHUwAADqYAAAOpgAABdwnLpRPAAAAAZiS0dEAP8A/wD/oL2nkwAAAAlwSFlzAAAOxAAADsQBlSsOGwAAAAd0SU1FB+kEGwsFKiWeRMYAACAASURBVHja7F13fBRV137uzO4mmx7S6YTee++9dwSRJk0URRERAYVXRSzYQBEQCyK9gyC9Ki0QCD0hlDQC6b1tmXu/P2Znsps6SxIIfnv8rZrdKbee555OGGMMNrKRjWxkIxsVQ5xtCGxkIxvZyEY2wLCRjWxkIxvZAMNGNrKRjWxkAwwb2chGNrKRDTBsZCMb2chGNsCwkY1sZCMb2QDDRjaykY1sZCOVbQhsZCNlRCkDBQOlFMz0tzkRAnCEgBACnuPAEWIbNBvZAMNGNvqvknkcKyEEj5JScD0yGrejY3AvJh6J6VlIyc5CWnYOsvVG6I1GEIhAYa9Rw9neHu6OWvi5uqBORW+09a+KljWqQqtRy88nNiCx0QtKxBbpbSMbSOQy8UdJKbh4PxwX70cgKCIK0clpYGDiNZIYwQAm3ggQ8+eIf4rPYqZrAAc7DdrWrIb+TRugZ8M6cLa3swGHjWyAYSMbvYhg8TglFZcfRmHnpWu49CACDADPAQwiOFDGRJx4ip1CCAMRYQSUMThoNJjZqyNGtG4KTydHG2jYyAYYNrJReSZKGXKMBoQ+ice3B0/i4oMIUa3EEQiUAiYWX5obwySYmAQSAsYYFg7pjdFtm8NBo4ENN2xkAwwb2agc0vqzl7Bs/wkYBAGEcGCM4lltAgkYGBNVVxUctdj+1mRU9XS3TYyNbIBhIxs9TxIZM5BjNGLpvqM4cj0YqTk5oJSCEJILFM9wF5iDBkcINCoeb/TshJm9OtkmzEY2wLCRjZ41UcrAcQQP4xPxzd+n8G/IfegFwYQLTGbYT71xYDJum2wb7GnsHGZ6LxXPoV2t6lg16SXZo8pGNrIBho1sVMYSBcBwNyYOa09ewOEbd2CkEkAUv9Tz2xKIfK+FOgmAs9YedioV9IKALL0eRoFaiCvKd5Zo3eAIQbta1fHDhBFwddDaJtNGNsAofKM/22aUlXdKeXOXLA/teVZtYAyISU3DzyfPYVtAEChjJhdYZrU0QUDg7eKEim4uqO3njYiEJNmDSoKR0W2b47OXBsIgCEjLzsHj5DRsuXAFOy5dg7VWc2ImcXSqWxM/TBgBJ3s7G4ey0f9vwJBeZzQakZOTA51OB0EQYDQanylYqFQqqFQqaLVa2NnZgZgidPOrNiju3r0LSmmxz7Wzs4NWq4W7uzvs7e3Bcc8n8wpjYtxAZmYmMjMzodPpYDQaodPp8gFzgwYNyoyZU0qh1+uRkpKC7Oxs6PV6RfPM8zzq1q2ruF2UMmTodNh4LhDfHz4NjiOglIGAgYEULkWY3JaYZOgw/cfRzg4H586An5uLfM+9mHgM+OZni/u1ag3OfDQLrlotCAEEypCl06Hr0h+RodPlAyCaR0oprF0EBN0b1MaPE0ZCreJtXMpGivb8k6xEcISDr0OFMnvPM4/0DgkJwYIFC3DixAlkZGSUi8Fu0aIFfvzxR3To0CHfJERGRqJBgwZWPU+j0WD58uV44403nkt/jh07hnnz5uH69etFXufi4oKEhASo1eoyWcDLli3DJ598gpycHKvvj46Ohp+fX5GgIUkuF+6HY9pvW2QwzLUnFAwWkrGZEpMEwgg4ImufkJGjQ3RSCnxdneX31/b1QnXPCohKSoZgUnFl6/X4+u+TWPrSQBHoOAJnrT0md22HH4+eMQX7ife7OtgjJTsbHCHy/QVJSISIcR8n74Riyb6j+HRkfxs3tFGRJFAB91KjUX/zBHg5uOHxpN1QcWVz0HgmR2DGGLKzs9GpUyc0atQIBw4cQFZWFjiOy/eRTvpl9SnondevX0fPnj3x+++/5zuBBwcHK26bdJ3RaMTs2bPRr18/RZJJaVF2djYaN26MQYMG4datW0W2m+d59OrVCyqVqtTn+vHjx6hRowYWL14MvV5v9dxyHIdr164Vq6ZMzsrGmJV/YPpvW2EUKAQqyhOiEbowvY9I/t6e+HHCSAR8MgcTO7UWGTvLBZXZG/dAyPOQb8cNk91hiQlgTty+m4/pD2vRCIwBKp4HA2CnVmPH21Ow7a1X4aDRgOdIrgqqENBgDNh1+RqO37prig2xQrJjFJRRq+bMmuttVL4kCyOj6PPXe1BxHDztXco0h9kzkTAIIXj77bcREBAgqyrM1VPPQyWWt316vR4///wzpkyZYvF9UFCQrOJR+mxCCAwGA06cOIGvvvoK8+fPL3MdPmMMI0aMQHBwsAVIFdZfABg7dmyp2hcYY0hOTka3bt0QFRVlceK3Zq0AQGBgIAYMGFDgNQajgOVHzuDPs5ehMxoswKGoNxHTBetnjEPbmtXkjTWnfzccCLqFlOxsmWnHpqXjQWwC6vp5y/fXq+gDd0cHJGVmydclZ2Zj5bF/8WavTjKQVPFwx5Y3J2F34A20q1kNXevVgovWDlU93HD6w1l4fd12XAmLAhgDK8DWIfXHYBQwb8s+XPz0PRR2XmSmPCWEiMGARirgVtJDXEu8j1uJYQhLf4KE7FRkGXKQQ3VgTGyjPa+Bg8oOnvauqOdeDR18G6GDbyNUsHeRn0tgiyYs70QIQdudr+FxZgIoKFZ3fQ8cKTs5oMxtGIwxBAUFoVWrVkUysedNPM+jdu3aCA4OtmjnyJEjsX//fqttLBLj02g0uHr1KurXr1+moBESEmKhOitqjDmOg1qtRnx8PJydnUu1HVOnTsX69euf+lAgjdGwYcOwe/fufGsp+HEsFu86hBuR0blH8TzurPLXZrYKRnIP9O/07YaZPTtazMeHO/7GzktBMu/mCEHnujXx85QxMrBQynDkZgje2bjbwo3WQaNG4JK5UPN8gdJC3j4IjGH6r9tw/v5DcXxYwUBHiDge9f18sG3WZNip+PzSXFYCLsbcxrmYWwiIvYPg5Aik5mSAcJxZDixiMbbyvBACxqicI8uOU6OpZy30rtIKo2p2RaMK/iAgtvQl5ZR0gh6jDi/GoUjxID69wSCs7vpemb6zzFVShBBs3LhRXnTl1YuXMQaez78hAwMDn6rN0j0GgwFLliwp003HGMPWrVtlI3tx7SWEwNvbu1TBgjGGffv24Y8//iiRBMkYA8dxePjwYb7fdgfewIgVv+Nm1GPTsVyM0JZeQ8z+RQDUr+iLiR3b5CYKNP2y9cIV5BiMFoz9tR4doFGpZVChjOF08H0EP46V+8FxBP2b1kdldzeT6ouBIwRGyvKlOpcYfoGHE0Kw7rWxaFGtCgBSpFREKcOdxzE4fuuu3I6YrEQsC9qM9rvfQPU/R2P00Y+x4vpOBMQGI1WfCUYIKKMwYZGYkh0MAqPyh0JUQzGIObMYY9AJBlyODcFngX+ixfbp6L73HewPPw+doLdx53JGlFF8HbQVByMuAgB8HNzxaZupZc5fyxwwKKU4cOCALDKXZ3JxcbFgXBEREXj06NFT2yEkVdaOHTtw//79Mus/Ywxbtmyx6vqKFSuWahsMBgPmzZtXKgcDxhiioqLyjXtcWgYESk2MjuQzakvZYSu7u+KnV0dh37vT8N6A7nDR2svtoowhNjUdWy5clZk8IUA1D3f0b1of5oYFjiPYfP5KvraNadccKo4Hz3Fw0KgxvmMr2KmL1u7qBQOC4u9hb9i/SDdkgVKGX6aOgaeTIzhSMLiYJ8N9b/MeJGZkgTKKxJw0LLz4C67E3QU1uQwzQAQCxkTJAnK+3OLH23QlBYMAKo/l+ZjbGHZwITrsmombiQ9tXLoc0d6wf/G/S7+L88ZEVZSX1q3MpcEyBQxKKW7fvo0HDx48U+Pv00hBANCkSRMLxnDlypVSmQBKKT755JMymUzGGMLCwnDv3j1FYyy1oXXr1qU6z++++648zyUFRsYYUlJScPdu7qmaUgZ/bw9ZTVPwyR2o5+eDkwvfQs+GdQEA9moVFg/rKyOKaKwm2B5wFRxHzE5sDGPbt7RgsYwybL8UhCcpaRb2qRk9OmD15NGYP7g3gpbOw4LBvYrsT5YxB423vYoWO6Zh9NH/ocqfo0BBodWosezlIUWydWb237WnzoOAQ333apjWYJApD5bE8EvvMCIxIYFRgBDcSHyIJlsnY8rJL2WAsdHzkyxORV/FS0f+BwZAxXEY7t8Fg6t3eCbvL1PAIITg2LFjL8REEELQq1cvmelyHIdLly6VilRACMG+ffuQmppaJm3Pa3dR0p6BAweWGojn5ORg3bp1pSpBEUJw6tQpizbW9vUyUz8xE3jkns4FBgQ/jkFyZpZsdyBEjGlgzEx4YAzhCck4ejNEljI4QtCkih/a1Kyaa+w1GaTX/ROQD6S61KuJiR2Vge60U1/hfko0iAmY0vVZOB9zExwh6FinBqZ1a5/br0LOFIwybDwXiHsxcQAIlrSZKroCl6FxWgIGgQkgBNgQcgTe64YiVZdhA43nBBZ3ksIx6O/5kNSuBsGIX7q//8xyoZU5YJw7d86q65/XR6PRoEePHhbBdtevXwfHcSVWr0hBdG+//Xapq6UIIbhy5YpV12s0GnTs2LFUAguNRiOaNWsmBwWWVv8YY7hw4YJsV+I4gsrurnC2txPzOHHi6drX1cWM0TKoeB6rTpy1MII729vj7T6dc11niSgVfXXguIWUwXMcXu/RUVTrmE7uhAA6o1DAOMLiXonBFuSeWslR8rQiJjUTwbjjnyHHZBt4o2cnOeajoOETwY5BoBRrTp4HAeBh74LhNbpYeMQQufJG7v9btNniHygCmlzZhUAARWJ2KmpuHIsz0ddsrrjPGCxSdBnou38ucgQ9GKNQcTwuv7QW7nbOz8wxocxtGKGhoVbZL54XYNSvXx8VKlhGSN69e7dUx2L//v2lrppjjOHy5cvgeV6xdFG1atVSMXgzxnDq1Ck8ePBAkaFdirEoLKo+r5R0+/Zti+81KhVq+nhCxfEY0KQBTsx/E1+OGSyySJNrKWUU6/+5jNi0dDM1EjCzVxcx1YYseQCPk9MQlZhs0fZWNaqivp+PKKEwoHPdmni9R4ci+yf9djo6CJfjQvL99n6zl+Fq5yRlpQIDQ3RGPI49CgQI4GSnwfIJI2QFVMH2DDFS/MiNYNyOjgFjwOqu78GOV4MjBByIrK4Ta4oTGSQgC1dmUpnJ+4knnHhvMQDCTEjLAKTqMzHgwDzseviPDTSeEXGEQ9e9byM2O9nkbMHhpZrd0MKrzjN1fy7TOIysrCyEh4crZmQA8Oabb2Lw4MHP3EDu4+NjscnDwsLw+PHjUmmH9Iy0tDTMmTMHy5cvL7UTgSAIuHLliuJ2MsZQp06dUnl3UlISRo0aZZU6zMnJCenp6YqeHx8fn6/tvRrWxdz+3dGmZjUAQFVPd7SuUQWBYVFmahKGA0G3MK1be7MNB3RvUBt/Xbkp4Qsoo5i5fif2zJ4KlWk+7NUq7HxnCvYH3ULjyn6oYxaHURhdT7yPV098gZtJopvsdx3fwjtNR8lM2Uvrhgl1+mDlrd0w2ZTBcRw+vPgL7qVE4b1mL6NZ1UroXMcfZ0PDxBxYBe4RwEApvvn7JP6YMQ5udk5o79sQtxPDUc+9Klp41UFL7zpoVMEf60MOYcWNnaAstxwUT3jMbDQUrzcchotxt3E6+houxtzGw/THpuhzpkhFRSmDDgaMO/Yp1H0/wZDqHcvU9///O2UZc9B179sISY4EZWJa/urOvtjYe9Ezb0uZxWFQSnHmzBn07t1bkSFUOhkdOnQon2romQyE2amXUop169ZhxowZpWLENX8+pRRxcXHw8vIqFSC6desWmjZtqohhS234+OOPsWjRohK/+8MPP8RXX31VrCrKPLr8wIEDGDBggBhdXIS0xXEc7OzskJKSAo1Gk2dtMQt10OHrwXhn4y7ZxZYQAhd7O5z+cJZFAr+kzCx0WfID9IIxV9XDgH8WvW2RNwoABErBkeJjELKNOrj+MgCMUQgQ76ni5IPQcZug5lQyo43OiEedTeOhE/QW+n8Cgp39PsXQGp3AEQ4tPvoaGTp9oeMpSQWH572OKhXckE1zYMdp5FQQogcZw63EMHTc/SayjaKqUMXzmFJ/INZ0fU+WCjgiqluPRl3G4IPzYaSCYlU4YeIc2fMaBI35FbVcKtviNcqAcgQ9Jp/8AjsfnDFF/DPY83Y4NHgZOvs1eeZAzZUlA7bW4C2dfnmeLzCFR1l+zBc7x3E4ceJEqevkpViPjRs3lppq6vz581a7LHfo0KFE76eUIigoSBFYmFPXrl3RsmVLRelIGGPQ6/U4f/58vrbmtR30a1ofPq6usqGbMYa07Gz8dfWWxXUVHB3QvHolixM7TAF9efvA51kT5ifsvLplAzOa0ogQUAZEZcThhxs7ZcZMQFDR0RMLWo6DdI6Xo0IIwaJLv4EjHChjGNaycaFpQ6RWUEbx3ua94DgCR5XWIm8QRzjwhEdTz1rY1Psj0e2WMEyq2w9rTEFdHOFkRqOjBow+8j8YKTUpnUihNhCLVhARuLMFHTrsetMGFmVx6GYU8y/8jG2hJ2GkAqQIz3ebvYSuFZs9F6muTAHj33//VezqyXEcqlSpgipVqpSLxXfr1q0yeS5jDAsWLEBycnKJwUhyKlCa3oMQAq1WizZt2pRIguM4DrNnz1b0DEm6cHFxwa5du6DVaq3KX7Vr1y5F183q01nMJWUCAMJx+OPfgHxj//GI/lBxPBgDXOztsX3WZHi7KjMaxmen5JszrcoOG3p+aAIxJgPLihs7TSAgrv/1IYfx3fXtFvYJ0UjOcDclEl8HbQEDw/zBveHqoDWpswpXDQU/jkFado4sKRW0lobW6IyUqX8jYcp+/NJ9Xr6xCE9/Au/fhyDDkA3IEeHMBLwMhHAgRWEXEb23knRp8P59CHKMtgC/0uQTnwX+iR9v7jIdagh4wqOTX2P8r/Wrz61dZQpR0dHRir2MCCHo1KnTc0sJnpdiY2PLZBFIJ+e9e/eWyjNDQkKsGuOGDRvCycmpRO9ctWoVzp07B0EQFN/z7rvvwtnZGXZ2dvDw8FA8XidOnFDEzHs1rAOtWg1iSgPCqOg6uyfwhkUMhb+XB04seBN7Zk/F2cXvoHm1SsUma/s74gKabZuCyutHwX/jy3iSlWhxoh9dqzvseLXMcBljeJyZgBU3duJSXDA67JqJ6aeWie6orCAphWH59R3gCQc1z2Fw84ZFjImIS0ajgIXbD4gBpglJiElNL/DZrnZO8LB3zff91YRQtN35OjIN2aLkRCSw4NCogj+CxvwGD3tn+RRbkLwh3ccYQ7IuA58Frre525YSn1h1ay8+v7pRGmgQQiBQAet7LYSaqJ5b28qMO+v1esTHxys+RVNK0b1793IhXURHRyMpKUkxE877UXJC//jjj5GZmVmidhqNxgJTaBS1EFu3bl2iMc7KysLSpUstnlmc5FijRg3Mnj1b/rt58+aKPaUiIyMVpUd3c9DirT6dzYtKAAB2Xrpm8R5CCHxdndGosh/si0nrThlFaEoUXjq8GLeSwiBQAVEZcfgmaKtFv9W8CotbTTK9h8iqqQUX16LLnlm4FBcMy1p8efpKGWKzk7H29n4wAG/27gwXk+2lsCGiAI7cDMHSfUfR7+s16PPVKmwLCFJUKCog9jYGHfgACdmpZu1h4MChS8WmODtiJRq510Dw2A1o5lmrSNWH5D0lMAGfX92IwLi7+P9SxFPKiixJeKXlIHMg4jzmX/wZBmoEo0zOmrmt38eo7uz3XHlkmQAGpRRnz55FVlaWVd47LVu2fP56Q0qxd+9eqye/SpUqivtJKUV0dDQ2bNjw1IuMUoqbN28iKSlJsdqPMYZ27dqVaDG//vrriI2NVWToltr53XffyW68jDH07NlT8TsNBoMiYCWEYGTrpqCUWjiJ+rm7Ftq2wkDKQtLMSoaOGkwpN8T+fH99O0JTcrPxEhB80GIcKjp6yO6rAJBj1MFIBYt0HbnaHLOYCY7AReOAawn3QIhoaxnZulkRTNoUBwLgz7OXQSmFzmjEp3uO4Ep4VJGgYaQCXjm6BAm6VNmOIpaH5TCgWlscHvQ1HFT24Dke7nbOODPsBzT3qo2ieJSUMZcjHKac/EJUcf0HTvmWeza3aqPeaERyZjaepKTifmw8bj16gssPo3A29CHOhNzH8duhOGH2ORV8D8mmDMfFvfNqQihePvoJsow5pgSR4loZU6sHRtTo8twP1GUm2+zYsUOxMVa6ztvb+7mXFCWE5MuSqqTtGzZsQO/evWE0GhX1meM4rFy5EtOnT3/qmhRHjx4Fx3GKDdiEEDRo0OCpxzghIQE7d+5U/D6O49CuXTsMGTLEog0dO3ZUnC7eaDTiyZMn8PT0LPb6Co4OeKdfN/x25iLs1SoMbNoQHw7tUzz4Mgq9YESmMRsV7F1k9QtHOHSu2AStveohMC7Ewt115a3d+LHzbPlvgQmYVK8fvriyEYyRPPBg7hUl/ZuB53hoeQ2G+3fGqi5z4KjWyifXMe2a48+zlwqthcHMMtxKWXMFRrH5/BW0qlH44cVAjUjWp5uBCgNPOPSr2hb7BnwhMyip/wZqhB2nKVZyYaZgyDtJEVh1aw8+aDHuhQMIBjHiP8dgRKZOh0ydAQnp6QiLT8L92AQ8iE1AREIy4tLSkanT5ZMWzfOoibw+N73A+E6tsWhYn0LVn4wx3EkOR+sdr+XyTZMnWi3XStjce3G5GKcycasVBAE1atRAdHR0scxFUk3Y29sjKSkJdnbPt46xTqeDl5cXMjMzFbfd09MTUVFRGD58OI4cOWKVG/Hq1asxbdq0p7Ld9OvXD8eOHbNqjOPi4uDo6PhUKkYvLy9kZGQoli4AICwsDNWqVcu3PlxcXJCTk1Nk2yVX3O+//x4zZ860eoyUAuPhyABMPL4UCTmpeLVef/zeY77FMw5GXMTgvz8AZNUMg4rjEDVxN7y0ogSzMfQYpp9aZnJNza/Jz40yF4GCA8HwGp3xa495cFRp83tkMYb3t/6FA0G3xfVU6BjlihwqjsOBua+hhmeFIvv9zbWtWHhhLagpNmNQ9fbY1W9J/r0g6NFs+1SEpjwCY7RY64QUd6ImHMIn7ijTUqEl0yIwqSIvDEYBOQYjrkU+wj8hD3A29CEiEpJloCby4UeUCRnMsgAgtxCWQBlUHA8Vz8FerUIld1fU8fNGbR8vVKrgim71a8NBoy5S9dlgyyQZ/KV3O6q1iJy4Ha4ap3Khri8TCSMrKwuJiYnK9WIch86dO5dJqVBrKSMjA3q93qq29+vXDxzHYd68eTh8+LBV71u5ciVee+21p2rrw4cPFS8ijuPQoUMHODg4PNXpa/PmzcjMzFSsQuN5HuPHj0flypUL/M3NzU2xY8HBgwfx5ptvPpW0WJxksfXeCUw++SUEU0DUptBjWNx6Eqo5+cpA27dqazT3rosbCfdF91lGYKQUn1/ZgI9aTUS3ve8gNCVSTNZnJkFYgAXE2BHKgJ6VW+C37h/A16ECeFJ4Kc1X2rfEvsAbxfZDMp2snzEO1Tzci71+TtPRcNM4YfHl3zG+Tm982W5GgWBRZ9MreJSRkOsCnCvToCAnY0k1ZWACpp36CgcGflVuAEJyxRYow8UH4TgQdBuXHkQgOTMLOQYjjAIVr2FiGngGsWyvmP8rt36IeXldd0ct2taqhg61aqCVfxVUcHSEnVoFjUoFNS+mrqFMVJHmdQU3X4PRGfFov3umWDaYUXl8CeGwuuscuGgcy43bsqo8MF0AGDx4cLkxeBsMBquM9UOHDgXP8+jcuTP69Okjn/qVpJMICQnB8ePHrQ5WFARBtiUoZfq9e/d+KrCIjIzErFmzFNW5kJiso6Mjfvjhh3w1RuTN5u6OmJgYReN77tw5GAyGfAF8pUGHoy6ZakOIfTJC1PGfHbFSVs2oOBW+7TATPfbNNuPQwLqQQ9j+4CTislMsFE7MjMXCpOZgABpXqInV3eagnU9DRWDXqLIf/NxdEVuIB5S5emrR0D5oUb0y+ALWUF5JiyMcpjUYhMn1+osxSHk8oBKyU9Bm1+smsGC5DAwAISYVKCmgVKCZ3u3ko6sITo5AXbcqzzxewLy/OQYDzt8Lx4nbobj16AkiE5ORpdNByusl1/QF5JK8hEj2JU4sMEUIHOw0aONfDR1r10Djqn7wdXWGp7MTVBwnzjQpGMj5IvpOGUW6IQs99s1Guj7LDCzEtTOt/kCMq9Mb5YlUZTFZAQEBVkVIU0rRrVu3UvWuMHelVApElFIcPnwYHMcpchmVvH7atWsnv2f+/Pk4cuSIhX2jOMY/d+5cXLt2zaq+Xb58WVYPKe1bx44dnwqUP/roI2RlZVl1z5IlS4p0361YsSLu3LmjaOOnp6cjKSkJPj4+JTpUmJczlRjnF+1ew84HZ0CpXmZ/V+LvIjw9BjXMPFLa+zZENWdfRGXEiRubARmGLNEtVapelwcopJZWcvTEZ22n4eXaPeXobyWk5jm817873t/6V9FriRBcfBCBCZ1aW4zdoRvBCAp/hAHNGqB5tQIkPS4/mD9IjUbvv+YgMiPOItUKRzjUdKmICyNXo87mcUjKSUNBkCGNsZ4aMfHEUlwetfaZggSlDBGJSTh5+x7+vfsANx89QXpOjjwjuWOYv1KjuQDlpnVAm5pV0bGOPxpX9kNNH0+TVx2T56Kka1EnGNBlzyyEpceYgbB4wGjjUx9fd5z53G26z0TC2Ldvn2KmK6koIiMjkZycXDqdUqmgVquh0Wjg7OwMb29vaLVaBaI9sTo+QnqHNLEdO3ZEmzZtEBgYqMg4zBhDcHAw7t27h9q1ayt+7/bt260aY0D05LJmATLGcPr0aWzevFmR26AEmg0aNMCsWbOKfG7jxo1x8uRJxZJYfHw8fH19rV4L2UYddj04gyVX1gMM2Nb3YzT1qCWPQSVHL7Txrod/H9+Q3yeAYsKxz3Bm+I9QmVRGGl6Ntd3mov/+98XriBmDJLncRlY/QTxMTG8wGEvbTnsqHTQxlYllpuCLgrLZMgZwUMsl6AAAIABJREFUhOHs3QdIzMhCBUctGID1/17Cl/uPgzKGPYE38Ofr49GgUtHj9yA1Gt33zRbrQ5slFeTAoYVnHZwathwaXo31PRZg5JHF0AsGWa+fV8SgjOJGwgNEZsSiqpNPmUsSYfFJuHAvDPuu3kJQxCOzwEdmqp1OLJJRmksB5qnlpaJV/t4eWDlplDzGufcQRerO4tqtpwa02TkDwckRonRrlhTTWe2Azb0WwVntgPJGpW70NhqNqFatGmJiYqxiMmXpu21vb48xY8bg66+/LtLbJjMzE66urlYZratUqYKHDx9aqJMCAgLQvn17uV9KYhVq1aqFO3fuKFJLUUpRr149OUusEhWRRqNBUlIStFqt4nEzGAxo3749rl27VuyYSBtIpVJhz5496NevX6HqKEoptm3bhgkTJih+7vbt2y0SHSqlt/5ZjtW395oiZTk09KiBgJFr5JM+ZRR3UyLRfPs0GASjHKsNACGvbERtV/FkbqBGLAlcj8+vbijACyoXKMAAFc+jcQV/7Om/FFWdS84sp/+6Ff+E3pd9/gtSfRBCMLlzW8wd0AObzl/B0n1HLEK07dVqXCmg7rg5vXric2y4e8SiZzzHo6VXHZwausKUGVdcn33+eg8nHl0ptLIfMUlwjT38EfjS2iJtNU9rl8jQ6XAj6jFWHD6Da5HRJnAjYIRZAKqFrcekhpLsCj4uzsgxGpCUkSX/xiCqkno1rIPlE0aY1E6lR9lGHdrteh13kiLM7F4sV3swei1aetV9pllolVKpjgRjDLGxsXjy5Emxum7zeySmUZofc8rJycGWLVvQv3//QtsktZ1Sqvj0QAjB4MGD833fsmVLxdHMEgMNDQ1VnE49KysL0dHRiseY4zh069YN9vb2Vs3l559/jqCgIMXqRY7jMHz4cAwcOLBQsJDGrXnz5ordc3mex9mzZ60+VDDGsPPBaYCJ0dQGKuB6wn3sefiPzOQ4wqG+e3X0qdLKjMMQ8ByPOedWQmACYrKS0HDrRJPLLPIBhXk2WDuVBr92n4cro39FFSfvUtlX34wbBq6YrcoYcOj6Hfxy+rwIFhZqFiLX+ChSAnX2hjnKqDgVGlfwx/kRq2Cv0shgQRnFbz0+QNH8TJQyrifcx4PUx6UGEpQyxKdlYOGOA2i56BtMXrsZNx89kQFBLllbCLgyE3iOatMMZz6chdMfzsLF/82Br6sLCEfkRF8CpTh++y4W7fy7UNfmp+GPRiqg11/vIjg5EgK11A6oCI8v2s9Ac4/a5RIsSh0wCCGIjIxUzMjKWqdpDh56vR5Xr17Fw4cPC2wbIcQqJixdN2bMmHwAw/M89u/fb5Wthed5vPXWW4rukZwKrGnniBEjrBo/g8GA5cuXW7mhKT799FNF0lnt2rXh4uKiCJwZY/j333+fSg0wo+GQfAx+xY2dFhuSMopP20w1M/CKDONgxEUsCfwTdTa9grC0GNkwzsxC3sxPrsP9O+PJq7sxoW7fEqstzMlVa49KFdws3pkXLACGxylp+O7QaeRvHPD1y0Og5ove7otaTsJw/86yLr+tT31cGLnKDBQhg+zYo5/IqrLCdPRgooSy4MLPJeIHUlXEqxGPMHzFb+i29EfsvXJTru0hqc+KewUBgbO9Hc589DY+HdkfXs5O8n1/z50BbxdnETSkNO6MYfflG/jm4KlSy1g99NACXIoNEZMJynYv0UbUo3ILzG8xrkDb0n8SMAAgKCio3HXSfLITExMLnHzGGP755x/FnkqSJ5Bk8M77W6tWrWSduxLGIQgCTp06hcuXLxer0798+bJVwXoArEq7whhD3759kZaWpljlRQjBvHnzULduXUXv4XlesRFbSuOekpJi9cad1mCQhcqEMoqA2GDsDfvXIs13U49aGF2ru+xaKbGYzwL/RJagF68l5o6lkh8NgT2vwbGh32FT70Vws3Mu9dMhpQyTOrcWn0uKmutcF1uplRwBPn9pIPo2qV/sWGt4Nf7ouQB/9voQv3afhxNDvocdr8l3X+sdr+FCzG2gUAjL/UmgFHvDzyI4JeKpJESjQLH/2m0M/e4XTFizEcGPY2Cg1MxjL7/aiRDIAXKcKRulGHfBkKnT460/dsBgZvsjpiJWG2aMh6tWa8peDRk0fjt9Ab+fCSjxPI46vBhHIi/LaqjcWA6Cxh7+2N3/M5R3KnWV1D///FOkOuJ5A4ebm1uhG+fIkSNWqaN8fHwKjdLmOA6rVq1SBEDSRuI4Dt99912x1+/atcuqMVar1YoipaW2BAUF4fz581adnFxdXTFnzhyrmEKlSpUUS4rW5s2S2lXZ0QsftBgnZ2CFyUi7JHB9PnfP95uPNQGDpLwwnf8Yk/8iICDMBBcEmNJgAB5N2oWelVta5QFl1SblCMa0bQ4PZ8dCPVktGKfJE0zFcfh+3AiMaN3UIsLYMu2F5XOc1A4YX7cPptQfCA2vtrgnRZeB5tun4mp8qIU0Vli1PnNw/e3OAav6bBQodgVex7Dlv2Leln0IfhwLSoXcvE0oACiQWw+lURU/fDVmMJpXrwxOMkyY5jAwLBLvbNid536Cap4V8POU0bBTqXI93Uz2obOhD0s0h4P/nm92SDE5MZgArYqzN3b3WwItb4fyTqUKGFIOqfKYfExK7e3nV3DyrvT0dFy9elWxvp5Smi+COS9gDB06VD5xFwdEki1n+/btCAkJKbQNRqMRhw8fVuz2CwDOzs6Ko7uzsrLQp08fOcWJEoM0IQRr1qyBl5eXVWqYqlWrKpaUGGO4d+/eU3kazWo8wsy4KDKV6wkPcDTqcm7NCkLQwrMOuldqIasEJJAwPwlKAXiVnDyxq98S/Nx1Ltw0TmW+fjUqFbrUrQkQguKGgBACNc9j9eSX0K9JPQuwoIzh5J176Pf1Gkz9dQuSFAZjxmYno8e+2biVGJarkGNMLvcKsEIz2jIw/Bb8N5J16YoOBxfvh2PEit+wcPvfCI2JE+0SEAPoiiIVz6OVf1WsmvQSdsyajGEtm2DlxJGoJkW+m0CVAjgdfB/vbdmbT0JrWrUS1k59WSyehdx927tx3aeaN4EJGH7oQxyKDMhVnZnPE8djU69FqOFS8YWoKVJqgCEFeD1+/LjUqtSV7imNQ4MGDQqsZS0ZnZUmS5Q8m3r27Fkkw6OUYu7cuVaP47ffflvg4mGMISYmBnFxcflOikW1tVu3boqi6BljWLVqlZypV+nzfXx8MGTIEKsWPGMMDRs2VAymJVF3+jl6YEr9AWZShqiamnryK7nqnJEK+OnWHpyKvmoyRhIL3bdZBnAM8++Emy//gWE1OlsV51Oy/QVM6dJWLOxU5IXieC0fPwJd6ta0aBtlDLsDb+CNddsRHpeEc6EP0fOLn5CpKzrINtuoQ/d97+Bm4kMLrx6O41DbtTKmNRgkGuULdSgB0g3Z2Bh6rEi1273YBLyy+k9MWLMRd5/EQebwrADVm9n/S+Tr6owfxo9At/q1xDrnHIGHkyP+eO0VeLs4m2vKwMBw6HowFm63lHw4QtDGvyr+eG0c3B0d4OagxeejB2FsuxZWz1m2UYeBf8/H/vDzFmAhAStjDGu7vY/2vg3xolCpShghISHlEiWlNhWW9I7jOISEhFj93L59+xYLUpMnT0a9evXyVfUrjDESQrBx40bExcXla6u5U4E19PLLLxd7kpdA84MPPrA6rfvVq1et8sCS+tqoUSPF1/M8j5s3bz7VQYSA4LfuH8BRZW+RTTY6Ix43Ex9AYBTjji/B7LM/ygoWS8O2KFVoeTscGfItdvZdAhe14zNew0BtXy+09q9sGvdCOwuO43D0RogFnxUoxf6g21iwbT9gMhRTyqAzGnHkZohsWM63LhjFtYR7CE2OgsAEGSx4wqO6iy+uj/kdH7WaKP5GCq+bQQD8Hvy3RXyHBGJ6o4AVR89g4Dc/Iyg82hQPIeVsInm7J2dx5ThiESMRlZSC4ct/s8wKTAgqurtiz+ypUKt4Wc0oeULtDryBP/4JsOg/Rwja1KyKix+/i4CP52BEq6ZW8zUjFTDi8Ec48ehKHrAQPzzhsLDFeIyv2+eFqofOlSZTvn79uuINXVAdibL6AKJRuUuXLoWe3AMCAhQbvDmOg4uLC5o1a6bonnfeeccqjyaDwYAFCxYUmJAuMDDQqnlRq9Xo3bt3se2UjNY8z1u1OTp06AAfH5+nWi9169a1alxKWgVxmH8XELPNSQhB/wPvo/HWV7HrwRmzjc0sJAuOcKjnXgVRk3aiZ+UWFoeQZ3z0wZi2LWEq7VwoaAiU4q+rN/EoMUV2Rd175Sbe37zXIjqbQcyt5O/lWWiuI45waO1dH3Xdq0JlstHwhEct10q4PGot1JwKlRw90bVSMwsJriAJ4lZSGA5FBFi4k14Nf4RuS3/AzyfPywcXFPIUyWLCEQ7uDg6o6+sN3qLdDAkZGejz5Sro82SN9nR2xNlF78BerTYDNVGKXnPqfD7bvWUNlYIl3qKk4aGHFuBYVKDcV5ZnTLtXaoFP204tt+6zz0QlFRAQAJ7ny20BFSm1d0F0+fJlqwIIa9asqRhgJkyYgMqVK1uVK2rPnj3Izs5fV+DMmTOKx5jjOHh7exeohstLW7ZswYEDB2TbiBLPKDc3N+zbt++pDxjVq1eHl5eX4mDF6OhohIeHP/X6WtlltpjITZYigMeZiQhNibJwmZWsFbwp+9x3Hd/E1Zd+g7ud83M9DRIC9G5UB1VNCQZZ0ZopbLpwBRxHsObkOczftl8KyTBlWBUZ1YdDeqNxFb+ibQMcj3+G/YA6rpUBMLT2qYeAUWvgZuck1wff1W8JVEVVgjNJDd/f2G7hNrriyBkkZop5lKQMsqwAFRQgRtfba1RYPLwfTi58CztmTUY1jwpitLnJ2E0pQ3RyKsav3ghdHtBwc9Bi9ztT4Wgnen5xRJT6Pxs1UDHbpowiLicZHXbNRIvt0xAkOwDkagh67puNIxGX5NxQss2CiYeQ5l61cXjw1y+UZCGvhdJ6EKVUNhorVRGNGDECy5cvtyq9RUmosHrhGRkZuH37tmIDrBRprZS0Wi0++OADzJo1yyJnflEnlNTUVMydOxcrV66U7zEYDIqdCiTwU+KJlJOTg0WLFik6QZnT1KlT4ebmViKptGbNmkhKSlJ8KLl69SqqVav2VCd8Z7UDhlbviD/vHrFQEJifuAkj4s4GUNOlEtb1mI92Pg3LjapVo1JhVt/OeH/LPlnKMJ8u8zoXWy5cgc5gxKbzgfm4N0cI5g3uhQmdWhfgQZVf5eWpdcPV0b/idlIYmnjWzBe57WHvCg+tC2IykwqM/JaKPl14chuxWUnw1roDAEa1boqABxF52l4wWPZqVBcLB/dGJXdXeX3vfGcKhn7/Kx4lJVuoua5HPsKCbQfw9dihUPG5zhm1fLywfPxwzN92ADl6PRYO7YOeDepA6fSGpT1Bq52vIV0v2jtHHF6EcyN+grfWHRwh6LbnbZyLuSWn+zBXbRJCUNO1Ig4NWvbCSRalChiMMYSFheHRo0dWqaQ6deqkiKGVti0jL/MPCgqyyuBNCEHbtm2tyss0ZswYLFy4EOnp6YrHaNOmTfjpp5/kMY6IiJDjSJQ+o7h2MsawePFiREREKE7lwnEcqlWrhk8++aREjFRSS126dEnxPVeuXMHIkSOfbp2CYUnbadh6/yR0gt6CsckV8IgYbNarcits6/MxnNTacmeX616/Npzs7JCp0xXqOcQYkK03YMuFKzLDNZUIAs9xmD+oJyZ2sizXyxhDfHomYlLS0KRqxfxgxavRzCt/FHKWMQcDD3yAmKykoqUeBuioAQsursWv3eeBIxz6N22Abw+dQmxqOkCYeQhMbiJZEzCGxSVCo1JZeOc52mmw4fXxGPvTesSmpoOCyhLHwet3UNXTHe/262YBPF3r1cLJBW9CoBRO9nZWrZ+FF39BliFbVl9Gpsei/4H3cXjQN+i7/z3cSY4wi9lhFokofR0qYE//pahg5/JCeESVmUqKMYZz585ZfV+7du1kZvasbBkFqW2epu2dO3e2SjVSoUIFfPnllxaLvajxZIwhMzMT3377rfye27dvW93Ovn37FtnO2NhYrFmzxqq+UErx+eefW5WXqjCqW7eu4iSNAKzK6pv3fiMVsCjgV+ipIc95Wzymc4SDg8oe33SYib8HfgVnjUO53NjO9vZYPLyfRaxAQSd66bQtxycwDiqOw+cvDcwHFtTkztr98x8x6sd1mLJ2s0Vwm8VYmVG6Pgvd976DszE3FacC2v3wH+gEg0li4jGmXQsz92bL9xBiquYH4EFsAqb9ugWJGZlm9gACPzcXrJv+CtwdtXJwIzPtseO3QguW+jXqIsGisL408fDPI9Ex3EoMQ6X1I3EnOdxMDcXkdUUIg7PaAfsGfI6GFWq8sGBRaoDBcRwuXLhglXTh6OiIxo0bP1WludImqe1KJQwPD4+navvo0aOtVvPNnTsXaWlpAIDAwECrxtjBwQEdO3YstJ2UUvTo0UMujKTk2TzPo1OnThg8eDAyMzNL/CkqlqWgPj2NlxgAUFB03fM2Nt47lqt2sYit4OBt74YbL/+OWY1HlutNTQjQr0k9aDUa83IORZ6MpfvWTh2DoS0bW/RPoBSXHkRi0s+bYBTEqIcLD8Lxwda/ijbwgmFhwFpcS3hgyreUG49BCrmegSHDkI0dD06DMgrGgMHNG4r2BBOn5zkOXs5OaFDR1/JJBAh5HIspv2yxADOOEPh7e2LD6xMskitSStGtfi3r1wqj0FODmVdYLojNa/EKKjl5mYIBiUX0PzUZiZjs25Vbk/vE0O/R0qsuXnQqNW4tZVpVynSbNm36VNXfyoLu3btnlYdUixYtniqAzNXVFZ999pmiKG2JgXMch7/+EushBAYGKjZ4E0Lg7+9fqMGbUorjx48jNDTUqn4IgoCAgAB4e3uXymfKlClWSQlRUVHQ6XRW3ZNhyEaNDWNwOT7EzGslNzSaEIKB1dsjdPwmVHfxeyFOgBpeha/HDslN4V3kWhDVUFvfmoT2tapb2CwESnE29CEmr90sGo1NEolAKQ7dCEaW3lDks6My4sHMXGVJUYWV5DmheP30N2J6dAJUqeCOIS0ayfaYAU0b4Nj8N7D1rUmo4+udmy3WFJIRHB2DiWs25QPR2r5e2D17qolxM7zbvztm9+tqtST6xZWN8Fs3HFXWj0JiTqrF72pOheBXNqCqsy8sQztz/8kLMvv6f4HmXrVfaMmi1AHjwYMHihknpRRt27YtFwOYkpKCiIgIxQZvQRCeuu08z2PevHlwd3e3KuDr7bffRmpqKq5cuaLYqYBSioYNGxa6KRITEzFy5MhCM/wWRQaDAVlZWcjOzi7xx2rmn5EhZ9BVcn1cdjKabpuMx5mJJucKkitdcKJx99du87C9z8dwUju8MMZIjiPo1aguKldwB4prsylvSEU313wG7iM3Q/D679shMCqChZSlnQHTu3UotA61xMCXtp0GIxOg4njwhEM9t6roU6U1UKicIZ7IcwQ9ghLuyQ+a3KUtVByHdTNewbKXB8NBo4GdSoUtb06En6sLeDMgYmC4Eh6JCas3wChYroO6ft4I/PQ9/LtoNmb06FBkOveC1su8C6uxKOA3pBoyEZudglY7piM2K8lif9hxaixsOd6UqLCgHkpV+wj+6LkA/aq1eSE9osoEMBhjuH//PuLi4hQzXQBo06bNc++8dMpWWk5WYvAtW7YskevwxIkTFSfdY4whNTUVn376aaGJEwtra1Fj/PnnnyM7O/upEsKVxccaSe3UqVOKrg1Le4Lef72H8PSYfDmiOELgqnHCP8N+xOT6A2DHa164zcsY8N0rw6BRqcRUFkUE81EwjFm5HilZuXO+8/J1vLtxj6hOMrm1Spn6JnRqjVm9Oxe5TgkhaOBeHedHrEInv0YY7t8Zx4d8j7nNXy60gquUg4ojHOaeXwWBCWL2Yl8v7Jk9DZ3q+ENlYvKSUXvfu9PhqtWCEE7O7QQAgWGRSCmgEqSbgxY+Lk4W4Jh3DRdGm+8dlzUljFFEZcRjxOFFSDeIrr+UUay98xfePbey4KzXyPVQXNJ2KsbV6V3qtUBeeMA4cuSI1YynqJiIZ3dK454qjsAal9qC3vnJJ5/A1dXVKinj+++/t/pdrVq1ygfijDHcvHkTK1asUFSju/wxSWVZhSPSYzDk0ALcTg4zyy6RWy+5vW9D3H1lAzr4NXphNy8hQJOqFdG/SX0omcEnKal4c/1OxKalY9O5QHy04+9cJk5yUwiObdcCi4b2MUVGF8xor0dG4+SdUPFg4lMfJ4Ysx7Y+H8PXoQK6VWyOhu7VwXGkUImNMoYLMbcRGHcXjDGoeR61fDwLBCVHew0OzH0N7o4OADOVRwWBnVoNu0KSfxbqFQiGJF0adIK+wHtae9ezSKlIGUNA7B2MP/YZdIIBnwX+ibf+XYEsYw7yKgPl+B7GsLDlBCxoMf4/I1nIfSyNinuDBw/GwYMHFVeXc3Nzw6NHj6xOJ1EWVLt2bTx8+LBY6Uhqu4+PD8LDwxXlZiqKpk2bhnXr1il2ZVV6QpJASavV4smTJ/lsGHq9Hn379sXZs2chCMILBRZS36pXr16kCvRxZgI67p4p1qVmucdxYmJgrzUYjFVd51i4Pb6oxBhDpt6A/stWIzYtI1dtU1DwmykYwl6tQo5km8gNegYhBNO6tsfcgT0spBURcBkS0zNxPTIay4+cwd3HcSAEmN2vG17p0BJuDloIpuJjHCHYEnoc444vEdVbpCChh4DnOAyr3gnb+xbvni1QhrD4RIxb/SeSM7Ph6eSILW9NQhV3t0Kj1AuijwJ+xVdXN6GOexUcHfQtKjl5WYxlmj4T7Xe9gdDUR6ba7WJcDkc4eGndEJedLO+Z/GAh0nvNRmNZ+zf+EzaLMgGMmjVrIjw8XBHT5XkeQ4YMwc6dO8vFgHp4eCA1NbXY4EFCCFQqFUaPHo0NGzaUuO0JCQmoWrUqdDqd1WqZ4kilUqFly5a4cOFCPj/7X375BW+88Uapv/NZEc/zcHV1RWJiYoG/6wQ9fNcNR5ohy2SMzXVjVnEcNvVahBH+Xf5zJ7/TwfcxY902MMqkRLKFaadMUeK5wCKByYdD+2Bip9YyMzQKFAZBwIV7Yfj1zEVcCYuSY1XMU5czBvj7eCAlIwvLxg5F57r+SNalw+ePYWIi0gJD+SDX3T43/Ce08alf7JwwxpCtNyAwLAqd6vibDhAKa7yA4a0z32Nt8AFQSsFxHKo6eSN47IZ8adzjs1NQfcNo6Kgx3xpieYpoWYIFw/wW47C03fQX/iBSpoDh5uaG9PR0RYABAGvWrMH06dOfO2A8efIEVapUUVzDGwDWr1+PCRMmlMr733zzTaxevbrU1UIcx2HmzJn48ccfLb43Go3w8/OzKhtteZQwOI5DfHy8RZQ5YwzJunRUXj8SOsFgsaF5wkFgDA/Gb0E1Z5//HFhIKp7vDp7CL6fPS1VmoXR6pW3oYq+Fq4Mo9adkZUFvpDAIRlBTjIpAKThCQM1TApoQhzOpVxtW8sOOWa8CBPjiyib87/JvEARmUWfbnNFyhKBflTY4MOgr5X2lrEigyBuoyhhDmiETbr8OFGt+SwpKRlDTrRJCx23Kd3+iLg3evw+VPbdYIUo/WX3FGD5tOxULWo4H/x9cX/L+K+kDIiIiFEcvS5PYunXr5w4WgiBg165dVrejSZMmpaZKmDNnTumfAEynoHbt2uV739ixY19osJD6wRjDqVOnLKTC2OwktNw+TQQLZp55lENzzzqIm7wXNVz8/pNgIfaT4M3endHKv5qcZ8raLZaWk41HicmISkxGWrYOOoMBVKohYTKKU5NBSK6bbZIwBMogUIrrkdEIDIsCY8C0BgPFUqRFWFgoozj2KBCnoq/my2Rb+KEhv4r2u2vbUPGP4ai58WVEZcZZPIsQAme1A7r4NTHNf25G4gep0Wi4ZSIyDbnOAIQQeNi5YGajYbmh5kVIawDD4tav/ufBosSAQSmVYwSsIT8/vzJnWEr0/Nu2bbO6HaXVdilO4o033iiTmgr169fPFZ8ZQ0hICA4ePGhV+yS7zbP4WDMGhBDs37/fwvC9KfQ4IjJizRLsic+bVLcfzo9aBQ97V/zXSatR49epL6OapzvkqhlEyV7J/VBYZrPNXUPKJBYCgu0BV0EAeNi5oIVnHXF+C1ETAQRGKuDdsysLBXNWqFJLpGVBW/DBhZ8Rl52CyPRYNN821ZSmxPLgcGrYCtR2q5TrPWVSzd1NicLYY58ix1SKN0WXjgknlmLNrX2FvlVaX4wx/K/1q1jcetJ/HixKRSXVpUsXnD9/XpFah+M42NvbY8WKFYWWNi0pOTk5wcXFBb6+vvD394ejo2OBjCg7Oxve3t5ylHNxDIrjOPj5+SE8PLzUStBKVeTMva5KCkYcx8HBwQFPnjyBk5OTLE01btwYd+/etSqiXa1WY9GiRfJzyhLcFy1ahOzsbEVqTUIIqlatigcPHsigcTgyAAMOzJM3s4rj8UX71/Buk9H/SeNjUczfKAgYvfIP3ImOkWMryvJ8RoilesZOpcLhea/D180ZEemxqLd5PIxUAEXBainp3tXd5mB6g8EW+n+9YEBA3B34aCugjluVgg9HmyfgXuojU8ZhUX3mrXXD5ZfWoqKDZ27CTzBkGXRovXM6QlMeyWk8pPdPqNsXMxoOwWunv8ad5HB5zPLbK5hstP+mw8xynxmg3ACGXq+Hh4eHIqZrrpJ6VuTk5IRZs2Zh6dKl+X6Lj49H5cqVYTQaFRvrZ8yYgR9++KFU05kwxjBmzBjs2bOnxF5LkmG+a9euOHr0qHwC2rJlC8aPH68IlKQ5koIMP/vss2cybz169MC///6raAwkL7DY2Fg4OjqCgSE4OQKNNk8EIRzc7Jyws98SdK3Y9D+rgipa8henEI2hAAAgAElEQVR1+BNW/4nLYZFgZhl4SxM4pPKsUt7fyhXckKnTIzkzCy+1bYbPRg0EADTdNtlU2rVw4zcYg7OdA8ImbIO7xhmEEKTrszDjzDfYdu8kQIDDg75G7yqt890//vhn2BJ63KLOOM8R1HatjH+G/QhPrZuFCuxJZiLa7nodTzITTMWUiBR+ImZXIJxFTihzFZS0R+x4DX7v/gFG1+r+/2qNlainOTk5MBgMVuufy/ojUWZmJr755ht88cUX+UDh3r17MBgMihm0IAgYNWpUqTNPQgi+/PJLGI3GUgFVSqlcCVAq6aoULPJKVNaWly1Jm7t2tS6Fg16vR2Zmpsxwqjh6Q82rYa/S4MH4LehWqdn/S7AQAVU8BW+cOREvt2sB8XxjqhkB620bRUkUhBA42WnwyYh+OD5/Ji78bzZ6NKiNk3fuQaAUAqX4ou1rRRupTTmXsow56LbnHRFYGMPbZ1dg272T4t+Uod/+93Huyc18sLOx10foWbmlWCbWFJgpUIp7KdHof2AeDNRooZryc/TAyaHfQ82rxYJaUr0Nkz6OMion/bCULIhJeuVwcujy/3dgUWLAiImJsQownp1YngseBoMBy5Yts2CUlFIcOXJEsWpJkjBatWpVJqftGjVqoF27diWWXKSUIJ0750bovv/++4rVf+a1Ok6fPi2nMClzMZcQ9OnTR3FdFMYYjEYjwsPD5e+cNQ6YVK8fkqf+DVc7p/+sW6M1YwoAi4f3w8G5r+em+CCwKGtqHUiYVD4mtuHp7ISVE0ci4JM5eKltc1lduHLSKPw2bSxWHPkHPMehf7V2aOFRxyzZY4FvgEAp7iSHYcnlP0EIwZnH13LbaSrk3WPfbATF38tnID84eBk6V2xiVpyJQGACriaEotc+S+cSjnCo6VoJQaN/s3CTZYSBkfwm7lw1FOCotsfjSXvQxrve/8sDSYl6bE1Z0+dJqampFuk/OI7DyZMnrXqGRqOBRqMps839119/Qa1WlwqD9vPzA6UUJ06cwObNm2XpRWmVvvr16z/T1C2EEMV1zyXieR7Hjx+3kBzXdnsfGl79/x4sLMaJ4+Dv7YGAj+fg21eGwcfFOZcNmtQwhDALAMn9HuCI+AwTVwVPCMa0a45d70zByQVvoWfDulDzfO41pnfWr+iDt3p3lkFqYauiXdEldRJlwCeX12H7/VN4s9FwwKKcqlgru89fcxCdmWABGirCY++ApajvVtWUioPJUtXZmBvot3+uhQbiZuJDvHL002J1dHI2Y8KhfoVquPvKJnjYu/6/lV5LZMN49913sXLlynIdMUwIgVarRUpKihydrdfr4evri9TUVMVGVn9/f4SGhpbpibt9+/a4dOnSU7u9chwHR0dHxMXFgeM4tG7dWq4kqMSwL41VaGgo/PyebdZWnU4Hd3d36HQ6xTalDh064MyZMzZUsELy1hsFXHoYiWO37uLi/XCExycAhDOPxJNBg1IGRzsNavt4oZV/VbSrVQ3NqlaCi1YrnritXB89972L09FBZl5YBRjBGUA4AjtOjT97fYjLcSH49to2MwO1+N5qzj64Nvp3sWYJciXjFH0GGm6ZhLjsZLnsrmSkfrl2T3zVfgb+d+l3bL1/EjmCvkDDdi5QSBIJweDqHbCux3y4apz+XzlRlCpgDB06FAcOHCi3fv2SLr558+a4dOmSPNHJycnw9PRUnJaD53m8/fbb+Prrr8tMomKMISgoCB06dJClIWuT8vE8jwEDBmDPnj1YtmwZPvzwQ6tSj3AchxkzZliUhX1WRClFxYoVER8fr6jNksddXFwcHB0dbWjwFOuNMSApMwsP4xMQn5aBTJ247tQ8jwqODqhYwQ2V3V1hr1aVeD0wxnAl/i467J4Jo5TDrND4BpFdcxyHpW2nITg5AhvuHrUADY5wqOzoiRsv/wFntYOFJ1RidioabpmEhJxUM0O4qVCb6Q3MJLEUCFqmf3OEgDKKj1tPxuLWr1pVYdOmkiqAnlUt7pKCRr9+/QplQEoWAKUUY8aMKdPFQghBixYt0L1796cGJcnjKjk5Gd9++63i90oMuHbt2vjpp5+e26YYPXq04r4zxpCdnY3Y2NgXNgjx+R+mCDycHNCqRlUMaNoAo9s2x+i2zTGsZWN0rlcTtbw9oNWUjpqUEIKWXnXxQfNXxHgFVngeL8mbijKK+Rd+xpOsRFR09JAZPyDa6qIzE9Fx90xkCzoLsKlg74JLL/0MdzvnPOouJn8KB4tcN1sXjSMODlqGRa0mKeYVNsAogiS9c3keTEEQMH78eIv2ubm5oXr16hZtL6z9hBA4OTmhTZs2Zd5HSim+++478DyvqLxsQSqlQYMGKYroNn8ux3HgeR6bN29+bocAjuPw1VdfyXYcpf1+/PixbSOXFDjyjHVB35XWu+a3GAcHlZ2plkQxoGFauiceXcWjjHiY18MAAQQm4G7KI4w8tAgCE8RKeYIBaYZM7Hp4xpQjilhIM+Ylj/JJNabCSzzh4edQAUlTD6B35Va29VVaKqmYmBhUqVJF9s6xph7Gs2JCWq0W6enp+X4LDw9HnTp15ERkkp4/73BwHIeaNWvi7t27z6zd+/btw/Dhw+XqekrVSq6urjhz5gyaN2+uCCw4joPRaIRarUZAQACaNm36XDcHYwy///47pk+fLhvAC7O/SDEmP/30E9544w3bTn6BKDozHv4bXja5u5Iio7jNczWJFVyZ+bfyb1VdfCAwAUk56dAJBtPaEVB4Yo/8kgVnSn3yfvOxWNp2OlQcb5us0pQwfH19cePGDUyfPh2VK1cus+jtkpzYXVxcCvytevXquH//Pr755hv06NEDfn5+0Gq1+VxtKaWoXr36M2330KFDERYWhk8//RTNmzeHi4tLsaoaxhicnJzQp0+fIo3cPM/DwcEB1atXx/Dhw7F161Y8efLkuYOFBAJTpkzBvXv38Mknn6Bly5ZwcXEpcF1J/Tt//rxNJfWCkZ+DBzb3XmwRNV3oupYkAmJZ0wR5gCAqIx6PMxJNhmwGQSFYEDMZxNfBA2eG/4iv2r9uA4uykDDybt60tDRkZmZaxGZwHAeNRvPcNrVarYaHh0eR7ZZIKhmat2yog4NDocBT1iduQogcpFZcOVOVSmURAEhN9QnMyc7ODvb29tBqteXaiCe1zWAwyH3PO19S+pIKFSrYdvILRpRRLLz4C76+tlVOIc7w7HiEubssA8O7TUfjwxYT4GbnZFNBlTVgFMWEn3sHrZz8wtQf5YGBPq8xKc99t23uF5cYY5j5z3dYe3u/rGoqa9CQay6a7Octvevg245vobNfE9uEPA/AsJGNbGQja+i98z/h+2vbzQoUlT5wiIHqBGImEAIvrRveaTwK/9femYdVVXV//HPOvcwgmKA4a87zRKLlkJpjT46ZZWUq+qv3dUpFwUrtLTXn1N4sxxTLcEwzzbTU1JRQQSVyBCcQB+AyCXc65/z+uN6TyL0IqKlv5/s8PPrA2Wefvfdae629ph3e4nUkWbojQ1yDJjA0aNDw+J40UPj27C8M2zsLk2xxeAXq/QgKQS1IqMNT78Y7DXoxLTgEvajXJl8TGBo0aHjSICsyN/IM1Fs7iCzzLZsPzsF1qEUTEvZ67gKiaIt8ctW58EHQIMY1eQV3nes/trSHJjA0aNDwPwOj1cS6hL2M/+1z0o1Zt7OtUSsmFpYdjqIgiLY8cXudqWb+tZnU4nU6VGxGaTcfTVBoAkODBg3/S1BQyDLdYnfSUdac2cXOy79jlSVVWIiCqPo7FMWWhGcPfvDQudGuQhN6V29D2wqNqe1X+XYxQg2awNCgQcP/tvBQFAzmbA6l/EFceiLnMpLIMOdgspoRBREvFw8qeJahll8lGj5VnSb+NdXaUlrtJ01gaNCg4R8IWZHvaU4qyjMaNIGhQUORYL+OV6fTPbB72f9OTdtqtap1v0o6dlEUH7uKDI9yTu2Vod3c3IovxGQZq9X60O7JeRyhiWMN/xiEhobStWsX5s+f/8RtbAcPHqRr185MmFD8a3NlWWbJkiV069ZVLXmvCQuFP//8k27dutKtW1cyMzOLPS9TpkyhW7curF279h8zb/elasydO4cjR44UqTBeuXLlWLToM23XekKRm5vL4MFv3S7o6MkXX3yBu7t7oZpbSEgIFouZiRPDaNGixWMxDpPJ9FheK3wv/tm0aSNGo5EjR46Qnp5e7HIoiiLfvsP+0RUI3bx5M+vWRSIIIhUqlGf+/E8f+dwajcYSF02NjY3BZDLz4487GDhwoCYw7oWbN29y+fIVQL4d9ebMwaQ8EXdnaHCujSmKwuXLl9UNLCIiguHDhztdc1mWSUq6gslkwmjMe8w24MdPGL///nvIssxHH32Mr69vgfl/4YXOxMfHU6dOnQJ/L+Ko78ikfjTYsWMHV65cQVEULl68UCLB97AEcknQpEkToqJ+p23bttoJo6gbiU4n0qZNO9q3fx5nuZmCIPyj7Hz/y7CXRl+/fh0vvfQSgYGBThlOzdjVLCCF8pAkSURHRyNJEmazuUB0j/2ek+7duz9xvhf7GJOTkzh16k88PT1xc3PDYDAQHx//RG+2M2Z8gtVq/Uf5hPQPYgOpVq0aXbp0KfQSoseJeO/ne+6nfUnb3tnuUYcKKoqCn58fmZmZfPLJjH+EmfHvmPOiaP5/l7B40OMVBIEfftiOJMm0aNGCJk2asnjx56xatYpnn332oY7rYa/dwxQWj2NYsPigCMJ+IY+jH2e3pxXl0iVnzyiKku/eB/u/zu6CkGUZSZK4desWGRkZZGVlYbFYCu3f3of9GVmWMZlMZGZmkpmZ6bDkdmFaZG5ubr6+79XWbgrKzc0lMzOTrKxMjEbjPfu785vt0TX2b87Nzb1vs8S//z0CFxcXjhw5wpEj0SWyAd/P2t/9zK1bt9Tx5eXl3fdFXoqiYDQayczMUN9Z1Dn7q+1f8+3se+zre+vWrXzvt9NdcedDURQsFkuBvm3vLhqdWq3WAjzyIMxYhw4dQhQFunXrTteuXVEUmT//jCc5ObnQ99895qLwuZ1HMzIyuHXrFpIk3YMm/nqn2WwmK8s2f/fyb9i/7c7vcPS74tK3PfqqOHvVE3PCKAlkWebEiRNMmjSJUqV8WL9+g8NnfvppJ4sXL6Zy5cosXvxFvr9PnTqVY8eO8vzzzzNhwkSuXLnCvHnzuHAhkbZt2xEaGppPSB09epSZMz8hNTVVDS90cXHh3XfH8tJLLzmU5lu3buWLLxZTs2ZNPv98MStWLOfbb79Vnaaurq707NmTkSNHFaolnT59mqlTJ3P9+g0kSUIQRNzd3RgyZKhTZ5miKKSlpTFmzGiSkpJUYtHpdDRv3pzZs+eoV7nejd69e2E2m1m6dClGo4l///tf6l0agiDQvv3zfPzxxyVev4CAAF5++WXWrl3L1KlT2bHjx2K/Y8CAV8jOzmbOnLk0aNAg3wVRsiyTkHCeESNGoNPp2LBhI97e3gXmJzU1lfDwMM6fT0CWJXV+nnvuOd577328vLyK/V23bt1ixozpHDp0SL1bRBRFGjZsyKefLkCv1zu8zMp+98i0adP45ZfdSJKstq1Xrx4fffQxZcuWzdfmm2++5ptvviEvL0813Q0e/JbtvmlFZvXqCAICApBlmQMHDjB37hyqV3+aRYsWOVz3n37ayZw5czCbTSiKbS7at2/PRx99XCSz4G+/HWTu3LkYDAYkSUIURTw9PRk/PpTOnTvfhzkqmfPnz1G6dGnat2+PLMt4eHiSk5PD0aNHqVKlitP2w4cP58aN60ycGEbbtm2Jiopi5coVJCcnM2zYcHr37o0oiqqQXbJkCRs2rMdqtd42mevw9/dn8uQpNG3atNBvPXDgANOnT8NoNKIoCnq9jldffY133nF8o2No6HjOnDlDnz59CAkZhiAITJkymWPHYujevRujR49xuv9FRn5LZGQkLVu25P33P8i3ntHRvzNz5kx1Hez3vowdO5aXXur55J8wSgKLxUJ2tu3CJWcwmUwYDAaHV6zm5GSTkZGBxWJl3bp1vPrqAI4c+Z3U1NR8GqEkSYwaNYrx48eRkpKCxWLF09NTleCzZs1k6NDBDk8LRqORrKwscnJuMWfOHFasWEFubi6CIKjtN2zYwMsv9yM7O9uhVjFjxnTefvv/uHIlCUmSqF79aXx8vMnOzubzz/9LSEiIQybbsWM7ffr05vz585hMJvz9/XF3d8dkMhEdHU2XLp25dOmSw3nLzs4mMzOTkydPEhIylJycHATBdh2rxWJhz55fGDJkcEn1byRJYtCgt/Dw8CArK4ulS5cUW/vJyckhO9u5BitJEtnZ2dy6davAu2VZZtOmjfTp04tTp05hNptwc3NDFEVMJhO//vorffv24fz5c8XSjk+fPk3v3r3Zt28fRqORsmXLUqFCBSwWCzExMXTp0pm4uLgC75RlmcuXL9O1axd+/PFHTCYzoiji5uaG2WwmLi6OAQNeYdu27/O1y8zMwmAwYDQaEQQBnU4kLS0NgyEdg8GgCiwbv5jJyMggNzfX4bdPnz6NDz/8D3l5eVitknr51K5dPxESEnJP4Tlu3DjCw8O5du0agiBQvfrTuLm5kZGRwYcfTmXcuLEltj6sXr0aWVZo06atanUYOnQoer0LP/ywrdD2WVmZGAwGRFFk3LixTJgQSnx8PBkZBvLyclV+uXnzJr1792Lt2rXk5tpOmZ6enpjNZlJSUhg5cgTz5s112s/PP//M+++/R05ODqIoIkkSJpOZr7/+mokTJzhsY7cY2NdElmW6d+9BZmYme/fuddqXXZm7ceMGnTq9oAoLSZKYNCmcCRMmcP36dURRpGrVqnh7e5Obm8usWbMYOXJEPrp44k4YNm1IKfGxtbBm9r85e0aWZeLj/2D37l20bt2aRo0a4+XlSeXKVVStY/PmTcTExCBJVsLCwmnXrh0+Pj6YTCb+/PNPJk/+gNOnzzJ9+jQ+/njaXcRu2yCTk5O4fj2FBQsWULduPdzc3G4TxR4WLlzIjRs3+PLLLwgNnZBv09+y5Tt27NiBKIpMnBhGly6d8fLyxmq1EhcXx9SpUzh9+hRhYROZOXOWGsVy/fp1Zs+ejaIoTJwYRseOHfH19cVisXDu3DkmTQrHYDDw3nuTiIhY49COKooiK1euJCwsnFatWuHl5UVOTg5bt25h+fLlnDlzho0bN9K3b997Xv961xaAKNruDx81ajRz5sxm5cqV9O7dp4AGXZR3OTOVFBZ1d/nyJebOnYsoivTs2ZOBA1+nbNmyyLLMpUuX+PDDqSQlJfGf//yHVatW39NGrigKWVlZTJw4gby8XIKDgxk7dhyVKlUC4MaNGyxbtowdO7YzYsS/2bhxE4GBgWp7q9XKsGEh5Obm8swzz/Cvf/2bqlWrIggCqampREZ+y+bNm1X6qVmzJoIg0L9/f55//nmSkpL48MOpyLLMwoWLKFWqFIqiEBAQUGAOHPHZd999xw8//IAgQN++fenf/xUCAgKQJImLFy+wZMlStm/f5lSoL1u2jKiow3h6ehEWFkabNm3w8PDAbDZz7Ngxpk6dQlRUFLNmzWTixLBi29WjoqIQRYGOHTuiKAqiKNKnT1+WLFnC6dOnOXfuLDVr1nL6XkmS2LLlO44fP06nTp2oVasWLi4uNG3aTKXdyZM/IC0tndKl/fjoo4+pU6cOrq6uGAwGNm/ezJo1EWzatIlu3bpTv379u/wEIsuWLb19LXAQ7u7uZGZmsmrVSrZs2cqBAwfYt28v7ds/72A97HRs47lWrVpRtmwAN25c59ChQ7Rq1aoAf12+fBmj0YhOp6Nu3brqd2zdupX9+w8gSVamTp1Ku3bt8fLywmQyERcXx6RJ4cTGxrJo0SLGjRv3ZJ4w7BEQBw8eZP/+/Q5/9u3bS1pa2kMI6RO4du0aM2fOZO7ceQwePJj+/V+hVatWAKSmpjJv3jxkWeKTT2bSu3dvnnrqKVxdXfHx8aFly5YsXrwYd3d39u7d61B7FAQRWZZZuzaSli2D8fX1xcPDg3LlyvHaawN57733EASB7777jpSUFLW9xWLhiy++QJIkRo4cSa9evfDy8lYdZU2bNmXKlCnIskxU1GH1FCUIAoGBgYwbN57BgwfTp08f/Pz8VI21fv36zJ//KbIsc+HCBac2YEVRGDhwID169KBMmTJ4eHjg7+/PsGHDadeuPQBff72mRGtiVxI6d+5MuXLl0Ot1zJo1828JnZZlmfnzP0WvdyE4uCWhoROoXLky7u7ueHp6Urt2bVasWMlTT5WmYcOG97zW1o5Vq74iNTWVGjVqMn/+p1SsWFH1vQUEBDB+/HgCAwNRFIVvv12bz3e2atUqjEYjVapUYfr0GdSuXRsPDw/c3d2pUKECoaET6NTpBYxGIzNnzlA3nYCAAOrVq0vVqlXUta9RowZ16tShXr16uLi4FOnbN2xYjyCIdOnSlfHjQ6lcuTKenp74+PjQsGEjZs6cSV6eERzcnW0yGYmM/BZFkZk8+QM6deqEh4eHanK1Cc+xKArs2rWr2NptSkoK6enp+Pr60bhx47+KBHp4UL58eRRF4eeffylUCImiQHx8PF9//TUffvgf3njjTQYMeJU6deogyzL79u0jLi4OLy8PvvxyCc2aNcPb2xtXV1fKli3LO++8w4svvqg+f3cEmqIozJo1i44dO+Hn56fyd3j4e1SsWBEQ2LdvX5EEpU6no2XLlqqyerewUBSF7dt/QK/X88ILL+Dn56eanz/9dD6KIjFv3jy6deuungrd3Nxo3rw506ZNRxAEtm37nhs3rj+SEGnx/hlYYvfunwkPDyMsbKLDn/DwcE6ePPnAnTY6nchzz7WhZctgh4sZGxur2v9at25dwPkuCAI1a9YiKKgFsizz9ddrHL6nYsWKPPXUU6oD394WoHv3Hnh5eaEoCseOHVMJ8OzZs+Tk5ODnV5pevXoXeK8gCLRoEUSdOnWQJJnIyMh889OzZ0+GDRuer097u/Lly6PX27RmgyHd6cnsmWeeyTdm+782p6Ny26RXsiQ2QRDw8vJi9uw5WK0Shw4d4sCB/Q+ViBVF4dq1a0RH/44kSUycGI5er883PzqdDm9vbzZt+o6wsHA8PT2LNJZDhw4B8NZbg1T7/Z2nNTc3N8aOHYssy2zbtk01e+bl5RERsRqr1cqoUaPx9vYu0FaWZd544w0URSEhIVGdc9vaiA5Ph0U59dnyGS5y6dIldDqRUaNGqe3vHJunpyedO3dBFAueVn777Tdyc/OoUaMm7dq1L9CvKIp07tyFgAB/jEYjO3fuLDIf205MCwGFrl275kv0lGWZF198EVEUOXjw4D3WR2TkyFGUK1cwhFsURTZt2oiiKAQHt6Jy5coFxi8IAuHhk/jqq1U0atTIYR9Vq1YrwCv2d4qiyNWrV4s85s6du6AoEB8fX4AfcnNz2bZtm2rWtfcZExODxWLBxcWVli2DHdJEcHAwFStWxGQys23btifzhCEIAqVKlaJSpcpUqlTJ4U+FChVL5IAsiqZ794ZxJzMcOXIEvd6FRo0aO81KBtRjYWJiosP33M1o+Wx6ej0BAWURBIEzZ86ozrfdu3eh1+tp3LgxOp0OSZKwWq35fmRZpmHDhgDs2bOnAKHbCdD+753RHraNRkGWHd1BXvgmY0v8UpxG4xRn7WvVqkXDhg3R6XQsXLjoodpXBUEgOTn5dl6PCz4+Pk6fLWrej6IoZGdnk5KSAkCzZs3VaKG718puNsnLy+Pq1avIskxq6k11zJUqVXIoMEVRpFq1anh52Wzqf/zxxwMRrIqiEB0dDdhOQf7+/k61YNtppWCfP/74o6oV26Nz7v4BqFmzJqIosnfv3iKbpMxmM/v27UWWZZ5/vr0aPWQfe58+fXF1deXChUTOnj3rdE4URcbV1dVpv1evXkUURerUqVOo5n8v2nI0v+XLlweUIitWoijSokULypYNICsri8OHD+eLWIyLiyMvLw9PT8/bpxfb70+cOIFer6dBgwYIguBwv5AkK2XKlEGWJeLj4x9JyO19+zBEUaR//1cYNmxYoUxQPDt50R2whcGWmazg5+erRkY5gpeXt7oROLe1Oye00qX9EEWB9PR0lTjPnDmDxWLh0KHf6NGjh5ONRMBozEOSJNLSUvMlAdlDJCMjIzl8+BBpaWlYLBZV8zGZTPeRDyIXOqbiYsmSpXTp0pnr16/xzTff8NZbbz00gjUYDOq6PwiGsZ1aUjCbzQiCwIABrzj1md252eXl5d2mGaOqvBRmQnJzc8Pd3YO8PCPnz59TFYn7FaBJSVeKwV8F5+vixYvIssSmTZv44YftDunUNk5biO7Nm9eLPO92Iezi4oIk2fyN+YWYKxUrViQxMZF16yKZPHmK0+8urM/cXNtpz8PD4yHkLigl2hM7dOjEunWR/Pe/n9G6dWv1b7t2/YQoinTs2DGfUnPtWgqg8McffzjdL+zrIIoCubmPpnrCA0nck2VJdWY9TrCVpBCKmO9AiW3wtvZCPu3a9n/hjk3GUcy4gqurG66ubqrd2I5FixaxefNGTCbz7c1IX2CDKbmW+uA1kzffHMSyZUuIiFhNz549C4znQfow7M7yB2X+MhpNCII9X0Z2eqIUBPD29iYvL0+ldavVcs9T3d3f7ijqr6S8Z5+D+98kldv2fcf07e7urs5PUTZlRVFYsWI5omg7XY8ePcoJ3dm+/9ixY/dlFr/b7PoooSgKHTp0YN26SK5cuUJWVhalSpUiJydHtSSMGDHSgX/Dnl/iPG/HZikRHll5m//pnHZ//zIkJCTc0+yiKDZGKWn5EjujeXp6qAtbpkwZ9Hodbdq0Zdq0aUUq0GgXCDt27CAy8lv0ej3h4ZMICgqidOnSKjOYzWZ69XoJs/nxKKKn0+l46623+Pnn3SQmJrJw4QLCwsKLxJlD02AAAA4LSURBVFjFFV72Ob6X1lkc+Pn5IQgiLi56tmz5Dk9Pr0LX6861cnNzL5YAVxSZwMDyD+TbJUm6HUhRMsEpCAIeHp6Iosjrr7/JsGHD7skrzpJw717XjIwM9u7di6LINGjQ0Gn5cEmSOH78ODdv3iQhIYGnn3662HPj5uamhrU/DtnRgiBQv359ypUrx82bN/njjz9o1aoVUVFRmM1mKlWqjJ+fX7427u4eiKJA69bPMWPGjCL18Y8UGIVVzxSE+5uYunXrExX1OwkJiYW+Jzk5GVmWCyxiUYVFSso1JEmiUqXKt09cMsHBwRw6dIjr168VcFzfi9n27PkFUdTRsGFDevXqlY9A/jqxCI9djaZ33x3LmDGj2b9/P8OGDS/SmC0Ws8PnnGm6/v4B6kZTmL+kqJq3KIqUL18eHx8fsrOzuXbtOjVq1HBoLrr7nX/5g+ymkVyntnCDwUBmZiag0KxZswfC8IIg0KCBLUQ0Ozu72HWNFEWhZctnuHAhkYsXbTzirH1xTjKCIBAXF4ck2SwP8+bNw9vbx+mzISEhnDlzhmXLlvHJJ58Uex58fHy4efOmmkNyv9//QDZWvZ4BA17lv//9jIiICJ599ll+/XUfAJ06dcwn2GzBNzXZs+cXzp8/5zQh91GMowC/PKrNpXTp0siyTE5ODgaDoYB2ZrMtXy+x+UQQBFq3boUkSVy5ctlhH3YcP34CQRBp06atw/c4Sy6UZZmsrKzbkUoCjRo1VE1zHTp0BODUqVNcuHDBaXmTffv2cf78+Xy/t20s4O/v71BjsjPi41Rmxhb11YIOHTpgMpmYNu3jQrVVd3fbSeHs2XMOI8hs2bYF+6hWrSoeHh7Isszx48edlodYv349Bw4cKJLWr9frqVmzJiAUSK67c62ysrJYu/Yb9dIdQRB46qnSVKtWDVEU2bdvr9MQ56iow8iyhK+vH+XLOzthFE8DsDlYg3BzcyMrK4uoqCinc+4sibFnz17Issxvvx1yGvquKArff/+96i8piiDavn07er2eoKBn8PEpVWjZoI4dOyDLEjExx0oUtde0aVMEQSA2Ntbp9xgM6cybN7cQP+WDx3PPPaeeoAwGA7Gxsej1LvTr93KBZ5s3b46i2Bz42dlZTul248aNDoNzniiBYT+m2mujOPq5cwLsUSO+vjZn9OTJH+SLApJlmfT0dFavXqWWfCjZCaMegYGBuLjomT9/HmazWd1s7f0sWfIliYkJeHt7MWjQIIfElpyczNatW/K1s9esGTNmDBaLBT8/X5o1a65uBL6+vlSqVAlBEJk9exYmk0nt2/4TGxtLeHgYISFD8zFKQEBZwHbBiz0s0963JEls3bpVrWr6uOHtt99Br9dz8uRJLBbn31iuXDk1ptxoNKprb6/YGhkZ6VAgenh4MnRoCIIgEBY2UY1WunNtEhMTWbz4cyZNmkR8fPwdkWWON2VZlunX72UEwVYOxi7g7ev011qP5vPPP2fp0qXquERRx+TJU27b7Fdw8uSJfHXO7PXLvvxyCWBLXitIY/n/LZ6JzlPdbObOnUNOTk4+PpJlW82m6OiCNb8EQaBChQqUK1cOi8XCvHnzMJtNBXhkz549zJo1k8GDBxdJWKSmprJ//6/Issy77757z+ftTuGcnByn1QsKaz9kyFD0ej2nT59mzZo16prax2A0Gpk0aRLbtm1jzpzZfwvf2Oe2TJkyCAKsX78eg8FArVq1HEazNWrUiKpVq6DX6/nggw8K7FUAJ0+eZMGCTxk06E1SU1OfTJOU1WplzZo1rFsX6fQ0YNPEyrB+/Xr1dy4uLvTr148VK1Zw7NgxevXqyf/93//h7e3DwYMH2LlzJ6+8MoCNGzfc17Hwq69W0b17N/bu3cvhw4d54403CAoK4sKFCyxdukzNY5gwYYJDH4aiKFSrVp25c+exatVqBg58jbJly3Hy5Am++eYbRFGHLEvMmPFJvvaiKPLtt5F07tyZuLg/6N69G6+99hpt2rQlOzubiIjVxMTEoNfr6NSpU74Imy5dOrN37x5SUlIYMGAA77//Pr6+vupGmJWVRYUKFbh6NZn58+dRtWo1pk+f/licMipVqsSYMWOYO3cuzjK5ZVlm9OjRhIQMJSkpie7duzFkyFCqV6/OqVOn2LBhPfXq1XMaKdK/f38WL/4cFxdX+vbtw4svvkj37j3Iy8tjw4YNHDkSjSiKdO/eQw1bttODosD+/ftJSEigbt16hIaG3j4RdqBHjxfZvv0HXn99IM2aNefNN9/Ex8ebqKgovvpqJTqdC4qi8PrrA+8yCzUgKCiImJgY3n77bYKCghgw4FU8PT3YufMntm//AVEUqVmzVr5qAHb6unPtw8ImotPpKFWqFPPmzS/ShhkePolevV4iNTWVbt260rVrN9q2bUteXh7ff7+Vc+fO07dvP7Zu3eKQR1avjqBHjx78+us+XnwxmjffHERQUBDp6WmsWLGSM2dOI4oi/fr1KxIN/PbbQcCW/1GrVq17Pl+jRk1q165NQkICn332GQsXLiyyyUUQBPz9/QkJGcaSJV/yxReL2bp1K8OGhRAYWJ6oqCjWrIlQy/mMGzf+b7sXxObcHsH06dNZteorBEGgXbt2Tp/97LP/0rPnS8TGxtK58wsMHjyY4OBg0tMNRESs5uTJk+h0OgYNGoS/v/+TJzDsmozFYlHDEp3B0aUvgwa9xcWLF/nll19IS0tnzpw5yLKC1Wqhf//+VKtWDUmSkCSrA9u35XZ0VuFOOj8/PzZt2szw4cNIT09n+fIVrFixAhCwWi3odHrmzp3Ds88+54wkcXNzZePGjfTr15f58+fnszEKAsycOZPGjRs7ZOY1a9YwZswoLl26TEREBGvWfI0goNrfhwwJYciQIfkYoG3bdgwf/n8sW7aEy5cv8a9//eu2piHh5+fHqlWruX79OiNHjuDcuXNqX3fmbth+HDsBi1pN8+6x2Mp1UKipyXZ3w0ssX76c9HSDw+dFUaR+/fqMHj2ahQsXYjKZWL58mZr/0KRJY0JCQm7f5ljwW93c3Pjxx52MHfsup06dYufOnezatfs2TVpvh8cOyFc0TlEURo8ew9GjRzEYDKSnp6PT5c97mTBhAqVK+bB27VqOH48lLu7kHfOp8PTTVfj00wWULl3w0p8FCxayePHnrF27lmPHjnH8+AlsdbdsUS9t27blgw8mO9woqlWrRtu27ThwYD/x8X8CFCizYjt9WQvQuyAIlClThuXLVzJy5Ahyc3PZvXsXu3fvUtf5ww//w6lTf2KxWBz6fby8vFi5ciXjxo3l5s2bLFu2lGXLlqoKoU6nIzR0An369CkSrfz0k63vwvIi7sbLL7/MjBnTiY7+nbS0NHVDtOUfyPfk8zfeeINSpUoxa9ZMkpKuMG3adGyRdLZ9yt8/gJUrV+YrYnlnBKMzfrD1LxVSPVjCarU45DNRFGnf/nlmz56tFhG0h8w62ivLli3Lli1bGTToTbKyslixYiUrV65U9ztRFAkNDaVnz16PTilU7kPUnjlzRs09uBdcXFwICgpyuPHHxMQQHR1NVlYWPj4+tGnThubNm3Pt2jUuXryAh4cHTZrkrzR5+vQpDIYM/P3976nFgC1u/ujRoxw/fpzMzEzc3d1p1KghwcGtnDq7162LZMGCBdSqVZuIiAhu3rzBnj17SUxMRBCgRo0atG79rFpGorC+Y2KOcfz4cTIyMnFx0VOnTh2aN2+uOsodEePZs2c4fDiKlJSrCIJI7dq1adeuHQEBAWqW7/Xr13B3d6dp02ZqW5u93OZcdRTempmZSVxcnJo9WpR8AKvVyu+/RwG2CJDSpUsX+vzVq1e5dOkSsixRv34Dp8+fO3eOAwcOkJJyFb3ehRYtWvDss8+qJjtBEAgODi7gjLUzXWxsLDExx7h2zRZcUKVKFVq2DKZGjRoOyzIkJyeTlJSEoiiUKlWKBg0aFJj3hIQEjhw5wuXLl5AkicDAQJo2bUbz5s0LdTja1yQ6OprExARkWSEwMJBnnnmGBg0aFDrPFouFkydPqJFvrq4utGgRpL43LS2Ns2fP4uXlRZMmTZz6WA4fPsSJEyewWiUqVqxAu3btqV69OpcvX+batRR8fX2pW7eew/Y5OTnExMRw8uQJsrKy1VI0QUFBDutaOcORI0ewWq1UrVqF8uUrFKldbu4tYmNjURRo1qyZmugbGxuLyWSiVq1alClT5p7vuXr1KtHRv3PmzFmsViu+vqVo1qw5LVq0KJC8m5OTw4kTx5Flm1nMkcM/OTmZS5cu4enpWaDabVxcHNnZ2VSoUIFq1ao5pQnbFQAKrq6uKg0VPhe5xMTEEBsbQ2ZmFm5ubtStW5egoBYPLMLukQiMB4k7Q+Ie5oQUpx+7wKhduzarV0eo7e6MVChOGN/dfd+rbcG6VsJjdZnSg1oPu/+rpGtfnHktag6B/T3Fpcm7aeTOtStq2wdF4/YCnMV959/Fiw+Tnp7kMZR0v3gifBgP0v79d0zG/fTjKDmoOO9yVMuqKP05+92TLizuHMP9JH0WZ16LGhZaUlq5nwSyB7WejuqHPY68+DDp6UkeQ0n3i78DIho0aNCgQYMmMO5bxv9PaPEaNGjQ8CCg16bAOerWrcvAgQNv50Vo0KBBwz9chVYex+wvDRo0aNDw2EEzSWnQoEGDBk1gaNCgQYMGTWBo0KBBgwZNYGjQoEGDBk1gaNCgQYMGTWBo0KBBgwZNYGjQoEGDBg2awNCgQYMGDZrA0KBBgwYNmsDQoEGDBg2awNCgQYMGDZrA0KBBgwYNTy7+H+GXU/vHzueSAAAAAElFTkSuQmCC;" vertex="1" parent="1">
          <mxGeometry x="578" y="742" width="174.24" height="55" as="geometry" />
        </mxCell>
      </root>
    </mxGraphModel>
  </diagram>
</mxfile>
